<svg width="1716" height="2622" viewBox="0 0 1716 2622" fill="none" xmlns="http://www.w3.org/2000/svg">
<path d="M1560.27 564.54C1439.4 371.53 1301.63 0 868.599 0C769.819 0 679.269 32.39 608.779 86.24C581.029 80.24 551.979 79.19 522.119 84C396.069 104.3 266.799 257.73 154.619 486.54C68.1588 662.88 -58.6012 778.84 197.499 1083.79C292.879 1264.14 344.139 1467.17 345.199 1665.93C365.069 1643.74 376.029 1613.79 383.959 1589.57C417.199 1677.4 497.039 1746.01 590.499 1766.39C567.299 1745.32 553.089 1714.66 550.319 1685.69C641.209 1758.42 762.969 1791.18 882.639 1773.68C880.449 1755.65 878.269 1737.61 876.739 1719.78C892.459 1740.84 908.179 1761.9 930.299 1783.43C1003.21 1765.73 1066.53 1712.27 1087.42 1646.29C1094.92 1690.05 1084.35 1736.63 1057.38 1770.78C1144.68 1733.15 1218.4 1664.84 1256.73 1581.39C1246.91 1618.74 1261.45 1661.31 1291.97 1691.49C1281.59 1500.31 1336.45 1306.18 1444.49 1150.33C1595.47 942.59 1724.01 826.01 1560.27 564.54Z" fill="#383332"/>
</svg>
