<svg width="1716" height="2622" viewBox="0 0 1716 2622" fill="none" xmlns="http://www.w3.org/2000/svg">
<path d="M595.11 157.972C864.992 -13.8717 1217.16 58.9258 1413.05 308.11C1462.67 371.239 1497.98 441.13 1519.48 513.967C1537.11 559.5 1547.72 607.928 1555.51 655.7C1609.01 983.88 1553.92 1320.05 1475.83 1643.27C1415 1659.88 1355.99 1666.34 1297.62 1662.56C1302.36 1656.26 1306.86 1647.99 1309.18 1639.14C1301.49 1648.33 1292.13 1655.57 1282.01 1661.54C1211.25 1670 1139.35 1672.92 1067.48 1672.35C925.039 1680.4 782.798 1685.5 640.558 1685.58C626.959 1680.26 614.809 1671.5 604.779 1660.75C605.779 1669.7 608.418 1679.04 611.058 1688.38C520.579 1688.73 429.839 1690.9 339.089 1693.07C309.909 1682.87 287.069 1659 277.649 1630.4C282.539 1656.11 295.269 1680.3 313.529 1699.2C275.079 1701.81 237.198 1701.05 199.518 1697.82C95.5385 1460.6 73.4487 1195.77 73.5487 936.27C73.5787 857.37 75.5893 777.99 90.9793 700.61C100.414 653.175 115.128 606.312 136.614 563.081C227.376 308.066 415.471 138.524 595.11 157.972Z" fill="#B195CE"/>
</svg>
