<svg width="1716" height="2622" viewBox="0 0 1716 2622" fill="none" xmlns="http://www.w3.org/2000/svg">
<path d="M1480.35 1803.88C1446.53 1784.36 1427 1767.87 1414.34 1738.82C1443.14 1790.13 1512.62 1800.93 1575.89 1801.97C1505.57 1761.76 1449.38 1702.98 1431.52 1615.5C1413.66 1528.02 1422.71 1437.33 1437.07 1349.21C1451.44 1261.07 1560.1 1077.98 1560.1 812.91C1560.1 611.78 1512.76 209.15 1063.39 82.9298C938.523 47.8598 796.753 58.9198 692.433 136C523.693 119.07 363.963 207.76 271.153 336.34C178.343 464.92 117.083 648.66 106.733 806.89C96.0627 970.02 117.343 1136.71 154.463 1295.92C175.113 1384.52 314.853 1627.61 121.533 1787.93C161.923 1778.72 198.383 1753.29 223.893 1722.8C220.013 1746.91 203.983 1768.76 185.613 1781.2C276.213 1822.21 389.953 1805.77 461.333 1741.38C453.723 1756.59 446.113 1771.8 439.533 1785.33C483.713 1790.17 528.523 1795 572.423 1788.06C616.323 1781.12 697.963 1753.88 719.453 1723.95C718.723 1740.78 793.573 1776.4 839.243 1783.54C930.503 1784.96 960.863 1751.3 965.683 1738.94C990.403 1766.22 1024.24 1785.09 1066.54 1795.59C1064.18 1785.83 1061.83 1776.07 1059.97 1773.85C1156.35 1800.38 1257.56 1809.23 1366.8 1801.41C1358.89 1789.23 1355.7 1774.07 1358.04 1759.74C1358.89 1761.19 1359.73 1762.64 1360.58 1764.09C1390.71 1788.55 1417.99 1801 1480.35 1803.88Z" fill="#383332"/>
</svg>
