<svg width="1716" height="2622" viewBox="0 0 1716 2622" fill="none" xmlns="http://www.w3.org/2000/svg">
<path d="M1628.42 2136.22C1677 1948.45 1494.21 1880 1452 1760C1409.79 1640 1380.81 1383.16 1445.59 1187.84C1501.02 1020.72 1550.09 797.656 1516.58 630.826C1483.07 463.996 1402.53 326.216 1278.61 209.606C1208.51 143.636 1124.77 89.2059 1030.87 68.0059C936.966 46.8059 832.126 62.256 757.166 122.646C657.496 88.776 545.206 104.556 452.206 153.646C359.206 202.736 284.836 283.106 233.086 374.656C181.336 466.206 151.196 568.706 133.676 672.406C107.086 829.846 108.926 995.326 169.586 1143.71C238.156 1311.42 290.106 1529.97 180.536 1680.42C135.596 1742.13 62.8057 1781.27 30.4857 1850.44C-1.82433 1919.61 -5.78429 2005.59 40.7157 2078.76C568.026 2050.28 1062.08 2154.34 1628.42 2136.22Z" fill="#383332"/>
</svg>
