<svg width="835" height="862" viewBox="0 0 835 862" fill="none" xmlns="http://www.w3.org/2000/svg">
<path d="M43.7188 86.1657L78.1979 107.897V64.4346L43.7188 86.1657ZM51.1059 86.1657L74.2587 71.5777V100.754L51.1059 86.1657Z" fill="#A85C56" fill-opacity="0.1"/>
<path d="M129.917 86.1657L164.396 107.897V64.4346L129.917 86.1657Z" fill="#A85C56" fill-opacity="0.1"/>
<path d="M121.297 172.333V150.601L86.8179 172.333H121.297ZM86.8179 0L121.297 21.7311V0H86.8179Z" fill="#A85C56" fill-opacity="0.1"/>
<path d="M35.0988 172.333V150.601L0.619629 172.333H35.0988ZM0.619629 0L35.0988 21.7311V0H0.619629Z" fill="#A85C56" fill-opacity="0.1"/>
<path d="M216.115 86.1657L250.594 107.897V64.4346L216.115 86.1657ZM223.502 86.1657L246.654 71.5777V100.754L223.502 86.1657Z" fill="#A85C56" fill-opacity="0.1"/>
<path d="M302.312 86.1657L336.792 107.897V64.4346L302.312 86.1657Z" fill="#A85C56" fill-opacity="0.1"/>
<path d="M293.693 172.333V150.601L259.213 172.333H293.693ZM259.213 0L293.693 21.7311V0H259.213Z" fill="#A85C56" fill-opacity="0.1"/>
<path d="M207.495 172.333V150.601L173.016 172.333H207.495ZM173.016 0L207.495 21.7311V0H173.016Z" fill="#A85C56" fill-opacity="0.1"/>
<path d="M43.7188 258.499L78.1979 280.23V236.768L43.7188 258.499ZM51.1059 258.499L74.2587 243.911V273.087L51.1059 258.499Z" fill="#A85C56" fill-opacity="0.1"/>
<path d="M129.917 258.499L164.396 280.23V236.768L129.917 258.499Z" fill="#A85C56" fill-opacity="0.1"/>
<path d="M121.297 344.666V322.935L86.8179 344.666H121.297ZM86.8179 172.333L121.297 194.064V172.333H86.8179Z" fill="#A85C56" fill-opacity="0.1"/>
<path d="M35.0988 344.666V322.935L0.619629 344.666H35.0988ZM0.619629 172.333L35.0988 194.064V172.333H0.619629Z" fill="#A85C56" fill-opacity="0.1"/>
<path d="M216.115 258.499L250.594 280.23V236.768L216.115 258.499ZM223.502 258.499L246.654 243.911V273.087L223.502 258.499Z" fill="#A85C56" fill-opacity="0.1"/>
<path d="M302.312 258.499L336.792 280.23V236.768L302.312 258.499Z" fill="#A85C56" fill-opacity="0.1"/>
<path d="M293.693 344.666V322.935L259.213 344.666H293.693ZM259.213 172.333L293.693 194.064V172.333H259.213Z" fill="#A85C56" fill-opacity="0.1"/>
<path d="M207.495 344.666V322.935L173.016 344.666H207.495ZM173.016 172.333L207.495 194.064V172.333H173.016Z" fill="#A85C56" fill-opacity="0.1"/>
<path d="M43.7188 430.832L78.1979 452.563V409.101L43.7188 430.832ZM51.1059 430.832L74.2587 416.244V445.42L51.1059 430.832Z" fill="#A85C56" fill-opacity="0.1"/>
<path d="M129.917 430.832L164.396 452.563V409.101L129.917 430.832Z" fill="#A85C56" fill-opacity="0.1"/>
<path d="M121.297 516.999V495.268L86.8179 516.999H121.297ZM86.8179 344.666L121.297 366.397V344.666H86.8179Z" fill="#A85C56" fill-opacity="0.1"/>
<path d="M35.0988 516.999V495.268L0.619629 516.999H35.0988ZM0.619629 344.666L35.0988 366.397V344.666H0.619629Z" fill="#A85C56" fill-opacity="0.1"/>
<path d="M216.115 430.832L250.594 452.563V409.101L216.115 430.832ZM223.502 430.832L246.654 416.244V445.42L223.502 430.832Z" fill="#A85C56" fill-opacity="0.1"/>
<path d="M302.312 430.832L336.792 452.563V409.101L302.312 430.832Z" fill="#A85C56" fill-opacity="0.1"/>
<path d="M293.693 516.999V495.268L259.213 516.999H293.693ZM259.213 344.666L293.693 366.397V344.666H259.213Z" fill="#A85C56" fill-opacity="0.1"/>
<path d="M207.495 516.999V495.268L173.016 516.999H207.495ZM173.016 344.666L207.495 366.397V344.666H173.016Z" fill="#A85C56" fill-opacity="0.1"/>
<path d="M43.7188 603.164L78.1979 624.895V581.433L43.7188 603.164ZM51.1059 603.164L74.2587 588.576V617.752L51.1059 603.164Z" fill="#A85C56" fill-opacity="0.1"/>
<path d="M129.917 603.163L164.396 624.894V581.432L129.917 603.163Z" fill="#A85C56" fill-opacity="0.1"/>
<path d="M121.297 689.33V667.599L86.8179 689.33H121.297ZM86.8179 516.998L121.297 538.729V516.998H86.8179Z" fill="#A85C56" fill-opacity="0.1"/>
<path d="M35.0988 689.33V667.599L0.619629 689.33H35.0988ZM0.619629 516.998L35.0988 538.729V516.998H0.619629Z" fill="#A85C56" fill-opacity="0.1"/>
<path d="M216.115 603.164L250.594 624.895V581.433L216.115 603.164ZM223.502 603.164L246.654 588.576V617.752L223.502 603.164Z" fill="#A85C56" fill-opacity="0.1"/>
<path d="M302.312 603.163L336.792 624.894V581.432L302.312 603.163Z" fill="#A85C56" fill-opacity="0.1"/>
<path d="M293.693 689.33V667.599L259.213 689.33H293.693ZM259.213 516.998L293.693 538.729V516.998H259.213Z" fill="#A85C56" fill-opacity="0.1"/>
<path d="M207.495 689.33V667.599L173.016 689.33H207.495ZM173.016 516.998L207.495 538.729V516.998H173.016Z" fill="#A85C56" fill-opacity="0.1"/>
<path d="M43.7188 775.496L78.1979 797.227V753.765L43.7188 775.496ZM51.1059 775.496L74.2587 760.908V790.084L51.1059 775.496Z" fill="#A85C56" fill-opacity="0.1"/>
<path d="M129.917 775.496L164.396 797.227V753.765L129.917 775.496Z" fill="#A85C56" fill-opacity="0.1"/>
<path d="M121.297 861.663V839.932L86.8179 861.663H121.297ZM86.8179 689.33L121.297 711.061V689.33H86.8179Z" fill="#A85C56" fill-opacity="0.1"/>
<path d="M35.0988 861.663V839.932L0.619629 861.663H35.0988ZM0.619629 689.33L35.0988 711.061V689.33H0.619629Z" fill="#A85C56" fill-opacity="0.1"/>
<path d="M216.115 775.496L250.594 797.227V753.765L216.115 775.496ZM223.502 775.496L246.654 760.908V775.496V790.084L223.502 775.496Z" fill="#A85C56" fill-opacity="0.1"/>
<path d="M302.312 775.496L336.792 797.227V753.765L302.312 775.496Z" fill="#A85C56" fill-opacity="0.1"/>
<path d="M293.693 861.663V839.932L259.213 861.663H293.693ZM259.213 689.33L293.693 711.061V689.33H259.213Z" fill="#A85C56" fill-opacity="0.1"/>
<path d="M207.495 861.663V839.932L173.016 861.663H207.495ZM173.016 689.33L207.495 711.061V689.33H173.016Z" fill="#A85C56" fill-opacity="0.1"/>
<path d="M387.878 86.1657L422.357 107.897V64.4346L387.878 86.1657ZM395.265 86.1657L418.418 71.5777V100.754L395.265 86.1657Z" fill="#A85C56" fill-opacity="0.1"/>
<path d="M474.076 86.1657L508.555 107.897V64.4346L474.076 86.1657Z" fill="#A85C56" fill-opacity="0.1"/>
<path d="M465.456 172.333V150.601L430.977 172.333H465.456ZM430.977 0L465.456 21.7311V0H430.977Z" fill="#A85C56" fill-opacity="0.1"/>
<path d="M379.258 172.333V150.601L344.779 172.333H379.258ZM344.779 0L379.258 21.7311V0H344.779Z" fill="#A85C56" fill-opacity="0.1"/>
<path d="M387.878 258.499L422.357 280.23V236.768L387.878 258.499ZM395.265 258.499L418.418 243.911V273.087L395.265 258.499Z" fill="#A85C56" fill-opacity="0.1"/>
<path d="M474.076 258.499L508.555 280.23V236.768L474.076 258.499Z" fill="#A85C56" fill-opacity="0.1"/>
<path d="M465.456 344.666V322.935L430.977 344.666H465.456ZM430.977 172.333L465.456 194.064V172.333H430.977Z" fill="#A85C56" fill-opacity="0.1"/>
<path d="M379.258 344.666V322.935L344.779 344.666H379.258ZM344.779 172.333L379.258 194.064V172.333H344.779Z" fill="#A85C56" fill-opacity="0.1"/>
<path d="M387.878 430.832L422.357 452.563V409.101L387.878 430.832ZM395.265 430.832L418.418 416.244V445.42L395.265 430.832Z" fill="#A85C56" fill-opacity="0.1"/>
<path d="M474.076 430.832L508.555 452.563V409.101L474.076 430.832Z" fill="#A85C56" fill-opacity="0.1"/>
<path d="M465.456 516.999V495.268L430.977 516.999H465.456ZM430.977 344.666L465.456 366.397V344.666H430.977Z" fill="#A85C56" fill-opacity="0.1"/>
<path d="M379.258 516.999V495.268L344.779 516.999H379.258ZM344.779 344.666L379.258 366.397V344.666H344.779Z" fill="#A85C56" fill-opacity="0.1"/>
<path d="M387.878 603.164L422.357 624.895V581.433L387.878 603.164ZM395.265 603.164L418.418 588.576V617.752L395.265 603.164Z" fill="#A85C56" fill-opacity="0.1"/>
<path d="M474.076 603.163L508.555 624.894V581.432L474.076 603.163Z" fill="#A85C56" fill-opacity="0.1"/>
<path d="M465.456 689.33V667.599L430.977 689.33H465.456ZM430.977 516.998L465.456 538.729V516.998H430.977Z" fill="#A85C56" fill-opacity="0.1"/>
<path d="M379.258 689.33V667.599L344.779 689.33H379.258ZM344.779 516.998L379.258 538.729V516.998H344.779Z" fill="#A85C56" fill-opacity="0.1"/>
<path d="M387.878 775.496L422.357 797.227V753.765L387.878 775.496ZM395.265 775.496L418.418 760.908V790.084L395.265 775.496Z" fill="#A85C56" fill-opacity="0.1"/>
<path d="M474.076 775.496L508.555 797.227V753.765L474.076 775.496Z" fill="#A85C56" fill-opacity="0.1"/>
<path d="M465.456 861.663V839.932L430.977 861.663H465.456ZM430.977 689.33L465.456 711.061V689.33H430.977Z" fill="#A85C56" fill-opacity="0.1"/>
<path d="M379.258 861.663V839.932L344.779 861.663H379.258ZM344.779 689.33L379.258 711.061V689.33H344.779Z" fill="#A85C56" fill-opacity="0.1"/>
<path d="M559.957 86.1657L594.436 107.897V64.4346L559.957 86.1657ZM567.344 86.1657L590.497 71.5777V100.754L567.344 86.1657Z" fill="#A85C56" fill-opacity="0.1"/>
<path d="M646.155 86.1657L680.634 107.897V64.4346L646.155 86.1657Z" fill="#A85C56" fill-opacity="0.1"/>
<path d="M637.535 172.333V150.601L603.056 172.333H637.535ZM603.056 0L637.535 21.7311V0H603.056Z" fill="#A85C56" fill-opacity="0.1"/>
<path d="M551.338 172.333V150.601L516.858 172.333H551.338ZM516.858 0L551.338 21.7311V0H516.858Z" fill="#A85C56" fill-opacity="0.1"/>
<path d="M559.957 258.499L594.436 280.23V236.768L559.957 258.499ZM567.344 258.499L590.497 243.911V273.087L567.344 258.499Z" fill="#A85C56" fill-opacity="0.1"/>
<path d="M646.155 258.499L680.634 280.23V236.768L646.155 258.499Z" fill="#A85C56" fill-opacity="0.1"/>
<path d="M637.535 344.666V322.935L603.056 344.666H637.535ZM603.056 172.333L637.535 194.064V172.333H603.056Z" fill="#A85C56" fill-opacity="0.1"/>
<path d="M551.338 344.666V322.935L516.858 344.666H551.338ZM516.858 172.333L551.338 194.064V172.333H516.858Z" fill="#A85C56" fill-opacity="0.1"/>
<path d="M559.957 430.832L594.436 452.563V409.101L559.957 430.832ZM567.344 430.832L590.497 416.244V445.42L567.344 430.832Z" fill="#A85C56" fill-opacity="0.1"/>
<path d="M646.155 430.832L680.634 452.563V409.101L646.155 430.832Z" fill="#A85C56" fill-opacity="0.1"/>
<path d="M637.535 516.999V495.268L603.056 516.999H637.535ZM603.056 344.666L637.535 366.397V344.666H603.056Z" fill="#A85C56" fill-opacity="0.1"/>
<path d="M551.338 516.999V495.268L516.858 516.999H551.338ZM516.858 344.666L551.338 366.397V344.666H516.858Z" fill="#A85C56" fill-opacity="0.1"/>
<path d="M559.957 603.164L594.436 624.895V581.433L559.957 603.164ZM567.344 603.164L590.497 588.576V617.752L567.344 603.164Z" fill="#A85C56" fill-opacity="0.1"/>
<path d="M646.155 603.163L680.634 624.894V581.432L646.155 603.163Z" fill="#A85C56" fill-opacity="0.1"/>
<path d="M637.535 689.33V667.599L603.056 689.33H637.535ZM603.056 516.998L637.535 538.729V516.998H603.056Z" fill="#A85C56" fill-opacity="0.1"/>
<path d="M551.338 689.33V667.599L516.858 689.33H551.338ZM516.858 516.998L551.338 538.729V516.998H516.858Z" fill="#A85C56" fill-opacity="0.1"/>
<path d="M559.957 775.496L594.436 797.227V753.765L559.957 775.496ZM567.344 775.496L590.497 760.908V790.084L567.344 775.496Z" fill="#A85C56" fill-opacity="0.1"/>
<path d="M646.155 775.496L680.634 797.227V753.765L646.155 775.496Z" fill="#A85C56" fill-opacity="0.1"/>
<path d="M637.535 861.663V839.932L603.056 861.663H637.535ZM603.056 689.33L637.535 711.061V689.33H603.056Z" fill="#A85C56" fill-opacity="0.1"/>
<path d="M551.338 861.663V839.932L516.858 861.663H551.338ZM516.858 689.33L551.338 711.061V689.33H516.858Z" fill="#A85C56" fill-opacity="0.1"/>
<path d="M714.323 86.1657L748.802 107.897V64.4346L714.323 86.1657ZM721.71 86.1657L744.863 71.5777V100.754L721.71 86.1657Z" fill="#A85C56" fill-opacity="0.1"/>
<path d="M800.521 86.1657L835 107.897V64.4346L800.521 86.1657Z" fill="#A85C56" fill-opacity="0.1"/>
<path d="M791.901 172.333V150.601L757.422 172.333H791.901ZM757.422 0L791.901 21.7311V0H757.422Z" fill="#A85C56" fill-opacity="0.1"/>
<path d="M705.703 172.333V150.601L671.224 172.333H705.703ZM671.224 0L705.703 21.7311V0H671.224Z" fill="#A85C56" fill-opacity="0.1"/>
<path d="M714.323 258.499L748.802 280.23V236.768L714.323 258.499ZM721.71 258.499L744.863 243.911V273.087L721.71 258.499Z" fill="#A85C56" fill-opacity="0.1"/>
<path d="M800.521 258.499L835 280.23V236.768L800.521 258.499Z" fill="#A85C56" fill-opacity="0.1"/>
<path d="M791.901 344.666V322.935L757.422 344.666H791.901ZM757.422 172.333L791.901 194.064L791.901 172.333H757.422Z" fill="#A85C56" fill-opacity="0.1"/>
<path d="M705.703 344.666V322.935L671.224 344.666H705.703ZM671.224 172.333L705.703 194.064L705.703 172.333H671.224Z" fill="#A85C56" fill-opacity="0.1"/>
<path d="M714.323 430.832L748.802 452.563V409.101L714.323 430.832ZM721.71 430.832L744.863 416.244V445.42L721.71 430.832Z" fill="#A85C56" fill-opacity="0.1"/>
<path d="M800.521 430.832L835 452.563V409.101L800.521 430.832Z" fill="#A85C56" fill-opacity="0.1"/>
<path d="M791.901 516.999V495.268L757.422 516.999H791.901ZM757.422 344.666L791.901 366.397V344.666H757.422Z" fill="#A85C56" fill-opacity="0.1"/>
<path d="M705.703 516.999V495.268L671.224 516.999H705.703ZM671.224 344.666L705.703 366.397V344.666H671.224Z" fill="#A85C56" fill-opacity="0.1"/>
<path d="M714.323 603.164L748.802 624.895V581.433L714.323 603.164ZM721.71 603.164L744.863 588.576V617.752L721.71 603.164Z" fill="#A85C56" fill-opacity="0.1"/>
<path d="M800.521 603.163L835 624.894V581.432L800.521 603.163Z" fill="#A85C56" fill-opacity="0.1"/>
<path d="M791.901 689.33V667.599L757.422 689.33H791.901ZM757.422 516.998L791.901 538.729V516.998H757.422Z" fill="#A85C56" fill-opacity="0.1"/>
<path d="M705.703 689.33V667.599L671.224 689.33H705.703ZM671.224 516.998L705.703 538.729V516.998H671.224Z" fill="#A85C56" fill-opacity="0.1"/>
<path d="M714.323 775.496L748.802 797.227V753.765L714.323 775.496ZM721.71 775.496L744.863 760.908V790.084L721.71 775.496Z" fill="#A85C56" fill-opacity="0.1"/>
<path d="M800.521 775.496L835 797.227V753.765L800.521 775.496Z" fill="#A85C56" fill-opacity="0.1"/>
<path d="M791.901 861.663V839.932L757.422 861.663H791.901ZM757.422 689.33L791.901 711.061V689.33H757.422Z" fill="#A85C56" fill-opacity="0.1"/>
<path d="M705.703 861.663V839.932L671.224 861.663H705.703ZM671.224 689.33L705.703 711.061V689.33H671.224Z" fill="#A85C56" fill-opacity="0.1"/>
</svg>
