<svg width="1716" height="2622" viewBox="0 0 1716 2622" fill="none" xmlns="http://www.w3.org/2000/svg">
<path d="M45.8687 1144.87C45.8687 1066.72 109.219 1003.37 187.369 1003.37C315.949 1003.37 453.869 1332.66 334.749 1383.72C278.069 1408.02 172.709 1343.36 145.369 1326.59C103.459 1300.87 45.8687 1223.02 45.8687 1144.87Z" fill="#F5B7BA"/>
<path fill-rule="evenodd" clip-rule="evenodd" d="M271.462 1359.99C276.61 1361.99 279.16 1367.79 277.159 1372.93L254.709 1430.67C252.707 1435.82 246.912 1438.37 241.765 1436.37C236.617 1434.37 234.067 1428.57 236.068 1423.43L258.518 1365.69C260.519 1360.54 266.315 1357.99 271.462 1359.99Z" fill="#E3E3E3"/>
<path d="M222.699 1336.73C225.46 1336.73 227.699 1334.49 227.699 1331.73C227.699 1328.97 225.46 1326.73 222.699 1326.73C219.937 1326.73 217.699 1328.97 217.699 1331.73C217.699 1334.49 219.937 1336.73 222.699 1336.73Z" fill="#E3E3E3"/>
<path fill-rule="evenodd" clip-rule="evenodd" d="M222.699 1336.73C225.46 1336.73 227.699 1334.49 227.699 1331.73C227.699 1328.97 225.46 1326.73 222.699 1326.73C219.937 1326.73 217.699 1328.97 217.699 1331.73C217.699 1334.49 219.937 1336.73 222.699 1336.73ZM207.699 1331.73C207.699 1323.45 214.414 1316.73 222.699 1316.73C230.983 1316.73 237.699 1323.45 237.699 1331.73C237.699 1340.01 230.983 1346.73 222.699 1346.73C214.414 1346.73 207.699 1340.01 207.699 1331.73Z" fill="#E3E3E3"/>
<path d="M1560.27 1149.82C1560.27 1071.67 1496.92 1008.32 1418.77 1008.32C1290.19 1008.32 1152.27 1337.61 1271.39 1388.67C1328.07 1412.97 1433.43 1348.31 1460.77 1331.54C1502.69 1305.82 1560.27 1227.97 1560.27 1149.82Z" fill="#F5B7BA"/>
<path fill-rule="evenodd" clip-rule="evenodd" d="M1339.08 1359.82C1344.32 1358.08 1349.98 1360.93 1351.71 1366.17L1366.17 1409.91C1367.91 1415.16 1365.06 1420.81 1359.82 1422.54C1354.57 1424.28 1348.92 1421.43 1347.18 1416.19L1332.72 1372.45C1330.99 1367.21 1333.84 1361.55 1339.08 1359.82Z" fill="#E3E3E3"/>
<path fill-rule="evenodd" clip-rule="evenodd" d="M1383.86 1336.61C1388.5 1333.61 1394.69 1334.92 1397.7 1339.56L1422.78 1378.2C1425.78 1382.83 1424.47 1389.02 1419.83 1392.03C1415.2 1395.04 1409.01 1393.72 1406 1389.08L1380.92 1350.44C1377.91 1345.81 1379.23 1339.62 1383.86 1336.61Z" fill="#E3E3E3"/>
<path d="M1471.87 816.72H1471.56C1471.76 810.11 1471.87 803.49 1471.87 796.83C1471.87 433.7 1177.5 139.33 814.369 139.33C451.239 139.33 156.869 433.7 156.869 796.83C156.869 803.48 156.979 810.11 157.179 816.72H156.869C156.869 816.72 135.469 993.45 316.869 1393.58C382.419 1538.18 686.679 1622.72 826.329 1622.72C973.809 1622.72 1202.33 1552.62 1283.87 1404.72C1372.97 1243.12 1420.15 1092.1 1444.96 983.59C1459.94 932.92 1468.98 879.7 1471.27 824.73C1471.72 819.47 1471.87 816.72 1471.87 816.72Z" fill="#F4D8D3"/>
<path opacity="0.2" d="M1205.17 1392.5C1291.33 1392.5 1361.17 1322.66 1361.17 1236.5C1361.17 1150.34 1291.33 1080.5 1205.17 1080.5C1119.01 1080.5 1049.17 1150.34 1049.17 1236.5C1049.17 1322.66 1119.01 1392.5 1205.17 1392.5Z" fill="#F5B7BA"/>
<path opacity="0.4" d="M1205.17 1329.18C1256.35 1329.18 1297.85 1287.69 1297.85 1236.5C1297.85 1185.31 1256.35 1143.82 1205.17 1143.82C1153.98 1143.82 1112.49 1185.31 1112.49 1236.5C1112.49 1287.69 1153.98 1329.18 1205.17 1329.18Z" fill="#F5B7BA"/>
<path opacity="0.2" d="M402.789 1392.5C488.945 1392.5 558.789 1322.66 558.789 1236.5C558.789 1150.34 488.945 1080.5 402.789 1080.5C316.632 1080.5 246.789 1150.34 246.789 1236.5C246.789 1322.66 316.632 1392.5 402.789 1392.5Z" fill="#F5B7BA"/>
<path opacity="0.4" d="M402.788 1329.18C453.974 1329.18 495.468 1287.69 495.468 1236.5C495.468 1185.31 453.974 1143.82 402.788 1143.82C351.603 1143.82 310.108 1185.31 310.108 1236.5C310.108 1287.69 351.603 1329.18 402.788 1329.18Z" fill="#F5B7BA"/>
</svg>
