<svg width="1716" height="2622" viewBox="0 0 1716 2622" fill="none" xmlns="http://www.w3.org/2000/svg">
<path d="M45.79 1144.87C45.79 1066.72 109.14 1003.37 187.29 1003.37C315.87 1003.37 453.79 1332.66 334.67 1383.72C277.99 1408.02 172.63 1343.36 145.29 1326.59C103.38 1300.87 45.79 1223.02 45.79 1144.87Z" fill="#F5B7BA"/>
<path d="M1560.19 1149.82C1560.19 1071.67 1496.84 1008.32 1418.69 1008.32C1290.11 1008.32 1152.19 1337.61 1271.31 1388.67C1327.99 1412.97 1433.35 1348.31 1460.69 1331.54C1502.61 1305.82 1560.19 1227.97 1560.19 1149.82Z" fill="#F5B7BA"/>
<path d="M1471.79 816.72H1471.48C1471.68 810.11 1471.79 803.49 1471.79 796.83C1471.79 433.7 1177.42 139.33 814.29 139.33C451.16 139.33 156.79 433.7 156.79 796.83C156.79 803.48 156.9 810.11 157.1 816.72H156.79C156.79 816.72 135.39 993.45 316.79 1393.58C382.34 1538.18 686.6 1622.72 826.25 1622.72C973.73 1622.72 1202.25 1552.62 1283.79 1404.72C1372.89 1243.12 1420.07 1092.1 1444.88 983.59C1459.86 932.92 1468.9 879.7 1471.19 824.73C1471.64 819.47 1471.79 816.72 1471.79 816.72Z" fill="#F4D8D3"/>
<path opacity="0.2" d="M1205.09 1392.5C1291.25 1392.5 1361.09 1322.66 1361.09 1236.5C1361.09 1150.34 1291.25 1080.5 1205.09 1080.5C1118.93 1080.5 1049.09 1150.34 1049.09 1236.5C1049.09 1322.66 1118.93 1392.5 1205.09 1392.5Z" fill="#F5B7BA"/>
<path opacity="0.4" d="M1205.09 1329.18C1256.28 1329.18 1297.77 1287.69 1297.77 1236.5C1297.77 1185.31 1256.28 1143.82 1205.09 1143.82C1153.9 1143.82 1112.41 1185.31 1112.41 1236.5C1112.41 1287.69 1153.9 1329.18 1205.09 1329.18Z" fill="#F5B7BA"/>
<path opacity="0.2" d="M402.71 1392.5C488.866 1392.5 558.71 1322.66 558.71 1236.5C558.71 1150.34 488.866 1080.5 402.71 1080.5C316.554 1080.5 246.71 1150.34 246.71 1236.5C246.71 1322.66 316.554 1392.5 402.71 1392.5Z" fill="#F5B7BA"/>
<path opacity="0.4" d="M402.71 1329.18C453.896 1329.18 495.39 1287.69 495.39 1236.5C495.39 1185.31 453.896 1143.82 402.71 1143.82C351.524 1143.82 310.03 1185.31 310.03 1236.5C310.03 1287.69 351.524 1329.18 402.71 1329.18Z" fill="#F5B7BA"/>
</svg>
