<svg width="1716" height="2622" viewBox="0 0 1716 2622" fill="none" xmlns="http://www.w3.org/2000/svg">
<path d="M1123.19 1185.91C1162.29 1185.6 1190.77 1175.5 1207.86 1155.91C1228.83 1131.87 1229.4 1097.12 1226.19 1072.2C1221.85 1038.58 1208.7 1011.24 1188.16 993.133C1170.49 977.552 1147.43 968.968 1123.25 968.968C1098.51 968.968 1075.28 977.188 1057.84 992.103C1037.45 1009.54 1024.98 1035.07 1020.79 1067.98C1014.72 1115.66 1028.19 1142.41 1040.56 1156.46C1057.77 1175.99 1085.57 1185.9 1123.19 1185.91Z" fill="#3D3334"/>
<path d="M1123.25 984.104C1108.31 984.104 1086.53 987.487 1067.67 1003.6C1050.23 1018.52 1039.51 1040.81 1035.82 1069.89C1033.72 1086.3 1034.06 1101.25 1036.8 1114.35C1039.52 1127.33 1044.61 1138.13 1051.93 1146.44C1066.13 1162.56 1090.09 1170.75 1123.14 1170.77C1157.68 1170.47 1182.35 1162.13 1196.46 1145.96C1213.73 1126.16 1214 1095.97 1211.18 1074.14C1202.61 1007.75 1160.14 984.104 1123.25 984.104ZM1123.25 953.81C1176.18 953.81 1230.8 989.517 1241.21 1070.25C1249.95 1137.97 1224.29 1200.26 1123.25 1201.05C1021.93 1201.05 997.141 1133.78 1005.76 1066.05C1015.73 987.78 1069.24 953.81 1123.25 953.81Z" fill="#3D3334"/>
<path d="M1122.78 1186.24C1075.99 1186.24 1038.06 1160.86 1038.06 1129.55C1038.06 1098.24 1075.99 1072.86 1122.78 1072.86C1169.57 1072.86 1207.5 1098.24 1207.5 1129.55C1207.5 1160.86 1169.57 1186.24 1122.78 1186.24Z" fill="#665B5C"/>
<path fill-rule="evenodd" clip-rule="evenodd" d="M1272.27 1077.48C1272.27 1064.65 1261.87 1054.26 1249.04 1054.26H1207.64C1194.82 1054.26 1184.42 1064.65 1184.42 1077.48C1184.42 1090.31 1194.82 1100.71 1207.64 1100.71H1249.04C1261.87 1100.71 1272.27 1090.31 1272.27 1077.48Z" fill="white"/>
<path fill-rule="evenodd" clip-rule="evenodd" d="M1180.51 1138.08C1174.79 1143.79 1174.79 1153.06 1180.51 1158.78L1183.14 1161.41C1188.85 1167.13 1198.12 1167.13 1203.84 1161.41C1209.56 1155.69 1209.56 1146.42 1203.84 1140.7L1201.22 1138.08C1195.5 1132.36 1186.23 1132.36 1180.51 1138.08Z" fill="white"/>
</svg>
