<svg width="545" height="334" viewBox="0 0 545 334" fill="none" xmlns="http://www.w3.org/2000/svg">
<path d="M284.656 80.3236C284.656 80.3236 361.631 178.116 392.536 272.08C390.828 271.416 388.811 271.127 386.794 270.842C366.78 233.322 357.265 214.146 332.925 179.049C308.585 143.952 262.601 87.7068 230.15 70.9671C172.849 124.286 157.284 209.839 163.907 285.075C161.396 284.565 158.885 284.055 155.053 282.271C140.319 213.541 155.207 138.974 195.168 82.5579C164.251 107.013 141.857 140.923 125.873 176.957C109.888 212.991 92.3972 248.187 82.6729 286.72C78.9715 288.227 75.1949 290.394 69.8167 293.13C78.319 253.715 88.4664 221.667 105.333 186.448C86.6117 223.74 67.4914 264.99 48.6203 302.811C35.5307 312.86 18.9848 320.927 6.92733 333.85C-11.2359 276.228 5.05289 165.248 70.8567 94.8764C107.349 55.8528 157.481 29.8398 211.421 24.8649C250.243 3.3719 298.493 -7.79973 342.349 6.21917C407.287 26.9766 566.513 123.393 541.473 333.85C536.043 323.252 491.649 306.465 490.056 301.981C474.7 258.726 435.827 177.879 407.884 145.42C435.51 188.37 454.211 244.517 475.246 293.288C465.747 288.314 446.749 280.005 438.54 277.336C354.711 124.714 284.656 80.3236 284.656 80.3236Z" fill="#383332"/>
</svg>
