<svg width="523" height="322" viewBox="0 0 523 322" fill="none" xmlns="http://www.w3.org/2000/svg">
<path d="M179.818 28.2704C131.628 35.1993 70.042 90.646 56.3025 109.53C13.1228 168.88 -6.59058 229.594 1.95508 321.396C17.7141 319.205 37.301 314.301 52.7039 310.362C56.8364 304.569 61.5186 299.614 67.1499 296.213C67.1301 299.574 66.9482 303.517 66.7625 307.46C81.7739 302.532 97.2561 298.827 112.959 297.028C121.729 240.049 141.831 184.119 171.447 133.646C164.065 156.284 160.114 180.354 159.88 204.638C159.54 240.063 167.117 275.187 181.792 306.211L195.456 306.183C181.441 276.555 169.83 238.615 170.158 204.737C170.373 182.588 173.816 160.633 180.25 139.884C180.38 154.165 181.815 168.446 184.49 182.453C193.13 227.709 214.319 270.113 244.112 306.211C253.161 305.804 262.221 305.616 271.387 305.426L271.393 305.425C278.701 305.274 286.076 305.121 293.568 304.854C287.699 298.305 283.935 289.902 282.95 281.135C287.45 290.883 305.574 303.019 305.574 303.019C305.574 303.019 383.843 303.019 383.866 303.458C391.724 268.124 386.919 230.671 373.96 196.871C372.074 191.953 370.023 187.107 367.819 182.334C394.57 220.414 414.09 260.007 427.912 304.09C440.658 305.051 453.404 306.012 466.394 306.044C466.161 301.923 465.097 297.854 463.78 294.196L463.827 294.252C467.564 298.674 471.302 303.098 476.217 306.95C484.332 306.95 492.229 307.362 499.729 307.754C506.712 308.119 513.352 308.465 519.504 308.444C556.408 12.9559 248.103 -43.2977 180.242 27.5561C180.06 27.7465 179.92 27.9861 179.818 28.2704Z" fill="#373134"/>
</svg>
