<svg width="664" height="388" viewBox="0 0 664 388" fill="none" xmlns="http://www.w3.org/2000/svg">
<path d="M369.996 43.5007C345.514 41.3376 320.778 40.2303 296.422 43.5007C272.066 46.7711 247.959 54.6209 228.059 69.0432C219.082 75.5524 210.96 83.4378 205.253 92.9445C199.547 102.451 196.363 113.666 197.463 124.7C214.622 116.015 233.066 109.724 251.98 105.567C248.734 104.607 245.483 103.642 242.236 102.681C249.718 101.581 257.204 100.478 265.485 99.1611C276.566 90.9119 290.189 86.1229 303.999 85.6325C301.57 86.289 299.407 87.8708 298.739 90.5797C321.181 85.7512 344.347 84.2959 367.216 86.285C364.994 87.5189 362.775 88.7487 361.316 90.6232C389.939 89.5317 418.689 91.7265 450.203 97.6346C450.131 82.0141 439.731 67.8449 426.598 59.398C413.453 50.9471 398.006 45.9723 369.996 43.5007Z" fill="black"/>
<path d="M267.171 96.0816C266.59 97.1502 266.027 98.1773 265.483 99.1573L265.481 99.161C251.145 91.4364 240.326 87.1726 231.563 85.1965C230.189 86.7811 229.427 89.0648 228.91 91.1688C221.906 119.626 227.446 149.506 233.398 178.201L233.769 179.99C239.609 208.122 245.612 237.038 240.319 265.24C237.602 279.722 231.579 294.101 220.554 303.88C205.471 317.263 183.974 319.9 164.154 321.13C169.536 318.406 174.471 314.803 178.576 309.369C163.505 318.583 146.85 325.148 129.643 328.801C119.316 345.338 104.35 359.94 83.2988 368.23C63.091 376.186 40.0755 376.776 19.4881 369.859C29.8174 366.747 38.4383 358.454 41.9579 348.255C32.0042 359.407 13.7975 362.223 0 355.144C12.4845 357.908 24.4827 349.469 31.0156 338.697C37.5485 327.929 39.7354 315.16 41.7957 302.73C43.1367 294.653 44.2575 286.529 45.3782 278.406C47.6153 262.19 49.8524 245.975 53.8413 230.125C71.3007 160.742 112.337 51.0506 176.508 38.3169C195.527 34.543 219.367 36.1383 236.127 44.1721C266.661 15.4467 322.4 -0.102311 365.512 0.000506647C408.624 0.103325 451.512 16.3921 483.82 44.9401C519.301 67.2557 545.796 101.13 564.679 138.382C583.562 175.634 595.098 216.251 602.631 257.331C603.673 263.017 604.642 268.721 605.611 274.426L605.613 274.435L605.613 274.436L605.617 274.462C605.906 276.163 606.195 277.865 606.486 279.566C618.053 286.512 625.484 298.571 632.617 310.146L632.651 310.201C632.923 310.642 633.194 311.082 633.465 311.52C641.053 323.815 649.833 336.545 663.211 342.002C644.589 342.413 625 332.131 613.708 315.681C614.666 319.512 615.708 323.322 616.856 327.106C623.752 349.833 634.884 371.927 652.727 387.606C624.943 381.505 597.027 365.583 578.117 342.192C577.393 354.38 581.68 366.794 589.771 375.937C567.952 366.893 550.143 353.431 536.011 337.316C507.77 335.227 479.791 321.498 461.77 299.116C466.911 315.234 480.487 328.399 496.76 333.038C458.665 342.544 419.709 321.008 396.654 290.064C373.599 259.119 363.894 220.297 358.314 182.116C356.62 170.519 355.253 158.858 353.889 147.198C352.458 157.295 350.345 166.811 348.287 176.079C346.324 184.921 344.411 193.538 343.188 202.217C339.115 231.113 343.169 261.863 358.738 286.544C374.307 311.224 402.408 328.747 431.565 327.553C410.772 338.712 381.607 329.399 363.127 310.647C344.648 291.894 335.797 265.312 333.836 239.057C331.874 212.803 336.201 186.525 340.851 160.611C341.109 159.173 341.368 157.735 341.628 156.296C344.495 140.383 347.373 124.406 348.889 108.348C346.81 94.6988 344.23 81.1516 340.614 67.8135C338.732 60.8693 335.714 53.0669 328.897 50.7535C324.357 49.2152 319.374 50.6309 314.905 52.3749C294.344 60.3966 278.084 76.8567 267.171 96.0816Z" fill="#383332"/>
</svg>
