<svg width="599" height="769" viewBox="0 0 599 769" fill="none" xmlns="http://www.w3.org/2000/svg">
<path d="M234.387 665.022C259.961 653.68 251.787 543.68 251.787 543.68C251.787 507.445 280.599 484.101 315.653 484.101C350.706 484.101 379.123 512.519 379.123 547.572C379.123 547.572 368.185 663.99 404.828 687.168C474.266 731.091 410.147 768.434 299.427 768.434C160.132 768.43 134.858 709.163 234.387 665.022Z" fill="#F4D8D3"/>
<mask id="mask0_254_1432" style="mask-type:luminance" maskUnits="userSpaceOnUse" x="185" y="482" width="220" height="167">
<path d="M326.49 632.148C384.167 604.942 416.799 552.944 399.376 516.006C381.953 479.069 321.072 471.181 263.395 498.387C205.718 525.593 173.086 577.591 190.509 614.528C207.932 651.465 268.812 659.354 326.49 632.148Z" fill="white"/>
</mask>
<g mask="url(#mask0_254_1432)">
<path d="M234.387 665.022C259.961 653.68 251.787 543.68 251.787 543.68C251.787 507.445 280.599 484.101 315.653 484.101C350.706 484.101 379.123 512.519 379.123 547.572C379.123 547.572 368.185 663.99 404.828 687.168C474.266 731.091 410.147 768.434 299.427 768.434C160.132 768.43 134.858 709.163 234.387 665.022Z" fill="#F5B7BA"/>
</g>
<path d="M0 397.647C0 366.743 25.0521 341.69 55.957 341.69C106.805 341.69 161.346 471.91 114.239 492.102C91.8248 501.712 50.1596 476.141 39.3478 469.51C22.7743 459.338 0 428.552 0 397.647Z" fill="#F5B7BA"/>
<path d="M78.9015 513.195C78.423 513.195 77.9405 513.108 77.4699 512.926C75.4333 512.135 74.4249 509.842 75.2159 507.809L84.0938 484.975C84.8847 482.939 87.1784 481.93 89.211 482.721C91.2476 483.512 92.256 485.806 91.4651 487.838L82.5871 510.672C81.9781 512.234 80.4833 513.195 78.9015 513.195Z" fill="#E3E3E3"/>
<path d="M69.9284 477.474C66.658 477.474 63.9966 474.812 63.9966 471.542C63.9966 468.271 66.658 465.61 69.9284 465.61C73.1988 465.61 75.8603 468.271 75.8603 471.542C75.8603 474.812 73.1988 477.474 69.9284 477.474Z" fill="#E3E3E3"/>
<path d="M598.878 399.604C598.878 368.699 573.826 343.647 542.921 343.647C492.074 343.647 437.532 473.867 484.639 494.059C507.053 503.668 548.719 478.098 559.53 471.466C576.108 461.295 598.878 430.509 598.878 399.604Z" fill="#F5B7BA"/>
<path d="M518.367 507.658C516.706 507.658 515.164 506.606 514.614 504.941L508.9 487.644C508.216 485.572 509.339 483.333 511.415 482.649C513.487 481.965 515.726 483.088 516.41 485.164L522.124 502.462C522.808 504.534 521.685 506.772 519.609 507.456C519.194 507.591 518.779 507.658 518.367 507.658Z" fill="#E3E3E3"/>
<path d="M541.193 496.024C539.9 496.024 538.631 495.387 537.871 494.22L527.953 478.94C526.763 477.109 527.285 474.657 529.116 473.471C530.947 472.28 533.399 472.802 534.585 474.633L544.503 489.914C545.693 491.745 545.171 494.197 543.34 495.383C542.68 495.818 541.933 496.024 541.193 496.024Z" fill="#E3E3E3"/>
<path d="M563.92 267.878H563.797C563.877 265.264 563.92 262.646 563.92 260.012C563.92 116.41 447.51 0 303.908 0C160.306 0 43.8958 116.41 43.8958 260.012C43.8958 262.642 43.9393 265.264 44.0184 267.878H43.8958C43.8958 267.878 35.4331 337.767 107.169 496C133.091 553.183 253.412 586.615 308.638 586.615C366.959 586.615 457.329 558.894 489.574 500.406C524.809 436.5 543.467 376.778 553.278 333.867C559.202 313.83 562.777 292.784 563.683 271.045C563.861 268.965 563.92 267.878 563.92 267.878Z" fill="#F4D8D3"/>
<path opacity="0.2" d="M458.452 495.574C492.523 495.574 520.143 467.954 520.143 433.882C520.143 399.811 492.523 372.191 458.452 372.191C424.381 372.191 396.761 399.811 396.761 433.882C396.761 467.954 424.381 495.574 458.452 495.574Z" fill="#F5B7BA"/>
<path opacity="0.4" d="M458.452 470.534C478.694 470.534 495.103 454.124 495.103 433.883C495.103 413.641 478.694 397.232 458.452 397.232C438.21 397.232 421.801 413.641 421.801 433.883C421.801 454.124 438.21 470.534 458.452 470.534Z" fill="#F5B7BA"/>
<path opacity="0.2" d="M141.146 495.574C175.217 495.574 202.837 467.954 202.837 433.882C202.837 399.811 175.217 372.191 141.146 372.191C107.075 372.191 79.4551 399.811 79.4551 433.882C79.4551 467.954 107.075 495.574 141.146 495.574Z" fill="#F5B7BA"/>
<path opacity="0.4" d="M141.146 470.534C161.388 470.534 177.797 454.124 177.797 433.883C177.797 413.641 161.388 397.232 141.146 397.232C120.904 397.232 104.495 413.641 104.495 433.883C104.495 454.124 120.904 470.534 141.146 470.534Z" fill="#F5B7BA"/>
</svg>
