<svg width="150" height="198" viewBox="0 0 150 198" fill="none" xmlns="http://www.w3.org/2000/svg">
<path d="M4.13703 138.187C1.30556 145.728 3.61898 154.515 8.50681 160.918C13.3986 167.32 20.5287 171.65 27.8881 174.929C49.6698 184.629 74.3937 186.179 98.0577 183.229C109.364 181.821 120.789 179.326 130.525 173.414C140.261 167.502 148.154 157.683 149.4 146.357C150.44 136.906 146.845 127.509 142.017 119.324C132.035 102.406 116.257 88.826 97.7572 82.2179C79.2578 75.6099 58.1444 76.1951 40.3608 84.5314C22.5732 92.8715 14.494 110.596 4.13703 138.187Z" fill="#F4D8D3"/>
<path d="M6.65596 178.733C2.40481 175.941 2.07262 173.576 3.38949 171.587C4.41767 170.033 6.59266 170.685 7.05535 170.745C5.48934 168.886 3.66631 167.13 2.35735 165.038C1.23821 163.247 0.332615 161.127 0.0281141 159.043C-0.343614 156.524 3.0652 155.429 4.68261 154.986C5.63566 154.725 27.0377 166.284 44.1412 169.226C68.438 173.41 92.9009 175.727 117.427 170.737C123.6 169.479 129.548 167 135.559 164.951C138.022 164.113 142.076 161.728 142.665 161.946C146.446 163.358 146.078 169.384 142.285 172.346C125.664 185.333 66.7336 218.215 6.65596 178.733Z" fill="#373134"/>
<path d="M120.686 101.575C117.795 99.1711 115.141 96.9882 112.274 94.6234C114.089 92.1834 116.185 91.8394 118.364 92.919C126.934 97.1701 133.004 103.731 136.496 112.601C133.253 115.215 132.624 115.171 130.453 112.66C127.302 109.018 124.106 105.411 120.686 101.575Z" fill="#F5B7BA"/>
<path opacity="0.749" d="M68.4855 5.13563C49.7527 10.9963 23.0793 26.3518 18.3496 37.3297C18.6383 37.3811 18.9586 37.5472 19.2077 37.472C33.3809 33.383 47.9139 31.0894 62.4232 28.598C81.2627 25.3632 100.015 21.638 118.791 18.0472C120.923 17.6399 122.96 16.7185 125.044 16.0304C124.561 12.586 122.39 11.4234 120.286 10.2489C115.782 7.73377 111.127 5.4599 106.766 2.71544C103.804 0.848891 100.806 -0.088354 97.3459 0.00655541C87.7126 0.271511 78.356 2.06294 68.4855 5.13563Z" fill="#373134"/>
</svg>
