<svg width="164" height="235" viewBox="0 0 164 235" fill="none" xmlns="http://www.w3.org/2000/svg">
<path d="M142.837 168.446C152.055 135.647 110.231 106.755 72.4456 106.755C34.6598 106.755 5.49891 134.876 1.26358 167.655C-6.91444 230.932 50.8972 229.742 70.8638 229.742C120.26 229.354 130.471 212.452 142.837 168.446Z" fill="#FAECE9"/>
<path d="M98.5812 234.417C104.45 233.614 109.666 232.107 114.609 229.644C120.818 226.551 124.484 221.299 127.109 215.15C127.398 214.474 127.635 213.612 127.461 212.951C127.256 212.176 126.71 211.298 126.05 210.903C125.646 210.662 124.582 211.061 124.108 211.496C122.767 212.722 121.577 214.11 120.335 215.439C114.633 221.56 107.447 224.953 99.3839 226.579C94.33 227.595 89.2168 228.331 84.1312 229.177C82.5534 229.438 80.4139 229.09 80.6117 231.613C80.7857 233.831 82.4782 234.587 84.5109 234.579C89.0586 234.559 93.6103 234.5 98.5812 234.417Z" fill="#F5B7BA"/>
<path d="M117.931 92.9938C127.074 97.3241 135.169 102.655 142.888 108.622C150.473 114.487 156.512 121.791 162.222 129.914C164.278 126.912 163.238 124.872 162.091 122.898C158.785 117.204 154.605 112.213 149.73 107.796C129.751 89.6958 106.225 79.8093 79.4452 77.6185C70.8678 76.9186 62.4683 78.1603 54.3693 81.1657C50.9763 82.4273 47.5596 83.6492 44.2457 85.1045C42.0983 86.0497 40.5758 87.6987 40.4216 90.6211C49.0148 86.4451 57.9442 84.4441 67.0634 83.3289C78.4249 81.9369 89.5016 84.0407 100.389 86.9631C106.237 88.5331 111.88 90.8702 117.931 92.9938Z" fill="#F5B7BA"/>
<path opacity="0.749" d="M86.7967 5.13563C105.529 10.9963 132.203 26.3518 136.933 37.3297C136.644 37.3811 136.324 37.5472 136.074 37.472C121.901 33.383 107.368 31.0894 92.8591 28.598C74.0196 25.3632 55.2671 21.638 36.4908 18.0472C34.3593 17.6399 32.3227 16.7185 30.2386 16.0304C30.7211 12.586 32.8922 11.4234 34.996 10.2489C39.5002 7.73377 44.1548 5.4599 48.5166 2.71544C51.4786 0.848891 54.4761 -0.088354 57.9364 0.00655541C67.5657 0.267556 76.9262 2.05898 86.7967 5.13563Z" fill="#373134"/>
</svg>
