<svg width="161" height="235" viewBox="0 0 161 235" fill="none" xmlns="http://www.w3.org/2000/svg">
<path d="M17.7911 168.447C14.1885 157.03 51.9782 122.178 89.764 122.178C124.572 122.178 155.129 134.876 159.364 167.656C167.542 230.932 109.731 229.742 89.764 229.742C40.3677 229.355 31.549 212.038 17.7911 168.447Z" fill="#FAECE9"/>
<path d="M62.0466 234.417C56.1781 233.614 50.962 232.107 46.0188 229.644C39.8102 226.551 36.1443 221.299 33.5184 215.15C33.2298 214.474 32.9925 213.612 33.1665 212.951C33.3721 212.176 33.9179 211.298 34.5783 210.903C34.9817 210.662 36.0454 211.061 36.52 211.496C37.8606 212.722 39.0509 214.11 40.2926 215.439C45.9951 221.56 53.1805 224.953 61.2439 226.579C66.2978 227.595 71.411 228.331 76.4966 229.177C78.0745 229.438 80.2139 229.09 80.0162 231.613C79.8422 233.831 78.1496 234.587 76.1169 234.579C71.5692 234.559 67.0175 234.5 62.0466 234.417Z" fill="#F5B7BA"/>
<path d="M45.4651 108.738C36.3221 113.068 28.2271 118.399 20.5079 124.366C12.923 130.231 6.8844 137.535 1.17402 145.658C-0.882353 142.656 0.157702 140.616 1.30452 138.642C4.61053 132.948 8.7905 127.957 13.6665 123.54C33.6449 105.44 57.1705 95.5535 83.9508 93.3627C92.5282 92.6627 100.928 93.9044 109.027 96.9099C112.42 98.1714 115.836 99.3933 119.15 100.849C121.298 101.794 122.82 103.443 122.974 106.365C114.381 102.189 105.452 100.188 96.3326 99.073C84.9711 97.681 73.8944 99.7849 63.0075 102.707C57.1587 104.277 51.5155 106.614 45.4651 108.738Z" fill="#F5B7BA"/>
<path opacity="0.749" d="M73.8311 5.13563C55.0984 10.9963 28.4249 26.3518 23.6953 37.3297C23.9839 37.3811 24.3042 37.5472 24.5534 37.472C38.7265 33.383 53.2595 31.0894 67.7688 28.598C86.6083 25.3632 105.361 21.638 124.137 18.0472C126.269 17.6399 128.305 16.7185 130.389 16.0304C129.907 12.586 127.736 11.4234 125.632 10.2489C121.128 7.73377 116.473 5.4599 112.111 2.71544C109.149 0.848891 106.152 -0.088354 102.691 0.00655541C93.0621 0.267556 83.7017 2.05898 73.8311 5.13563Z" fill="#373134"/>
</svg>
