<svg width="163" height="235" viewBox="0 0 163 235" fill="none" xmlns="http://www.w3.org/2000/svg">
<path d="M20.5593 168.446C11.3412 135.647 53.1646 106.755 90.9504 106.755C128.736 106.755 157.897 134.876 162.132 167.655C170.31 230.932 112.499 229.742 92.5322 229.742C43.1358 229.354 32.9252 212.452 20.5593 168.446Z" fill="#FAECE9"/>
<path d="M64.8148 234.417C58.9463 233.614 53.7302 232.107 48.787 229.644C42.5784 226.551 38.9125 221.299 36.2867 215.15C35.998 214.474 35.7607 213.612 35.9347 212.951C36.1404 212.176 36.6861 211.298 37.3465 210.903C37.7499 210.662 38.8136 211.061 39.2882 211.496C40.6288 212.722 41.8191 214.11 43.0608 215.439C48.7633 221.56 55.9487 224.953 64.0121 226.579C69.066 227.595 74.1792 228.331 79.2648 229.177C80.8427 229.438 82.9821 229.09 82.7844 231.613C82.6104 233.831 80.9178 234.587 78.8851 234.579C74.3374 234.559 69.7857 234.5 64.8148 234.417Z" fill="#F5B7BA"/>
<path d="M45.4651 92.9938C36.3221 97.3241 28.2271 102.655 20.5079 108.622C12.923 114.487 6.8844 121.791 1.17402 129.914C-0.882353 126.912 0.157702 124.872 1.30452 122.898C4.61053 117.204 8.7905 112.213 13.6665 107.796C33.6449 89.6958 57.1705 79.8093 83.9508 77.6185C92.5282 76.9186 100.928 78.1603 109.027 81.1657C112.42 82.4273 115.836 83.6492 119.15 85.1045C121.298 86.0497 122.82 87.6987 122.974 90.6211C114.381 86.4451 105.452 84.4441 96.3326 83.3289C84.9711 81.9369 73.8944 84.0407 63.0075 86.9631C57.1587 88.5331 51.5155 90.8702 45.4651 92.9938Z" fill="#F5B7BA"/>
<path opacity="0.749" d="M76.5993 5.13563C57.8666 10.9963 31.1931 26.3518 26.4634 37.3297C26.7521 37.3811 27.0724 37.5472 27.3216 37.472C41.4947 33.383 56.0277 31.0894 70.537 28.598C89.3765 25.3632 108.129 21.638 126.905 18.0472C129.037 17.6399 131.073 16.7185 133.157 16.0304C132.675 12.586 130.504 11.4234 128.4 10.2489C123.896 7.73377 119.241 5.4599 114.879 2.71544C111.917 0.848891 108.92 -0.088354 105.46 0.00655541C95.8303 0.267556 86.4699 2.05898 76.5993 5.13563Z" fill="#373134"/>
</svg>
