<svg width="151" height="198" viewBox="0 0 151 198" fill="none" xmlns="http://www.w3.org/2000/svg">
<path d="M146.259 138.187C149.091 145.728 146.777 154.515 141.889 160.918C136.998 167.32 129.868 171.65 122.508 174.929C100.726 184.629 76.0026 186.179 52.3385 183.229C41.0324 181.821 29.6077 179.326 19.8716 173.414C10.1355 167.502 2.24213 157.683 0.996441 146.357C-0.0436074 136.906 3.5511 127.509 8.37962 119.324C18.3609 102.406 34.1396 88.826 52.639 82.2179C71.1385 75.6099 92.2518 76.1951 110.035 84.5314C127.823 92.8715 135.902 110.596 146.259 138.187Z" fill="#F4D8D3"/>
<path d="M143.74 178.733C147.991 175.941 148.324 173.576 147.007 171.587C145.979 170.033 143.804 170.685 143.341 170.745C144.907 168.886 146.73 167.13 148.039 165.038C149.158 163.247 150.064 161.127 150.368 159.043C150.74 156.524 147.331 155.429 145.714 154.986C144.761 154.725 123.359 166.284 106.255 169.226C81.9583 173.41 57.4954 175.727 32.9692 170.737C26.7962 169.479 20.8485 167 14.8375 164.951C12.3738 164.113 8.32044 161.728 7.73121 161.946C3.95065 163.358 4.31841 169.384 8.11083 172.346C24.7318 185.333 83.6627 218.215 143.74 178.733Z" fill="#373134"/>
<path d="M29.7106 101.575C32.6013 99.1711 35.2549 96.9882 38.1219 94.6234C36.3068 92.1834 34.2109 91.8394 32.0319 92.919C23.4624 97.1701 17.3921 103.731 13.9003 112.601C17.143 115.215 17.7718 115.171 19.9428 112.66C23.0946 109.018 26.2899 105.411 29.7106 101.575Z" fill="#F5B7BA"/>
<path opacity="0.749" d="M81.9108 5.13563C100.644 10.9963 127.317 26.3518 132.047 37.3297C131.758 37.3811 131.438 37.5472 131.188 37.472C117.015 33.383 102.482 31.0894 87.9731 28.598C69.1336 25.3632 50.3811 21.638 31.6048 18.0472C29.4733 17.6399 27.4367 16.7185 25.3527 16.0304C25.8351 12.586 28.0062 11.4234 30.11 10.2489C34.6143 7.73377 39.2688 5.4599 43.6306 2.71544C46.5926 0.848891 49.5901 -0.088354 53.0504 0.00655541C62.6837 0.271511 72.0402 2.06294 81.9108 5.13563Z" fill="#373134"/>
</svg>
