<svg width="161" height="235" viewBox="0 0 161 235" fill="none" xmlns="http://www.w3.org/2000/svg">
<path d="M143.196 168.447C146.798 157.03 109.009 122.178 71.2228 122.178C36.4148 122.178 5.85791 134.876 1.62258 167.656C-6.55545 230.932 51.2562 229.742 71.2228 229.742C120.619 229.355 129.438 212.038 143.196 168.447Z" fill="#FAECE9"/>
<path d="M98.9402 234.417C104.809 233.614 110.025 232.107 114.968 229.644C121.177 226.551 124.843 221.299 127.468 215.15C127.757 214.474 127.994 213.612 127.82 212.951C127.615 212.176 127.069 211.298 126.409 210.903C126.005 210.662 124.941 211.061 124.467 211.496C123.126 212.722 121.936 214.11 120.694 215.439C114.992 221.56 107.806 224.953 99.743 226.579C94.689 227.595 89.5758 228.331 84.4902 229.177C82.9124 229.438 80.7729 229.09 80.9707 231.613C81.1447 233.831 82.8373 234.587 84.8699 234.579C89.4176 234.559 93.9693 234.5 98.9402 234.417Z" fill="#F5B7BA"/>
<path d="M115.522 108.738C124.665 113.068 132.76 118.399 140.479 124.366C148.064 130.231 154.102 137.535 159.813 145.658C161.869 142.656 160.829 140.616 159.682 138.642C156.376 132.948 152.196 127.957 147.32 123.54C127.342 105.44 103.816 95.5535 77.036 93.3627C68.4586 92.6627 60.0591 93.9044 51.9601 96.9099C48.5671 98.1714 45.1504 99.3933 41.8365 100.849C39.6892 101.794 38.1666 103.443 38.0124 106.365C46.6057 102.189 55.5351 100.188 64.6543 99.073C76.0157 97.681 87.0924 99.7849 97.9793 102.707C103.828 104.277 109.471 106.614 115.522 108.738Z" fill="#F5B7BA"/>
<path opacity="0.749" d="M87.1557 5.13563C105.888 10.9963 132.562 26.3518 137.292 37.3297C137.003 37.3811 136.683 37.5472 136.433 37.472C122.26 33.383 107.727 31.0894 93.218 28.598C74.3785 25.3632 55.626 21.638 36.8498 18.0472C34.7183 17.6399 32.6816 16.7185 30.5976 16.0304C31.08 12.586 33.2511 11.4234 35.3549 10.2489C39.8592 7.73377 44.5137 5.4599 48.8756 2.71544C51.8376 0.848891 54.8351 -0.088354 58.2953 0.00655541C67.9247 0.267556 77.2851 2.05898 87.1557 5.13563Z" fill="#373134"/>
</svg>
