<svg width="155" height="69" viewBox="0 0 155 69" fill="none" xmlns="http://www.w3.org/2000/svg">
<path d="M103.519 5.38354C91.3137 1.59526 79.1163 -0.573588 66.7589 0.92366C46.9487 3.32097 28.6932 9.46452 16.2878 26.58C11.8398 32.7158 7.65008 39.0722 3.82388 45.6072C2.18712 48.4022 1.65058 51.8839 0.845782 55.1105C0.316697 57.2269 1.23111 58.9161 3.14408 60.1098C5.58761 61.6381 6.785 61.6021 8.61234 59.3121C10.2217 57.296 11.6621 55.1363 13.0739 52.9734C18.7293 44.3005 26.7458 38.2933 35.7196 33.6391C48.2719 27.1299 61.5998 23.164 75.8975 22.8558C91.0111 22.5326 104.77 26.5129 116.822 35.6751C121.281 39.0657 125.472 42.8871 129.388 46.904C135.36 53.0287 140.559 59.7632 142.572 68.2613C147.09 68.0272 149.457 65.1635 149.379 60.3145C149.358 58.95 149.15 57.5895 149.037 56.2246C148.939 55.0177 148.854 53.8127 148.728 52.1613C149.657 52.3636 150.412 52.7201 151.13 52.6495C153.723 52.3991 155.364 49.8843 154.331 47.3165C153.433 45.087 152.027 43.0565 150.77 40.9844C139.821 22.9441 123.679 11.7726 103.519 5.38354Z" fill="#373134"/>
</svg>
