<svg width="154" height="80" viewBox="0 0 154 80" fill="none" xmlns="http://www.w3.org/2000/svg">
<path d="M110.2 11.269C98.8069 5.47956 87.1488 1.28772 74.7157 0.682671C54.7847 -0.29015 35.7554 2.69162 20.645 17.4738C15.2273 22.7729 10.0271 28.333 5.15507 34.1303C3.07101 36.6099 1.95579 39.9514 0.619153 42.9964C-0.258759 44.9935 0.358191 46.8126 2.04283 48.3114C4.19411 50.2293 5.38047 50.3954 7.56734 48.4458C9.49321 46.7295 11.2767 44.8432 13.0325 42.949C20.0677 35.3523 28.9813 30.7808 38.6106 27.7042C52.0798 23.4016 65.8852 21.7368 80.0306 23.8406C94.9828 26.067 107.875 32.3073 118.212 43.3682C122.036 47.4612 125.524 51.9337 128.707 56.5527C133.563 63.5957 137.554 71.1094 138.107 79.8252C142.6 80.3551 145.415 77.931 146.155 73.1381C146.364 71.7896 146.388 70.4134 146.507 69.0491C146.613 67.8429 146.732 66.6407 146.886 64.9917C147.768 65.3476 148.452 65.8261 149.172 65.8775C151.77 66.0673 153.811 63.8646 153.226 61.1597C152.715 58.8107 151.671 56.5724 150.782 54.3183C143.027 34.6919 128.996 20.9616 110.2 11.269Z" fill="#373134"/>
</svg>
