<svg width="154" height="80" viewBox="0 0 154 80" fill="none" xmlns="http://www.w3.org/2000/svg">
<path d="M43.1265 11.269C54.5196 5.47956 66.1776 1.28772 78.6107 0.682671C98.5417 -0.29015 117.571 2.69162 132.681 17.4738C138.099 22.7729 143.299 28.333 148.171 34.1303C150.255 36.6099 151.371 39.9514 152.707 42.9964C153.585 44.9935 152.968 46.8126 151.284 48.3114C149.132 50.2293 147.946 50.3954 145.759 48.4458C143.833 46.7295 142.05 44.8432 140.294 42.949C133.259 35.3523 124.345 30.7808 114.716 27.7042C101.247 23.4016 87.4412 21.7368 73.2958 23.8406C58.3436 26.067 45.4518 32.3073 35.1145 43.3682C31.2905 47.4612 27.8026 51.9337 24.6192 56.5527C19.763 63.5957 15.7728 71.1094 15.2192 79.8252C10.7268 80.3551 7.91116 77.931 7.17166 73.1381C6.96207 71.7896 6.93833 70.4134 6.8197 69.0491C6.71292 67.8429 6.59428 66.6407 6.44005 64.9917C5.55819 65.3476 4.87406 65.8261 4.15433 65.8775C1.55619 66.0673 -0.484365 63.8646 0.100909 61.1597C0.611047 58.8107 1.65505 56.5724 2.54482 54.3183C10.2997 34.6919 24.3305 20.9616 43.1265 11.269Z" fill="#373134"/>
</svg>
