<svg width="155" height="69" viewBox="0 0 155 69" fill="none" xmlns="http://www.w3.org/2000/svg">
<path d="M52.0671 5.38354C64.2724 1.59526 76.4699 -0.573589 88.8273 0.923659C108.637 3.32097 126.893 9.46452 139.298 26.58C143.746 32.7158 147.936 39.0722 151.762 45.6072C153.399 48.4022 153.936 51.8839 154.74 55.1105C155.269 57.2269 154.355 58.9161 152.442 60.1098C149.999 61.6381 148.801 61.6021 146.974 59.3121C145.364 57.296 143.924 55.1363 142.512 52.9734C136.857 44.3005 128.84 38.2933 119.867 33.6391C107.314 27.1299 93.9864 23.164 79.6887 22.8558C64.5751 22.5326 50.8165 26.5129 38.7643 35.6751C34.3057 39.0657 30.1144 42.8871 26.1986 46.904C20.2258 53.0287 15.0274 59.7632 13.014 68.2613C8.49649 68.0272 6.12928 65.1635 6.20743 60.3145C6.22791 58.95 6.43626 57.5895 6.54906 56.2246C6.64691 55.0177 6.7324 53.8127 6.85807 52.1613C5.92886 52.3636 5.17393 52.7201 4.45582 52.6495C1.86281 52.3991 0.222322 49.8843 1.25473 47.3165C2.15314 45.087 3.55914 43.0565 4.81578 40.9844C15.7649 22.9441 31.9074 11.7726 52.0671 5.38354Z" fill="#373134"/>
</svg>
