<svg width="583" height="689" viewBox="0 0 583 689" fill="none" xmlns="http://www.w3.org/2000/svg">
<path d="M544.294 688.081C530.92 680.362 523.197 673.841 518.19 662.353C529.58 682.643 557.056 686.914 582.076 687.326C554.268 671.424 532.047 648.179 524.984 613.585C517.922 578.991 521.5 543.127 527.179 508.279C532.862 473.424 575.832 401.02 575.832 296.196C575.832 216.658 557.111 57.4358 379.405 7.52141C330.025 -6.34722 273.961 -1.97348 232.707 28.5082C165.978 21.8132 102.812 56.8862 66.1094 107.734C29.4072 158.582 5.18153 231.243 1.08857 293.816C-3.13095 358.326 5.28437 424.245 19.9637 487.205C28.1298 522.243 83.3908 618.374 6.94133 681.773C22.9138 678.131 37.3321 668.075 47.4202 656.017C45.8858 665.552 39.5466 674.193 32.2821 679.112C68.1104 695.33 113.09 688.828 141.317 663.365C138.308 669.38 135.298 675.395 132.696 680.745C150.167 682.659 167.888 684.569 185.248 681.825C202.609 679.08 234.894 668.308 243.392 656.472C243.104 663.128 272.703 677.214 290.764 680.037C326.853 680.599 338.859 667.288 340.765 662.4C350.541 673.188 363.923 680.65 380.651 684.803C379.718 680.943 378.788 677.083 378.053 676.205C416.167 686.697 456.191 690.197 499.39 687.104C496.262 682.288 495.001 676.292 495.926 670.626C496.262 671.199 496.595 671.772 496.931 672.346C508.846 682.019 519.634 686.942 544.294 688.081Z" fill="#383332"/>
</svg>
