<svg width="596" height="648" viewBox="0 0 596 648" fill="none" xmlns="http://www.w3.org/2000/svg">
<path d="M572.479 177.855C579.451 195.859 583.645 215.007 586.724 233.896C607.881 363.677 586.096 496.617 555.215 624.436C531.159 631.005 507.823 633.559 484.741 632.065C486.615 629.573 488.394 626.303 489.312 622.803C486.271 626.437 482.569 629.3 478.568 631.661C450.585 635.007 422.152 636.162 393.73 635.936C337.402 639.12 281.152 641.136 224.902 641.168C219.524 639.064 214.719 635.6 210.753 631.349C211.149 634.888 212.193 638.582 213.236 642.275C177.46 642.414 141.581 643.272 105.698 644.13L105.684 644.13C94.1449 640.096 85.1127 630.657 81.3876 619.347C83.3214 629.514 88.3556 639.08 95.5765 646.554C80.3712 647.586 65.3915 647.286 50.4906 646.008C9.37123 552.198 0.635631 447.47 0.675182 344.849C0.686901 313.648 1.48182 282.256 7.56776 251.656C11.2985 232.898 17.1171 214.366 25.6137 197.27C61.5057 96.421 135.891 29.3718 206.932 37.064C313.657 -30.8904 452.925 -2.10107 530.388 96.4396C550.015 121.407 563.98 149.048 572.479 177.855Z" fill="#373134"/>
</svg>
