<svg width="630" height="706" viewBox="0 0 630 706" fill="none" xmlns="http://www.w3.org/2000/svg">
<path d="M598.921 223.251C551.122 146.924 496.64 0 325.396 0C286.333 0 250.524 12.8088 222.649 34.1041C211.675 31.7314 200.187 31.3161 188.379 33.2183C138.531 41.246 87.4108 101.921 43.0485 192.405C8.85744 262.14 -41.2705 307.997 60.0057 428.591C97.7243 499.911 117.995 580.201 118.415 658.802C126.272 650.026 130.606 638.182 133.742 628.605C146.887 663.337 178.46 690.47 215.42 698.529C206.245 690.197 200.626 678.072 199.53 666.616C235.473 695.377 283.624 708.332 330.948 701.412C330.082 694.282 329.22 687.148 328.615 680.097C334.832 688.425 341.048 696.753 349.796 705.268C378.628 698.268 403.669 677.127 411.93 651.035C414.896 668.34 410.716 686.76 400.05 700.265C434.573 685.384 463.726 658.371 478.884 625.37C475.001 640.14 480.751 656.975 492.82 668.909C488.715 593.306 510.41 516.536 553.135 454.905C612.841 372.753 663.673 326.65 598.921 223.251Z" fill="#383332"/>
</svg>
