<svg width="103" height="97" viewBox="0 0 103 97" fill="none" xmlns="http://www.w3.org/2000/svg">
<path d="M46.8427 90.8963C31.5306 90.7737 20.3748 86.8191 13.6837 79.1472C5.47007 69.7314 5.24863 56.1238 6.50618 46.364C8.20269 33.1992 13.3554 22.4903 21.399 15.3998C28.3195 9.29792 37.3478 5.93652 46.8189 5.93652C56.5076 5.93652 65.607 9.15555 72.4365 14.9964C80.4208 21.8259 85.3047 31.8231 86.9458 44.711C89.3225 63.3844 84.0471 73.86 79.2028 79.3608C72.4642 87.0089 61.5773 90.8923 46.8427 90.8963Z" fill="#3D3334"/>
<path d="M46.8191 11.8637C52.6718 11.8637 61.2018 13.1885 68.5849 19.4999C75.4145 25.3408 79.6142 34.0725 81.0616 45.4577C81.8802 51.8838 81.7497 57.7405 80.674 62.8695C79.6102 67.9551 77.6171 72.1825 74.7501 75.4371C69.19 81.7486 59.8058 84.9558 46.8625 84.9637C33.334 84.849 23.673 81.5825 18.1485 75.2473C11.3862 67.4964 11.2795 55.6723 12.3828 47.1225C15.7402 21.1253 32.3731 11.8637 46.8191 11.8637ZM46.8191 0C26.0893 0 4.69908 13.9833 0.621933 45.6C-2.79876 72.1193 7.24975 96.515 46.8191 96.8234C86.4991 96.8234 96.2075 70.4781 92.8303 43.9549C88.9272 13.3031 67.972 0 46.8191 0Z" fill="#3D3334"/>
<path d="M47.0048 91.0224C65.3289 91.0224 80.1835 81.0827 80.1835 68.8215C80.1835 56.5603 65.3289 46.6206 47.0048 46.6206C28.6807 46.6206 13.8261 56.5603 13.8261 68.8215C13.8261 81.0827 28.6807 91.0224 47.0048 91.0224Z" fill="#665B5C"/>
<path fill-rule="evenodd" clip-rule="evenodd" d="M67.96 48.4319C67.96 43.4086 72.0322 39.3364 77.0555 39.3364H93.2692C98.2925 39.3364 102.365 43.4086 102.365 48.4319C102.365 53.4552 98.2925 57.5274 93.2692 57.5274H77.0555C72.0322 57.5274 67.96 53.4552 67.96 48.4319Z" fill="white"/>
<path fill-rule="evenodd" clip-rule="evenodd" d="M24.3938 72.1618C26.6332 74.4011 26.6332 78.0317 24.394 80.2711L23.3658 81.2993C21.1266 83.5386 17.4959 83.5387 15.2566 81.2995C13.0172 79.0602 13.0171 75.4296 15.2564 73.1902L16.2845 72.162C18.5238 69.9226 22.1544 69.9226 24.3938 72.1618Z" fill="white"/>
</svg>
