<svg width="674" height="336" viewBox="0 0 674 336" fill="none" xmlns="http://www.w3.org/2000/svg">
<path d="M232.445 9.13867C182.859 11.5589 133.419 17.0043 84.4931 25.4394C66.0213 28.6228 45.6435 33.4909 35.8678 48.4826C16.4747 79.4824 4.50819 115.093 0 149.964C30.1258 221.415 245.562 338.039 298.648 335.477C390.133 331.055 676.815 203.304 673.979 169.741C672.322 150.127 650.453 79.8699 622.993 67.5712C577.907 47.3792 500.955 36.4331 429.817 20.9984C407.984 26.8868 385.941 32.439 363.424 34.5309C319.955 38.5646 275.34 29.2595 232.445 9.13867Z" fill="#E1E8F2"/>
<path d="M338.336 49.131C335.655 49.131 333.029 49.0796 330.478 48.9729C313.126 48.2452 290.363 43.6184 271.081 36.8956C251.85 30.1927 238.499 22.5287 231.235 14.0541C228.526 10.8905 229.641 6.00263 233.426 4.25867L241.386 0.588833C243.735 -0.494716 246.519 -0.0636709 248.39 1.72379C252.443 5.5953 261.357 11.3096 277.982 17.1031C295.461 23.197 315.91 27.3849 331.356 28.0295C364.08 29.4017 402.74 21.3266 415.679 11.1001C417.85 9.3838 420.884 9.28493 423.165 10.8509L430.248 15.7229C433.613 18.0363 433.922 22.8807 430.893 25.6212C422.374 33.3286 408.348 39.3751 389.045 43.6461C373.128 47.1656 354.72 49.131 338.336 49.131Z" fill="#E1E8F2"/>
</svg>
