<svg width="520" height="129" viewBox="0 0 520 129" fill="none" xmlns="http://www.w3.org/2000/svg">
<path d="M18.7328 75.2513C16.0477 81.9898 13.3665 88.7284 10.6813 95.4709C13.3942 94.8263 16.1109 94.1818 18.8238 93.5372C15.2765 104.934 12.9908 116.723 12.1959 128.163C-1.72018 89.9741 -3.79631 47.5615 6.3234 8.19385C11.2429 30.375 15.1737 52.7815 18.7328 75.2513Z" fill="#383332"/>
<path d="M501.193 67.0574C503.878 73.796 506.559 80.5345 509.244 87.2771C506.532 86.6325 503.815 85.9879 501.102 85.3433C504.649 96.7403 506.935 108.529 507.73 119.969C521.646 81.7802 523.722 39.3676 513.602 0C508.683 22.1851 504.752 44.5916 501.193 67.0574Z" fill="#383332"/>
</svg>
