<svg width="69" height="20" viewBox="0 0 69 20" fill="none" xmlns="http://www.w3.org/2000/svg">
<path d="M35.2201 19.1323C28.446 19.1323 21.6007 18.1516 15.8468 16.3523C11.0578 14.8535 4.67913 12.0378 1.48385 7.12233C0.293529 5.29137 0.811548 2.84352 2.64251 1.6532C4.47347 0.462876 6.92137 0.980896 8.11169 2.81186C11.2912 7.70364 23.5819 11.3932 36.0981 11.2153C48.112 11.0452 57.69 7.47035 61.0948 1.89442C62.2338 0.0318238 64.6658 -0.557436 66.5324 0.577522C68.395 1.71643 68.9842 4.14849 67.8492 6.01504C62.8942 14.1298 51.3666 18.9109 36.2127 19.1244C35.8806 19.1323 35.5523 19.1323 35.2201 19.1323Z" fill="#EB838A"/>
</svg>
