<svg width="26" height="29" viewBox="0 0 26 29" fill="none" xmlns="http://www.w3.org/2000/svg">
<path d="M12.6724 14.4828C16.6721 14.4828 19.9138 11.2411 19.9138 7.24138C19.9138 3.24165 16.6721 0 12.6724 0C8.67268 0 5.43103 3.24165 5.43103 7.24138C5.43103 11.2411 8.67268 14.4828 12.6724 14.4828ZM17.7414 16.2931H16.7966C15.5407 16.8701 14.1433 17.1983 12.6724 17.1983C11.2015 17.1983 9.80981 16.8701 8.54822 16.2931H7.60345C3.40571 16.2931 0 19.6988 0 23.8965V26.25C0 27.7492 1.21633 28.9655 2.71552 28.9655H22.6293C24.1285 28.9655 25.3448 27.7492 25.3448 26.25V23.8965C25.3448 19.6988 21.9391 16.2931 17.7414 16.2931Z" fill="#A35847"/>
</svg>
