<svg width="39" height="31" viewBox="0 0 39 31" fill="none" xmlns="http://www.w3.org/2000/svg">
<path d="M18.7983 7.8091L6.43729 18.0131V29.0262C6.43729 29.3114 6.55031 29.5849 6.75148 29.7865C6.95265 29.9881 7.2255 30.1014 7.51 30.1014L15.023 30.0819C15.3066 30.0805 15.5781 29.9666 15.7781 29.7651C15.9781 29.5636 16.0904 29.291 16.0904 29.0068V22.5752C16.0904 22.2901 16.2034 22.0166 16.4046 21.815C16.6057 21.6133 16.8786 21.5001 17.1631 21.5001H21.454C21.7385 21.5001 22.0113 21.6133 22.2125 21.815C22.4136 22.0166 22.5267 22.2901 22.5267 22.5752V29.0021C22.5262 29.1435 22.5536 29.2837 22.6074 29.4145C22.6611 29.5454 22.74 29.6643 22.8397 29.7645C22.9393 29.8647 23.0577 29.9442 23.1881 29.9984C23.3185 30.0527 23.4582 30.0806 23.5994 30.0806L31.1097 30.1014C31.3942 30.1014 31.6671 29.9881 31.8682 29.7865C32.0694 29.5849 32.1824 29.3114 32.1824 29.0262V18.0057L19.8241 7.8091C19.6788 7.69172 19.4978 7.62771 19.3112 7.62771C19.1246 7.62771 18.9436 7.69172 18.7983 7.8091ZM38.3237 14.7446L32.7188 10.114V0.806378C32.7188 0.592513 32.634 0.387408 32.4831 0.236183C32.3323 0.0849576 32.1276 0 31.9143 0H28.1598C27.9464 0 27.7417 0.0849576 27.5909 0.236183C27.44 0.387408 27.3552 0.592513 27.3552 0.806378V5.68564L21.3527 0.73582C20.7767 0.260715 20.0538 0.000949742 19.3079 0.000949742C18.5619 0.000949742 17.839 0.260715 17.263 0.73582L0.291979 14.7446C0.210511 14.8121 0.143109 14.895 0.0936251 14.9886C0.0441408 15.0822 0.0135435 15.1847 0.00358163 15.2902C-0.00638027 15.3956 0.00448841 15.502 0.0355667 15.6033C0.0666449 15.7045 0.117324 15.7987 0.184707 15.8803L1.89435 17.9634C1.96155 18.0453 2.0442 18.1131 2.13758 18.163C2.23096 18.2128 2.33323 18.2437 2.43854 18.2539C2.54385 18.264 2.65012 18.2533 2.75128 18.2223C2.85244 18.1912 2.9465 18.1405 3.02807 18.0729L18.7983 5.05397C18.9436 4.9366 19.1246 4.87259 19.3112 4.87259C19.4978 4.87259 19.6788 4.9366 19.8241 5.05397L35.595 18.0729C35.6764 18.1405 35.7703 18.1913 35.8714 18.2224C35.9724 18.2536 36.0785 18.2645 36.1838 18.2545C36.289 18.2445 36.3912 18.2138 36.4846 18.1642C36.578 18.1146 36.6607 18.0471 36.7281 17.9654L38.4377 15.8823C38.505 15.8002 38.5555 15.7056 38.5862 15.6039C38.6169 15.5022 38.6273 15.3954 38.6167 15.2897C38.6061 15.184 38.5747 15.0814 38.5245 14.9879C38.4742 14.8943 38.406 14.8117 38.3237 14.7446Z" fill="#A35847"/>
</svg>
