<svg width="20" height="29" viewBox="0 0 20 29" fill="none" xmlns="http://www.w3.org/2000/svg">
<path d="M9.95709 4.52595C6.96204 4.52595 4.52595 6.96204 4.52595 9.95709C4.52595 10.4572 4.93102 10.8623 5.43114 10.8623C5.93126 10.8623 6.33633 10.4572 6.33633 9.95709C6.33633 7.96002 7.96115 6.33633 9.95709 6.33633C10.4572 6.33633 10.8623 5.93126 10.8623 5.43114C10.8623 4.93102 10.4572 4.52595 9.95709 4.52595ZM5.43453 25.9773C5.43453 26.1555 5.48715 26.3292 5.58615 26.4774L6.97279 28.5616C7.14082 28.8139 7.42369 28.9655 7.72636 28.9655H12.1873C12.4905 28.9655 12.7734 28.8139 12.9408 28.5616L14.3275 26.4774C14.4259 26.3292 14.4785 26.1549 14.4791 25.9773L14.4819 23.5344H5.43227L5.43453 25.9773ZM9.95709 0C4.17066 0 0 4.69398 0 9.95709C0 12.4673 0.930649 14.7574 2.46438 16.5073C3.40578 17.5816 4.88237 19.8338 5.43001 21.7212V21.7246H8.14558V21.7178C8.14501 21.4479 8.10485 21.1797 8.02394 20.9218C7.70769 19.9142 6.73292 17.2574 4.50672 14.7173C3.34468 13.3917 2.72349 11.7103 2.7184 9.95709C2.70708 5.79095 6.09419 2.71557 9.95709 2.71557C13.9501 2.71557 17.1986 5.96407 17.1986 9.95709C17.1986 11.7092 16.5627 13.3996 15.408 14.7173C13.1954 17.241 12.2161 19.8921 11.8948 20.9099C11.8118 21.1716 11.7695 21.4444 11.7692 21.7189V21.7246H14.4847V21.7217C15.0324 19.8338 16.509 17.5816 17.4504 16.5078C18.9835 14.7574 19.9142 12.4673 19.9142 9.95709C19.9142 4.45806 15.4561 0 9.95709 0Z" fill="#A35847"/>
</svg>
