<svg width="22" height="30" viewBox="0 0 22 30" fill="none" xmlns="http://www.w3.org/2000/svg">
<path d="M9.30417 0.351562C9.21823 0.140625 9.01771 0 8.79427 0H7.70573C7.48229 0 7.27604 0.140625 7.19583 0.351562L6.0099 3.38086C5.82656 3.84961 5.17344 3.84961 4.9901 3.38086L3.80417 0.351562C3.71823 0.140625 3.51771 0 3.29427 0H2.75C1.23177 0 0 1.25977 0 2.8125V13.125V14.4375V15H0.55H21.45H22V14.4375V13.125V2.8125C22 1.25977 20.7682 0 19.25 0H13.2057C12.9823 0 12.776 0.140625 12.6958 0.351562L11.5099 3.38086C11.3266 3.84961 10.6734 3.84961 10.4901 3.38086L9.30417 0.351562ZM0 16.875V18.75C0 20.8184 1.64427 22.5 3.66667 22.5H7.33333V26.25C7.33333 28.3184 8.9776 30 11 30C13.0224 30 14.6667 28.3184 14.6667 26.25V22.5H18.3333C20.3557 22.5 22 20.8184 22 18.75V16.875H0ZM11 25.3125C11.2431 25.3125 11.4763 25.4113 11.6482 25.5871C11.8201 25.7629 11.9167 26.0014 11.9167 26.25C11.9167 26.4986 11.8201 26.7371 11.6482 26.9129C11.4763 27.0887 11.2431 27.1875 11 27.1875C10.7569 27.1875 10.5237 27.0887 10.3518 26.9129C10.1799 26.7371 10.0833 26.4986 10.0833 26.25C10.0833 26.0014 10.1799 25.7629 10.3518 25.5871C10.5237 25.4113 10.7569 25.3125 11 25.3125Z" fill="#A35847"/>
</svg>
