<svg width="1716" height="2622" viewBox="0 0 1716 2622" fill="none" xmlns="http://www.w3.org/2000/svg">
<path d="M1144.51 2341.41C1138.5 2320.68 1132.48 2299.95 1126.44 2279.22C1115.71 2242.3 1105.01 2205.39 1094.28 2168.5C1090.15 2154.25 1085.9 2139.76 1077.69 2127.39C1059.41 2099.87 1025.69 2088.2 996.22 2073.25C961.518 2055.65 930.257 2031.25 894.818 2000.89C894.86 2000.89 894.902 2000.9 894.925 2000.88C901.488 1990.2 908.049 1979.54 914.61 1968.88C914.939 1968.35 915.269 1967.81 915.598 1967.27C915.813 1968.06 916.051 1968.82 916.31 1969.58C928.836 1971.74 941.701 1972.02 954.319 1970.41C977.947 1967.41 1000.3 1957.95 1021.4 1946.91C1070.33 1921.29 1114.44 1886.53 1150.79 1844.95C1125.72 1799.15 1094.49 1756.73 1058.21 1719.18C1046.93 1705.95 1028.82 1698.81 1018.34 1706.91C1012.42 1711.5 1009.71 1718.99 1007.19 1726.05C986.492 1783.75 957.997 1838.65 922.788 1888.85C917.056 1883.43 909.619 1879.82 902.167 1879.22C874.885 1871.77 846.042 1870.27 818.094 1874.85C812.878 1875.7 807.477 1876.92 802.762 1879.27C756.937 1813.8 713.01 1748.97 669.083 1684.14C650.829 1674.27 633.302 1686.9 619.596 1699.32C597.697 1719.19 577.144 1740.52 558.105 1763.15C552.501 1769.84 546.85 1776.98 545.025 1785.51C540.924 1804.88 557.46 1822.03 573.092 1834.21C638.925 1885.48 716.15 1922.01 797.502 1940.54C801.949 1956.21 806.745 1971.77 811.844 1987.26C756.271 2040.33 675.643 2077 632.547 2140.29C598.521 2190.27 592.998 2253.69 588.514 2313.99C583.091 2386.92 577.689 2459.85 579.797 2529.52C589.408 2534.98 598.996 2540.46 608.607 2545.92C612.957 2540.35 619.024 2536.15 625.714 2526.28C681.574 2473.92 739.042 2419.25 768.138 2348.44C783.221 2311.73 831.324 2162.29 854.5 2060.57C856.066 2079.21 858.404 2097.75 861.897 2116.13C871.486 2166.4 890.158 2215.76 922.352 2255.51C975.092 2320.63 1057.19 2353.08 1126.5 2403.13C1138.71 2401.81 1147.56 2389.8 1149.44 2377.67C1151.41 2365.46 1147.94 2353.2 1144.51 2341.41Z" fill="#983122"/>
</svg>
