<svg width="1716" height="2622" viewBox="0 0 1716 2622" fill="none" xmlns="http://www.w3.org/2000/svg">
<g opacity="0.33">
<path d="M1306.49 856.046L931.669 1230.86C937.144 1236.49 942.947 1241.75 948.989 1246.7L1328.19 867.498C1321.39 863.375 1314.1 859.58 1306.49 856.046Z" fill="#DCEFF9"/>
<path d="M1155.04 824.002H1122.45H1089.86C966.527 824.002 912.386 850.527 873.667 907.962C857.569 931.826 854.145 970.806 854.145 992.489C854.145 1050.21 862.281 1101.36 878.423 1144.44L1196.35 826.511C1182 824.853 1168.04 824.002 1155.04 824.002Z" fill="#DCEFF9"/>
<path d="M1097.32 1296.17C1102.55 1296.26 1114.27 1296.7 1122.45 1297C1130.63 1296.7 1142.34 1296.26 1147.58 1296.17C1308.34 1293.36 1387.2 1175.48 1390.75 992.488C1391.17 970.806 1383.97 929.644 1371.23 907.962C1371.12 907.765 1370.97 907.569 1370.86 907.373L1000.77 1277.44C1028.96 1289.11 1061.15 1295.54 1097.32 1296.17Z" fill="#DCEFF9"/>
<path d="M1196.35 826.511L878.423 1144.44C891.184 1178.51 908.962 1207.57 931.669 1230.84L1306.49 856.024C1273.35 840.689 1233.54 830.83 1196.35 826.511Z" fill="white"/>
<path d="M1370.84 907.373C1361.61 891.973 1346.65 878.666 1328.19 867.498L948.989 1246.7C964.389 1259.24 981.665 1269.54 1000.75 1277.46L1370.84 907.373Z" fill="white"/>
</g>
<g opacity="0.33">
<path d="M694.232 856.046L319.391 1230.86C324.867 1236.49 330.669 1241.75 336.711 1246.7L715.936 867.498C709.13 863.375 701.844 859.58 694.232 856.046Z" fill="#DCEFF9"/>
<path d="M542.76 824.002H510.171H477.581C354.249 824.002 300.108 850.527 261.39 907.962C245.291 931.826 241.867 970.806 241.867 992.489C241.867 1050.21 250.003 1101.36 266.145 1144.44L584.096 826.511C569.743 824.853 555.782 824.002 542.76 824.002Z" fill="#DCEFF9"/>
<path d="M485.063 1296.17C490.299 1296.26 502.012 1296.7 510.192 1297C518.372 1296.7 530.086 1296.26 535.321 1296.17C696.086 1293.36 774.941 1175.48 778.496 992.488C778.911 970.806 771.712 929.644 758.973 907.962C758.864 907.765 758.712 907.569 758.602 907.373L388.496 1277.44C416.7 1289.11 448.875 1295.54 485.063 1296.17Z" fill="#DCEFF9"/>
<path d="M584.096 826.511L266.145 1144.44C278.906 1178.51 296.684 1207.57 319.392 1230.84L694.21 856.024C661.097 840.689 621.266 830.83 584.096 826.511Z" fill="white"/>
<path d="M758.581 907.373C749.354 891.973 734.39 878.666 715.936 867.498L336.733 1246.7C352.133 1259.24 369.409 1269.54 388.496 1277.46L758.581 907.373Z" fill="white"/>
</g>
<path d="M1464.22 976.957H1390.05C1387.96 954.686 1381.35 925.194 1371.23 907.962C1338.53 852.316 1230.9 824.002 1155.04 824.002H1122.45H1089.86C966.527 824.002 912.386 850.527 873.668 907.962C857.57 931.826 854.145 970.806 854.145 992.489C854.145 999.621 854.276 1006.67 854.537 1013.6C843.325 1012.06 830.041 1011.2 816.124 1011.2C802.164 1011.2 788.836 1012.06 777.602 1013.63C777.973 1006.69 778.234 999.643 778.387 992.489C778.802 970.806 771.603 929.644 758.864 907.962C726.166 852.316 618.539 824.002 542.672 824.002H510.083H477.494C354.162 824.002 300.021 850.527 261.302 907.962C248.563 926.852 243.764 955.21 242.325 976.957H167.309C154.548 976.957 144.23 987.297 144.23 1000.04V1025.21C144.23 1037.97 154.57 1048.29 167.309 1048.29H244.528C260.015 1199.65 341.139 1293.64 484.954 1296.17C490.19 1296.26 501.903 1296.7 510.083 1297C518.263 1296.7 529.977 1296.26 535.212 1296.17C674.381 1293.73 752.146 1205.06 772.846 1062.57C772.89 1062.51 772.956 1062.47 772.999 1062.4C779.369 1060.63 793.896 1058.32 816.124 1058.32C837.588 1058.32 851.833 1060.48 858.529 1062.2C877.485 1205.39 957.954 1293.73 1097.32 1296.15C1102.55 1296.24 1114.27 1296.68 1122.45 1296.98C1130.63 1296.68 1142.34 1296.24 1147.58 1296.15C1291.35 1293.64 1369.59 1199.08 1387.09 1048.27H1464.22C1476.98 1048.27 1487.3 1037.93 1487.3 1025.19V1000.04C1487.3 987.297 1476.98 976.957 1464.22 976.957ZM678.308 1183.29C662.537 1203.95 643.014 1219.89 620.284 1230.71C595.919 1242.32 567.016 1248.49 534.383 1249.06C530.151 1249.12 521.972 1249.41 510.083 1249.84C498.195 1249.38 490.015 1249.12 485.783 1249.06C422.154 1247.94 373.227 1225.85 340.354 1183.36C306.696 1139.86 288.896 1073.85 288.896 992.489C288.896 968.625 293.717 944.15 300.37 934.291C315.836 911.343 332.327 897.513 355.492 888.046C383.392 876.638 423.288 871.097 477.494 871.097H510.083H542.672C577.399 871.097 618.103 878.012 651.521 889.595C684.481 901.025 709.435 916.796 718.226 931.782C725.315 943.845 731.576 975.67 731.27 991.551C729.678 1073.72 711.355 1140.01 678.308 1183.29ZM1290.67 1183.29C1274.9 1203.95 1255.38 1219.89 1232.65 1230.71C1208.28 1242.32 1179.38 1248.49 1146.75 1249.06C1142.52 1249.12 1134.34 1249.41 1122.45 1249.84C1110.56 1249.38 1102.38 1249.12 1098.15 1249.06C1034.52 1247.94 985.592 1225.85 952.719 1183.36C919.061 1139.86 901.262 1073.85 901.262 992.489C901.262 968.625 906.082 944.15 912.735 934.291C928.201 911.343 944.692 897.513 967.858 888.046C995.757 876.638 1035.65 871.097 1089.86 871.097H1122.45H1155.04C1189.76 871.097 1230.47 878.012 1263.89 889.595C1296.85 901.025 1321.8 916.796 1330.59 931.782C1337.68 943.845 1343.94 975.67 1343.64 991.529C1342.04 1073.72 1323.72 1140.01 1290.67 1183.29Z" fill="#F4F4F4"/>
</svg>
