<svg width="1716" height="2622" viewBox="0 0 1716 2622" fill="none" xmlns="http://www.w3.org/2000/svg">
<path d="M1047.99 1272.08C1037.16 1274.11 1015.29 1276 1006.33 1269.76C994.87 1261.78 986.858 1249.9 977.78 1239.3C964.995 1224.35 949.421 1211.46 931.339 1203.66C913.257 1195.87 892.517 1193.48 873.63 1199.03C853.433 1204.97 836.736 1219.4 823.221 1235.53C822.678 1236.18 822.173 1236.85 821.724 1237.54C821.274 1236.87 820.788 1236.2 820.226 1235.53C806.711 1219.4 790.014 1204.97 769.817 1199.03C750.93 1193.48 730.19 1195.87 712.108 1203.66C694.026 1211.46 678.471 1224.35 665.667 1239.3C656.589 1249.91 648.596 1261.78 637.121 1269.76C628.137 1276 606.292 1274.11 595.454 1272.08C592.852 1271.59 591.167 1274.77 593.002 1276.67C606.067 1290.22 634.744 1302.95 653.275 1307.71C696.44 1318.85 743.667 1318.07 784.137 1299.4C795.78 1294.03 807.048 1286.97 814.536 1276.58C817.006 1273.14 819.683 1268.9 821.742 1264.3C823.801 1268.9 826.478 1273.14 828.949 1276.58C836.436 1286.97 847.705 1294.03 859.348 1299.4C899.817 1318.07 947.044 1318.87 990.209 1307.71C1008.72 1302.93 1037.42 1290.22 1050.48 1276.67C1052.28 1274.77 1050.6 1271.59 1047.99 1272.08Z" fill="#383332"/>
</svg>
