<svg width="1716" height="2622" viewBox="0 0 1716 2622" fill="none" xmlns="http://www.w3.org/2000/svg">
<path fill-rule="evenodd" clip-rule="evenodd" d="M271.384 1359.99C276.531 1361.99 279.082 1367.79 277.08 1372.93L254.63 1430.67C252.629 1435.82 246.834 1438.37 241.686 1436.37C236.539 1434.37 233.988 1428.57 235.99 1423.43L258.44 1365.69C260.441 1360.54 266.236 1357.99 271.384 1359.99Z" fill="#E3E3E3"/>
<path d="M222.62 1316.73C230.904 1316.73 237.62 1323.45 237.62 1331.73C237.62 1340.01 230.904 1346.73 222.62 1346.73C214.336 1346.73 207.62 1340.01 207.62 1331.73C207.62 1323.45 214.336 1316.73 222.62 1316.73Z" fill="#E3E3E3"/>
<path fill-rule="evenodd" clip-rule="evenodd" d="M1339 1359.82C1344.24 1358.08 1349.9 1360.93 1351.63 1366.17L1366.09 1409.91C1367.83 1415.16 1364.98 1420.81 1359.74 1422.54C1354.49 1424.28 1348.84 1421.43 1347.11 1416.19L1332.65 1372.45C1330.91 1367.21 1333.76 1361.55 1339 1359.82Z" fill="#E3E3E3"/>
<path fill-rule="evenodd" clip-rule="evenodd" d="M1383.79 1336.61C1388.42 1333.61 1394.61 1334.92 1397.62 1339.56L1422.7 1378.2C1425.7 1382.83 1424.39 1389.02 1419.75 1392.03C1415.12 1395.04 1408.93 1393.72 1405.92 1389.08L1380.84 1350.44C1377.84 1345.81 1379.15 1339.62 1383.79 1336.61Z" fill="#E3E3E3"/>
</svg>
