<svg width="1716" height="2622" viewBox="0 0 1716 2622" fill="none" xmlns="http://www.w3.org/2000/svg">
<g opacity="0.2">
<path d="M507.803 1290.6C641.202 1290.6 749.357 1181.97 749.357 1047.96C749.357 1012.75 741.893 979.321 728.466 949.116L408.417 1269.19C438.731 1282.94 472.375 1290.6 507.803 1290.6Z" fill="#DCE8EF"/>
<path d="M507.802 805.315C374.403 805.315 266.248 913.949 266.248 1047.96C266.248 1060.17 267.162 1072.18 268.881 1083.89L544.645 808.122C532.654 806.273 520.337 805.315 507.802 805.315Z" fill="#DCE8EF"/>
<path d="M668.556 866.858L326.811 1208.62C333.622 1216.37 340.912 1223.66 348.659 1230.47L690.231 888.902C683.485 881.09 676.238 873.735 668.556 866.858Z" fill="#DCE8EF"/>
<path d="M348.659 1230.47C366.46 1246.16 386.589 1259.26 408.438 1269.19L728.487 949.138C718.716 927.137 705.768 906.855 690.23 888.902L348.659 1230.47Z" fill="white"/>
<path d="M544.667 808.123L268.903 1083.91C275.91 1131.35 296.605 1174.31 326.81 1208.62L668.556 866.857C634.52 836.369 591.846 815.391 544.667 808.123Z" fill="white"/>
</g>
<g opacity="0.2">
<path d="M1125.78 805.005C992.385 805.005 884.229 913.64 884.229 1047.65C884.229 1059.86 885.143 1071.87 886.862 1083.58L1162.63 807.813C1150.61 805.963 1138.32 805.005 1125.78 805.005Z" fill="#DCE8EF"/>
<path d="M1125.78 1290.29C1259.18 1290.29 1367.34 1181.66 1367.34 1047.65C1367.34 1012.44 1359.87 979.012 1346.45 948.807L1026.4 1268.88C1056.69 1282.63 1090.36 1290.29 1125.78 1290.29Z" fill="#DCE8EF"/>
<path d="M1286.52 866.548L944.77 1208.32C951.582 1216.06 958.872 1223.35 966.619 1230.16L1308.19 888.593C1301.44 880.78 1294.2 873.425 1286.52 866.548Z" fill="#DCE8EF"/>
<path d="M966.618 1230.16C984.419 1245.85 1004.55 1258.95 1026.4 1268.88L1346.45 948.829C1336.68 926.828 1323.73 906.546 1308.19 888.592L966.618 1230.16Z" fill="white"/>
<path d="M1162.63 807.813L886.862 1083.6C893.869 1131.04 914.565 1174 944.77 1208.31L1286.52 866.548C1252.48 836.06 1209.81 815.081 1162.63 807.813Z" fill="white"/>
</g>
<path d="M1474.06 980.606H1390.04C1377.88 934.318 1353.16 891.905 1317.53 857.304C1265.54 806.817 1196.54 779.005 1123.2 779.005C1049.86 779.005 980.858 806.817 928.869 857.304C882.865 902.002 855.032 959.714 848.96 1022C839.146 1020.02 827.938 1018.97 815.491 1018.97C803.043 1018.97 791.836 1020.02 782.021 1022C775.95 959.714 748.116 902.002 702.112 857.304C650.124 806.817 581.117 779.005 507.781 779.005C434.444 779.005 365.437 806.817 313.449 857.304C277.825 891.905 253.104 934.318 240.939 980.606H155.394C148.669 980.606 143.229 986.046 143.229 992.77V1027.2C143.229 1033.92 148.669 1039.36 155.394 1039.36H232.43C232.343 1042.23 232.278 1045.09 232.278 1047.98C232.278 1120.08 261.112 1187.8 313.449 1238.66C365.437 1289.14 434.444 1316.95 507.781 1316.95C581.117 1316.95 650.124 1289.14 702.112 1238.66C748.922 1193.17 776.907 1134.22 782.304 1070.7C787.701 1068.61 799.061 1065.98 815.491 1065.98C831.921 1065.98 843.28 1068.61 848.677 1070.7C854.074 1134.22 882.06 1193.17 928.869 1238.63C980.858 1289.12 1049.86 1316.93 1123.2 1316.93C1196.54 1316.93 1265.54 1289.12 1317.53 1238.63C1369.89 1187.78 1398.7 1120.08 1398.7 1047.96C1398.7 1045.09 1398.64 1042.21 1398.55 1039.34H1474.06C1480.79 1039.34 1486.23 1033.9 1486.23 1027.18V992.748C1486.23 986.046 1480.79 980.606 1474.06 980.606ZM507.802 1269.93C381.606 1269.93 279.305 1170.54 279.305 1047.96C279.305 925.374 381.606 825.989 507.802 825.989C633.998 825.989 736.3 925.374 736.3 1047.96C736.3 1051.31 736.213 1054.62 736.061 1057.92C735.778 1059.75 735.625 1061.65 735.625 1063.58C735.625 1063.91 735.669 1064.24 735.669 1064.56C726.921 1179.42 628.253 1269.93 507.802 1269.93ZM1123.22 1269.93C1002.77 1269.93 904.104 1179.4 895.356 1064.56C895.378 1064.24 895.399 1063.93 895.399 1063.6C895.399 1061.67 895.247 1059.77 894.964 1057.95C894.812 1054.64 894.725 1051.31 894.725 1047.96C894.725 925.374 997.027 825.989 1123.22 825.989C1249.42 825.989 1351.72 925.374 1351.72 1047.96C1351.72 1170.54 1249.42 1269.93 1123.22 1269.93Z" fill="#3C3328"/>
</svg>
