<svg width="1716" height="2622" viewBox="0 0 1716 2622" fill="none" xmlns="http://www.w3.org/2000/svg">
<path d="M162.446 626.417C164.226 619.832 170.829 615.858 177.395 617.292L178.031 617.449L293.621 648.935L294.247 649.124C300.635 651.217 304.333 657.997 302.554 664.583C300.774 671.168 294.17 675.143 287.604 673.708L286.968 673.553L171.379 642.065L170.752 641.878C164.364 639.783 160.667 633.003 162.446 626.417Z" fill="#983122"/>
<path d="M178.45 569.417C180.242 562.832 186.892 558.858 193.504 560.292L194.144 560.449L310.555 591.935L311.185 592.124C317.618 594.217 321.342 600.997 319.551 607.583C317.759 614.168 311.108 618.143 304.494 616.708L303.855 616.553L187.446 585.065L186.814 584.878C180.381 582.783 176.658 576.003 178.45 569.417Z" fill="#983122"/>
<path d="M273.576 733.386C270.345 727.102 262.652 724.642 256.404 727.884L202.437 755.835L159.493 712.743C154.505 707.752 146.444 707.752 141.456 712.743C136.483 717.733 136.483 725.837 141.456 730.841L178.648 768.161L131.907 792.358C125.645 795.6 123.193 803.32 126.424 809.589C128.691 813.997 133.154 816.527 137.773 816.527C139.742 816.527 141.74 816.072 143.61 815.106L197.591 787.155L240.535 830.247C243.029 832.749 246.288 834 249.546 834C252.805 834 256.078 832.749 258.557 830.247C263.53 825.256 263.53 817.153 258.557 812.148L221.366 774.829L268.107 750.631C274.355 747.39 276.806 739.67 273.576 733.386Z" fill="#983122"/>
</svg>
