<svg width="1716" height="2622" viewBox="0 0 1716 2622" fill="none" xmlns="http://www.w3.org/2000/svg">
<path d="M227.717 508.897C409.692 151.318 843.696 49.3835 1176.02 232.41C1415.59 364.367 1521.75 680.031 1501.92 978.204C1500.52 999.155 1488.3 1007.8 1465.85 1007.48C1449.7 1007.25 1438.98 996.485 1436.35 969.627C1415.28 756.038 1362.28 525.291 1185.51 387.691C996.758 240.774 773.971 228.134 558.991 321.035C347.958 412.234 248.144 637.727 200.165 863.372C176.021 976.89 176.13 996.562 145.467 993.411C119.081 990.705 113.165 963.03 115.027 936.716C125.872 783.117 155.749 650.346 227.717 508.897Z" fill="#907B77"/>
</svg>
