<svg width="1716" height="2622" viewBox="0 0 1716 2622" fill="none" xmlns="http://www.w3.org/2000/svg">
<path d="M935.699 124.73C873.789 119.26 811.239 116.46 749.649 124.73C688.059 133 627.099 152.85 576.779 189.32C554.079 205.78 533.539 225.72 519.109 249.76C504.679 273.8 496.629 302.16 499.409 330.06C542.799 308.1 589.439 292.19 637.269 281.68C629.059 279.25 620.839 276.81 612.629 274.38C631.549 271.6 650.479 268.81 671.419 265.48C699.439 244.62 733.889 232.51 768.809 231.27C762.669 232.93 757.199 236.93 755.509 243.78C812.259 231.57 870.839 227.89 928.669 232.92C923.049 236.04 917.439 239.15 913.749 243.89C986.129 241.13 1058.83 246.68 1138.52 261.62C1138.34 222.12 1112.04 186.29 1078.83 164.93C1045.59 143.56 1006.53 130.98 935.699 124.73Z" fill="black"/>
<path d="M671.409 265.48C652.969 249.88 631.459 238.24 609.329 228.56C603.799 226.14 597.569 223.89 591.859 225.85C584.169 228.49 580.869 237.38 578.929 245.27C561.219 317.23 575.229 392.79 590.279 465.35C605.329 537.91 621.449 612.62 607.779 685.45C600.909 722.07 585.679 758.43 557.799 783.16C519.659 817 465.299 823.67 415.179 826.78C428.789 819.89 441.269 810.78 451.649 797.04C374.999 843.9 282.139 863.67 194.329 850.92C234.809 833.06 272.369 807.85 302.039 775.02C331.709 742.19 353.249 701.55 360.829 657.96C369.029 610.82 360.899 562.6 354.819 515.14C340.919 406.62 367.769 319.02 401.059 265.96C421.619 233.18 451.779 205.35 488.519 193.18C525.249 181.01 568.689 186.41 597.909 211.78L671.409 265.48Z" fill="#383332"/>
<path d="M671.409 265.48C669.229 257.07 655.729 184.95 637.299 158.47C604.559 111.45 513.599 98.2899 446.419 111.62C284.149 143.82 180.379 421.2 136.229 596.65C121.089 656.81 115.929 719.05 105.769 780.25C100.559 811.68 95.0287 843.97 78.5087 871.2C61.9887 898.44 31.6486 919.78 0.0786133 912.79C34.9686 930.69 81.0087 923.57 106.179 895.37C97.2786 921.16 75.4786 942.13 49.3586 950C101.419 967.49 159.619 966 210.719 945.88C331.829 898.19 373.289 767.87 378.189 685.3C381.429 630.7 417.159 259.46 527.609 230.43C559.259 222.09 596.189 224.95 671.409 265.48Z" fill="#383332"/>
<path d="M671.409 265.48C698.949 213.55 741.639 168.53 796.389 147.17C807.689 142.76 820.289 139.18 831.769 143.07C849.009 148.92 856.639 168.65 861.399 186.21C886.929 280.39 892.049 378.69 906.159 475.25C920.269 571.8 944.809 669.97 1003.11 748.22C1061.41 826.47 1159.92 880.93 1256.25 856.89C1215.1 845.16 1180.77 811.87 1167.77 771.11C1226.62 844.2 1327.46 880.8 1417.49 864.64C1349.48 805.78 1310.89 719.52 1288.35 632.45C1265.81 545.38 1257.3 455.28 1237.75 367.48C1218.2 279.68 1186.05 191.74 1124.45 126.2C1062.85 60.6597 966.799 21.8697 874.899 50.7597C791.399 81.6897 724.269 148.39 671.409 265.48Z" fill="#383332"/>
<path d="M671.409 265.48C699.779 214.37 748.179 112.51 822.529 88.1298C902.849 61.7898 979.999 96.6798 1052.04 140.9C1124.08 185.12 1179.61 255.58 1205.76 335.96C1230.98 413.46 1229.14 496.74 1238.95 577.65C1248.52 656.62 1269.79 735.04 1309.76 803.82C1349.73 872.6 1409.37 931.35 1491.45 965.37C1470.99 942.25 1460.15 910.86 1461.98 880.04C1509.8 939.19 1580.39 979.45 1650.65 994.88C1605.53 955.23 1577.38 899.36 1559.94 841.89C1542.5 784.41 1534.8 724.53 1523.97 665.45C1504.92 561.57 1475.75 458.86 1428 364.66C1380.25 270.46 1313.25 184.8 1223.53 128.37C1141.83 56.1798 1033.38 14.9898 924.359 14.7298C815.339 14.4698 674.389 53.7898 597.179 126.43C656.189 176.65 656.109 207.35 671.409 265.48Z" fill="#383332"/>
<path d="M1517.33 724.27C1516.33 721.27 1519.26 718.1 1522.39 717.68C1525.52 717.26 1528.58 718.73 1531.34 720.29C1563.14 738.27 1582.75 771.39 1601.94 802.48C1621.13 833.57 1643.33 865.76 1677.16 879.56C1627.7 880.65 1575.54 851.91 1547.83 806.6C1526.62 784.56 1527.36 754.32 1517.33 724.27Z" fill="#383332"/>
<path d="M884.978 222.84C886.428 289.4 873.758 355.34 861.998 420.87C850.238 486.4 839.298 552.85 844.258 619.24C849.218 685.63 871.598 752.85 918.328 800.27C965.058 847.69 1038.81 871.24 1091.39 843.02C1017.66 846.04 946.598 801.73 907.228 739.32C867.858 676.91 857.608 599.15 867.908 526.08C880.298 438.12 920.738 352.71 884.978 222.84Z" fill="#383332"/>
</svg>
