<svg width="1716" height="2622" viewBox="0 0 1716 2622" fill="none" xmlns="http://www.w3.org/2000/svg">
<path d="M608.688 170.24C780.288 -8.92992 1559.91 133.32 1466.59 880.53C1434.33 880.64 1396.76 876.75 1357.13 876.75C1344.65 866.97 1335.17 855.73 1325.68 844.5C1329.01 853.75 1331.7 864.04 1332.29 874.46C1299.44 874.38 1267.21 871.95 1234.98 869.52C1200.02 758.042 1150.66 657.922 1083.01 561.624C1088.59 573.697 1093.78 585.951 1098.55 598.39C1131.32 683.86 1143.47 778.57 1123.6 867.92C1123.48 866.811 925.856 866.81 925.619 866.81C925.619 866.81 879.789 836.12 868.409 811.471C870.899 833.64 880.419 854.89 895.258 871.45C852.549 872.97 811.329 873.031 770.199 874.881C694.859 783.601 641.278 676.37 619.428 561.931C612.666 526.512 609.038 490.401 608.708 454.288C592.439 506.756 583.731 562.272 583.188 618.28C582.358 703.95 611.719 799.89 647.159 874.81L612.609 874.881C575.499 796.431 556.339 707.61 557.199 618.03C557.788 556.624 567.781 495.759 586.448 438.513C511.556 566.146 460.723 707.577 438.548 851.66C398.838 856.21 359.688 865.58 321.728 878.04C322.198 868.07 322.659 858.1 322.709 849.6C308.469 858.2 296.628 870.731 286.178 885.381C247.228 895.341 197.698 907.74 157.848 913.28C136.238 681.14 186.089 527.61 295.279 377.53C330.023 329.777 485.756 189.568 607.616 172.048C607.874 171.328 608.227 170.722 608.688 170.24Z" fill="#B195CE"/>
</svg>
