<svg width="1716" height="2622" viewBox="0 0 1716 2622" fill="none" xmlns="http://www.w3.org/2000/svg">
<path d="M856.51 291.117C856.51 291.117 1051.16 538.407 1129.31 776.017C1124.99 774.337 1119.89 773.607 1114.79 772.887C1064.18 678.007 1040.12 629.517 978.57 540.767C917.02 452.017 833.44 322.737 745.41 260.157C847.57 407.467 892.04 592.237 862.57 772.247C855.24 771.187 849.17 770.947 843.1 770.707C860.1 592.837 808.49 407.277 698.68 265.457C586.29 423.997 534.42 618.627 551.17 808.877C544.82 807.587 538.47 806.297 528.78 801.787C491.52 627.987 529.17 439.427 630.22 296.767C552.04 358.607 495.41 444.357 454.99 535.477C414.57 626.597 370.34 715.597 345.75 813.037C336.39 816.847 326.84 822.327 313.24 829.247C334.74 729.577 360.4 648.537 403.05 559.477C355.71 653.777 307.36 758.087 259.64 853.727C226.54 879.137 184.7 899.537 154.21 932.217C108.28 786.507 149.47 505.867 315.87 327.917C408.15 229.237 534.92 163.457 671.32 150.877C769.49 96.5266 891.5 68.2766 1002.4 103.727C1166.61 156.217 1569.25 400.027 1505.93 932.217C1492.2 905.417 1379.94 862.967 1375.91 851.627C1337.08 742.247 1238.78 537.807 1168.12 455.727C1237.98 564.337 1285.27 706.317 1338.46 829.647C1314.44 817.067 1266.4 796.057 1245.64 789.307C1033.66 403.367 856.51 291.117 856.51 291.117Z" fill="#383332"/>
</svg>
