<svg width="1716" height="2622" viewBox="0 0 1716 2622" fill="none" xmlns="http://www.w3.org/2000/svg">
<path d="M1463.27 619.208C1433.54 515.268 1390.62 414.088 1326.52 327.038C1262.42 239.988 1176.11 167.468 1074.7 130.008C980.916 95.3685 873.936 92.6584 781.556 129.988C736.126 135.768 657.926 120.748 599.986 131.448C429.956 162.848 318.716 303.588 231.806 453.068C144.896 602.548 117.786 782.848 140.826 954.218C157.206 931.078 171.896 906.948 185.386 882.118C185.606 898.928 186.926 915.728 189.576 932.498C201.586 929.238 216.626 921.198 231.666 913.148C268.226 815.789 306.796 721.908 348.996 629.678C370.096 583.578 392.246 537.638 421.596 496.308C443.756 465.108 470.326 436.468 501.486 414.488C329.466 680.969 334.486 803.888 334.486 867.298C348.886 865.028 356.576 864.438 364.266 863.848C377.026 691.598 517.446 465.688 664.606 310.998C649.386 400.438 650.696 495.678 640.236 585.438C628.896 682.798 596.976 769.498 552.996 864.278H594.086C629.236 814.188 660.696 757.668 673.936 697.948C689.736 766.748 674.816 811.338 663.086 864.278H686.706C730.656 777.268 776.416 559.558 769.676 467.348C823.296 591.958 834.806 715.088 827.886 864.278H919.536C967.616 749.908 999.286 623.138 1000.73 496.238C1019.65 557.988 1041.07 623.278 1057.1 658.988C1093.38 739.808 1145.21 819.998 1218.64 867.308H1248.44C1182.67 789.328 1138.4 683.818 1125.06 590.668C1165.97 693.018 1260.12 811.488 1350.1 877.358C1375.39 889.318 1403.69 894.828 1438.74 888.918C1408.48 845.648 1388.63 796.298 1373.67 746.468C1410.96 804.838 1448.65 866.318 1482.56 932.498C1509.59 847.208 1487.87 705.218 1463.27 619.208Z" fill="#383332"/>
</svg>
