<svg width="1716" height="2622" viewBox="0 0 1716 2622" fill="none" xmlns="http://www.w3.org/2000/svg">
<path d="M508.81 1173.91C469.712 1173.6 441.227 1163.5 424.142 1143.91C403.169 1119.87 402.603 1085.12 405.815 1060.2C410.146 1026.58 423.304 999.239 443.842 981.133C461.513 965.552 484.566 956.968 508.75 956.968C533.489 956.968 556.723 965.188 574.162 980.103C594.549 997.542 607.019 1023.07 611.21 1055.98C617.279 1103.66 603.808 1130.41 591.439 1144.46C574.233 1163.99 546.434 1173.9 508.81 1173.91Z" fill="#3D3334"/>
<path d="M508.75 972.104C523.694 972.104 545.475 975.487 564.327 991.603C581.766 1006.52 592.49 1028.81 596.185 1057.89C598.276 1074.3 597.942 1089.25 595.196 1102.35C592.479 1115.33 587.39 1126.13 580.069 1134.44C565.872 1150.56 541.911 1158.75 508.861 1158.77C474.317 1158.47 449.649 1150.13 435.542 1133.96C418.275 1114.16 418.003 1083.97 420.82 1062.14C429.393 995.754 471.863 972.104 508.75 972.104ZM508.75 941.81C455.818 941.81 401.2 977.517 390.79 1058.25C382.055 1125.97 407.713 1188.26 508.75 1189.05C610.069 1189.05 634.859 1121.78 626.236 1054.05C616.269 975.78 562.762 941.81 508.75 941.81Z" fill="#3D3334"/>
<path d="M509.224 1174.24C556.013 1174.24 593.943 1148.86 593.943 1117.55C593.943 1086.24 556.013 1060.86 509.224 1060.86C462.435 1060.86 424.505 1086.24 424.505 1117.55C424.505 1148.86 462.435 1174.24 509.224 1174.24Z" fill="#665B5C"/>
<path fill-rule="evenodd" clip-rule="evenodd" d="M562.731 1065.48C562.731 1052.65 573.129 1042.26 585.956 1042.26H627.356C640.183 1042.26 650.581 1052.65 650.581 1065.48C650.581 1078.31 640.183 1088.71 627.356 1088.71H585.956C573.129 1088.71 562.731 1078.31 562.731 1065.48Z" fill="white"/>
<path fill-rule="evenodd" clip-rule="evenodd" d="M451.489 1126.08C457.207 1131.79 457.207 1141.06 451.489 1146.78L448.864 1149.41C443.146 1155.13 433.876 1155.13 428.158 1149.41C422.44 1143.69 422.44 1134.42 428.157 1128.7L430.783 1126.08C436.5 1120.36 445.771 1120.36 451.489 1126.08Z" fill="white"/>
</svg>
