<svg width="1716" height="2622" viewBox="0 0 1716 2622" fill="none" xmlns="http://www.w3.org/2000/svg">
<path d="M312.92 1036.54C305.69 1055.8 311.597 1078.24 324.077 1094.58C336.568 1110.93 354.774 1121.99 373.566 1130.36C429.184 1155.13 492.314 1159.09 552.738 1151.56C581.607 1147.96 610.779 1141.59 635.639 1126.49C660.5 1111.4 680.655 1086.32 683.835 1057.4C686.491 1033.27 677.312 1009.28 664.983 988.373C639.497 945.174 599.207 910.497 551.97 893.624C504.734 876.75 450.823 878.244 405.414 899.531C359.995 920.828 339.365 966.087 312.92 1036.54Z" fill="#F4D8D3"/>
<path d="M319.351 1140.08C308.496 1132.95 307.648 1126.91 311.011 1121.83C313.636 1117.86 319.19 1119.53 320.371 1119.68C316.373 1114.93 311.718 1110.45 308.375 1105.11C305.518 1100.53 303.205 1095.12 302.428 1089.8C301.479 1083.37 310.183 1080.57 314.313 1079.44C316.746 1078.77 371.394 1108.29 415.067 1115.8C477.106 1126.48 539.57 1132.4 602.196 1119.66C617.958 1116.45 633.145 1110.12 648.493 1104.88C654.784 1102.74 665.134 1096.65 666.639 1097.21C676.292 1100.81 675.353 1116.2 665.669 1123.77C623.229 1156.93 472.754 1240.89 319.351 1140.08Z" fill="#373134"/>
<path d="M610.516 943.053C603.134 936.913 596.359 931.339 589.038 925.301C593.673 919.07 599.025 918.192 604.588 920.948C626.47 931.804 641.97 948.556 650.886 971.206C642.606 977.881 641 977.77 635.457 971.358C627.409 962.057 619.25 952.848 610.516 943.053Z" fill="#F5B7BA"/>
<path opacity="0.749" d="M450.153 678.971C377.858 692.562 274.638 729.54 256.006 756.85C257.115 756.997 258.34 757.434 259.302 757.26C313.986 747.845 369.983 742.966 425.896 737.587C498.497 730.604 570.783 722.383 643.155 714.502C651.37 713.608 659.241 711.415 667.286 709.813C665.567 701.124 657.262 698.068 649.216 694.987C631.989 688.389 614.175 682.388 597.505 675.222C586.185 670.349 574.692 667.81 561.377 667.837C524.325 667.906 488.246 671.838 450.153 678.971Z" fill="#373134"/>
</svg>
