<svg width="1716" height="2622" viewBox="0 0 1716 2622" fill="none" xmlns="http://www.w3.org/2000/svg">
<path d="M1319.08 1048.54C1326.31 1067.8 1320.4 1090.24 1307.92 1106.58C1295.43 1122.93 1277.23 1133.99 1258.43 1142.36C1202.82 1167.13 1139.69 1171.09 1079.26 1163.56C1050.39 1159.96 1021.22 1153.59 996.361 1138.49C971.501 1123.4 951.346 1098.32 948.165 1069.4C945.51 1045.27 954.688 1021.28 967.018 1000.37C992.504 957.174 1032.79 922.497 1080.03 905.624C1127.27 888.75 1181.18 890.244 1226.59 911.531C1272.01 932.828 1292.64 978.087 1319.08 1048.54Z" fill="#F4D8D3"/>
<path d="M1312.65 1152.08C1323.5 1144.95 1324.35 1138.91 1320.99 1133.83C1318.36 1129.86 1312.81 1131.53 1311.63 1131.68C1315.63 1126.93 1320.28 1122.45 1323.62 1117.11C1326.48 1112.53 1328.79 1107.12 1329.57 1101.8C1330.52 1095.37 1321.82 1092.57 1317.69 1091.44C1315.25 1090.77 1260.61 1120.29 1216.93 1127.8C1154.89 1138.48 1092.43 1144.4 1029.8 1131.66C1014.04 1128.45 998.855 1122.12 983.507 1116.88C977.216 1114.74 966.866 1108.65 965.361 1109.21C955.708 1112.81 956.647 1128.2 966.331 1135.77C1008.77 1168.93 1159.25 1252.89 1312.65 1152.08Z" fill="#373134"/>
<path d="M1021.48 955.053C1028.87 948.913 1035.64 943.339 1042.96 937.301C1038.33 931.07 1032.98 930.192 1027.41 932.948C1005.53 943.804 990.03 960.556 981.114 983.206C989.394 989.881 991 989.77 996.543 983.358C1004.59 974.057 1012.75 964.848 1021.48 955.053Z" fill="#F5B7BA"/>
<path opacity="0.749" d="M1181.85 690.971C1254.14 704.562 1357.36 741.54 1375.99 768.85C1374.89 768.997 1373.66 769.434 1372.7 769.26C1318.01 759.845 1262.02 754.966 1206.1 749.587C1133.5 742.604 1061.22 734.383 988.845 726.502C980.63 725.608 972.759 723.415 964.714 721.813C966.433 713.124 974.738 710.068 982.784 706.987C1000.01 700.389 1017.83 694.388 1034.49 687.222C1045.81 682.349 1057.31 679.81 1070.62 679.837C1107.68 679.906 1143.75 683.838 1181.85 690.971Z" fill="#373134"/>
</svg>
