<svg width="1716" height="2622" viewBox="0 0 1716 2622" fill="none" xmlns="http://www.w3.org/2000/svg">
<path d="M201.989 897.78C195.199 914.82 188.419 931.86 181.629 948.91C188.489 947.28 195.359 945.65 202.219 944.02C193.249 972.84 187.469 1002.65 185.459 1031.58C150.269 935.01 145.019 827.76 170.609 728.21C183.049 784.3 192.989 840.96 201.989 897.78Z" fill="#B195CE"/>
<path d="M1422 877.06C1428.79 894.1 1435.57 911.14 1442.36 928.19C1435.5 926.56 1428.63 924.93 1421.77 923.3C1430.74 952.12 1436.52 981.93 1438.53 1010.86C1473.72 914.29 1478.97 807.04 1453.38 707.49C1440.94 763.59 1431 820.25 1422 877.06Z" fill="#B195CE"/>
</svg>
