<svg width="1716" height="2622" viewBox="0 0 1716 2622" fill="none" xmlns="http://www.w3.org/2000/svg">
<path d="M1322.5 1067.13C1346.04 983.377 1239.25 909.601 1142.77 909.601C1046.28 909.601 971.825 981.408 961.01 1065.11C940.128 1226.69 1087.75 1223.65 1138.73 1223.65C1264.86 1222.66 1290.93 1179.5 1322.5 1067.13Z" fill="#FAECE9"/>
<path d="M1209.5 1235.59C1224.49 1233.54 1237.81 1229.69 1250.43 1223.4C1266.28 1215.5 1275.64 1202.09 1282.35 1186.39C1283.08 1184.66 1283.69 1182.46 1283.24 1180.77C1282.72 1178.79 1281.33 1176.55 1279.64 1175.54C1278.61 1174.93 1275.89 1175.95 1274.68 1177.06C1271.26 1180.19 1268.22 1183.73 1265.05 1187.13C1250.49 1202.76 1232.14 1211.42 1211.55 1215.57C1198.65 1218.17 1185.59 1220.04 1172.6 1222.21C1168.58 1222.87 1163.11 1221.98 1163.62 1228.43C1164.06 1234.09 1168.38 1236.02 1173.57 1236C1185.19 1235.95 1196.81 1235.8 1209.5 1235.59Z" fill="#F5B7BA"/>
<path d="M1258.91 874.461C1282.26 885.519 1302.93 899.131 1322.64 914.369C1342 929.344 1357.42 947.995 1372 968.736C1377.25 961.072 1374.6 955.861 1371.67 950.823C1363.23 936.281 1352.56 923.538 1340.1 912.258C1289.09 866.04 1229.02 840.795 1160.64 835.2C1138.74 833.413 1117.29 836.584 1096.61 844.258C1087.95 847.479 1079.22 850.6 1070.76 854.316C1065.28 856.729 1061.39 860.94 1061 868.403C1082.94 857.739 1105.74 852.629 1129.02 849.782C1158.03 846.227 1186.32 851.599 1214.12 859.062C1229.05 863.071 1243.46 869.039 1258.91 874.461Z" fill="#F5B7BA"/>
<path opacity="0.749" d="M1176.55 653.835C1248.97 666.715 1352.55 702.675 1371.45 729.801C1370.34 729.959 1369.12 730.408 1368.16 730.244C1313.38 721.367 1257.34 717.038 1201.38 712.211C1128.71 705.942 1056.35 698.432 983.903 691.263C975.679 690.45 967.786 688.335 959.727 686.812C961.36 678.106 969.634 674.969 977.65 671.809C994.811 665.042 1012.57 658.866 1029.16 651.536C1040.43 646.552 1051.9 643.9 1065.22 643.796C1102.27 643.5 1138.38 647.078 1176.55 653.835Z" fill="#373134"/>
</svg>
