<svg width="1716" height="2622" viewBox="0 0 1716 2622" fill="none" xmlns="http://www.w3.org/2000/svg">
<path d="M1245.64 910.913C1216.55 896.13 1186.78 885.426 1155.04 883.881C1104.14 881.397 1055.55 889.011 1016.97 926.757C1003.14 940.288 989.859 954.486 977.418 969.29C972.097 975.621 969.249 984.154 965.836 991.929C963.595 997.029 965.17 1001.67 969.471 1005.5C974.965 1010.4 977.994 1010.82 983.578 1005.84C988.495 1001.46 993.049 996.645 997.533 991.808C1015.5 972.41 1038.26 960.737 1062.84 952.88C1097.24 941.894 1132.49 937.643 1168.61 943.015C1206.79 948.7 1239.7 964.635 1266.1 992.879C1275.86 1003.33 1284.77 1014.75 1292.9 1026.55C1305.3 1044.53 1315.49 1063.72 1316.9 1085.97C1328.37 1087.33 1335.56 1081.14 1337.45 1068.9C1337.98 1065.45 1338.04 1061.94 1338.35 1058.46C1338.62 1055.38 1338.92 1052.31 1339.32 1048.09C1341.57 1049 1343.32 1050.23 1345.15 1050.36C1351.79 1050.84 1357 1045.22 1355.5 1038.31C1354.2 1032.31 1351.53 1026.6 1349.26 1020.84C1329.46 970.724 1293.64 935.663 1245.64 910.913Z" fill="#373134"/>
</svg>
