<svg width="1716" height="2622" viewBox="0 0 1716 2622" fill="none" xmlns="http://www.w3.org/2000/svg">
<path d="M648.607 2170.91C658.277 2187.51 675.897 2199.22 694.937 2201.73C628.707 2121.11 586.137 2021.3 573.777 1917.7C561.357 1813.57 578.867 1708.53 584.877 1603.83C590.887 1499.13 583.777 1388.48 528.227 1299.53C527.567 1352.84 526.947 1364.55 526.327 1376.25C526.177 1378.79 526.017 1381.34 525.867 1383.88L263.837 1149.46C355.367 1552 245.817 1650.86 204.457 1869.58C191.067 1940.38 189.557 2015.41 215.397 2082.67C241.237 2149.93 298.077 2208.02 370.447 2224.41C388.437 2224.63 406.427 2224.84 424.427 2225.05C399.957 2219.66 379.327 2199.61 373.227 2175.31C393.877 2201.34 423.977 2219.69 453.257 2227.03C485.087 2230.88 516.907 2234.74 548.737 2238.59C496.607 2200.24 480.987 2129.36 478.917 2064.69C476.277 1982.14 489.307 1900.36 501.347 1818.45C508.927 1960.13 549.197 2105.62 647.307 2207.72C658.357 2208.36 669.417 2209 680.467 2209.64C665.697 2201.07 654.167 2187.06 648.607 2170.91Z" fill="#DFCCB3"/>
<path d="M1093 1259.44C1021.29 1497.57 1027.51 1663.29 1045.58 1812.69C1055.88 1897.85 1082.3 2071.72 1145.65 2184.8C1154.83 2201.19 1168.06 2219.22 1186.84 2219.07C1180.7 2209.51 1174.56 2199.95 1168.42 2190.39C1193.59 2215.71 1234.25 2224.2 1264.85 2210.76C1152.31 2007.7 1120.2 1761.43 1176.91 1536.29C1159.84 1664.7 1168.05 1797.41 1209.6 1920.11C1251.15 2042.81 1326.97 2155.03 1430.39 2222.28C1455.71 2216.93 1481.04 2211.56 1506.35 2206.2C1491.71 2202.76 1477.97 2195.58 1466.8 2185.52C1492.49 2196.19 1520.89 2200.26 1548.54 2197.2C1443.95 2087.17 1406.2 1930.34 1386.86 1779.76C1358.82 1561.23 1360.92 1340.09 1366.83 1121.2C1300.69 1231.43 1131.24 1045.56 1093 1259.44Z" fill="#DFCCB3"/>
</svg>
