<svg width="1716" height="2622" viewBox="0 0 1716 2622" fill="none" xmlns="http://www.w3.org/2000/svg">
<path d="M1322.5 1067.13C1331.7 1037.98 1235.21 948.984 1138.73 948.984C1049.85 948.984 971.824 981.409 961.009 1065.11C940.127 1226.69 1087.74 1223.65 1138.73 1223.65C1264.86 1222.66 1287.37 1178.44 1322.5 1067.13Z" fill="#FAECE9"/>
<path d="M1209.5 1235.59C1224.49 1233.54 1237.81 1229.69 1250.43 1223.4C1266.28 1215.5 1275.64 1202.09 1282.35 1186.39C1283.08 1184.66 1283.69 1182.46 1283.24 1180.77C1282.72 1178.79 1281.33 1176.55 1279.64 1175.54C1278.61 1174.93 1275.89 1175.95 1274.68 1177.06C1271.26 1180.19 1268.22 1183.73 1265.05 1187.13C1250.49 1202.76 1232.14 1211.42 1211.55 1215.57C1198.65 1218.17 1185.59 1220.04 1172.6 1222.21C1168.58 1222.87 1163.11 1221.98 1163.62 1228.43C1164.06 1234.09 1168.38 1236.02 1173.57 1236C1185.19 1235.95 1196.81 1235.8 1209.5 1235.59Z" fill="#F5B7BA"/>
<path d="M1251.84 899.342C1275.19 910.4 1295.86 924.012 1315.57 939.25C1334.93 954.225 1350.35 972.876 1364.93 993.617C1370.18 985.953 1367.53 980.742 1364.6 975.703C1356.16 961.162 1345.49 948.419 1333.04 937.139C1282.02 890.92 1221.95 865.675 1153.57 860.081C1131.67 858.294 1110.22 861.465 1089.54 869.139C1080.88 872.36 1072.15 875.481 1063.69 879.197C1058.21 881.61 1054.32 885.821 1053.93 893.283C1075.87 882.62 1098.67 877.51 1121.96 874.663C1150.97 871.108 1179.25 876.48 1207.05 883.943C1221.98 887.952 1236.39 893.92 1251.84 899.342Z" fill="#F5B7BA"/>
<path opacity="0.749" d="M1169.55 654.835C1241.97 667.715 1345.55 703.675 1364.45 730.801C1363.34 730.959 1362.12 731.408 1361.16 731.244C1306.38 722.367 1250.34 718.038 1194.38 713.211C1121.71 706.942 1049.35 699.432 976.902 692.263C968.678 691.45 960.786 689.335 952.726 687.812C954.359 679.106 962.634 675.969 970.649 672.809C987.81 666.042 1005.56 659.866 1022.16 652.536C1033.43 647.552 1044.9 644.9 1058.22 644.796C1095.27 644.5 1131.38 648.078 1169.55 654.835Z" fill="#373134"/>
</svg>
