<svg width="1716" height="2622" viewBox="0 0 1716 2622" fill="none" xmlns="http://www.w3.org/2000/svg">
<path d="M1234.09 955.164C1205 940.381 1175.23 929.677 1143.48 928.132C1092.59 925.648 1044 933.261 1005.42 971.008C991.585 984.539 978.306 998.737 965.866 1013.54C960.545 1019.87 957.697 1028.4 954.284 1036.18C952.043 1041.28 953.618 1045.92 957.919 1049.75C963.412 1054.65 966.442 1055.07 972.026 1050.1C976.943 1045.71 981.497 1040.9 985.981 1036.06C1003.94 1016.66 1026.7 1004.99 1051.29 997.131C1085.68 986.145 1120.94 981.893 1157.05 987.266C1195.23 992.951 1228.15 1008.89 1254.55 1037.13C1264.31 1047.58 1273.22 1059 1281.35 1070.8C1293.75 1088.78 1303.93 1107.97 1305.35 1130.22C1316.82 1131.58 1324.01 1125.39 1325.9 1113.15C1326.43 1109.7 1326.49 1106.19 1326.8 1102.71C1327.07 1099.63 1327.37 1096.56 1327.76 1092.35C1330.02 1093.25 1331.76 1094.48 1333.6 1094.61C1340.24 1095.09 1345.45 1089.47 1343.95 1082.56C1342.65 1076.56 1339.98 1070.85 1337.71 1065.09C1317.91 1014.97 1282.08 979.914 1234.09 955.164Z" fill="#373134"/>
</svg>
