<svg width="39" height="30" viewBox="0 0 39 30" fill="none" xmlns="http://www.w3.org/2000/svg">
<path d="M8.02882 3.21429C7.2503 3.21429 6.58011 3.7433 6.4041 4.4933L3.85871 15.2879C5.24649 14.8728 7.12845 14.4643 9.18643 14.4643C11.373 14.4643 13.3701 14.9263 14.7917 15.3683C15.5093 15.5893 16.0982 15.817 16.5112 15.9844C16.7211 16.0714 16.8835 16.1451 17.0054 16.1987C17.0663 16.2254 17.1137 16.2455 17.1475 16.2656L17.1882 16.2857L17.2017 16.2924H17.2085C17.6011 16.4866 17.9125 16.7812 18.1224 17.1429H20.8709C21.0807 16.7879 21.3921 16.4866 21.7848 16.2924L22.2113 17.1429C21.7848 16.2924 21.7848 16.2924 21.7848 16.2924H21.7915L21.8051 16.2857L21.8457 16.2656C21.8795 16.2522 21.9269 16.2254 21.9879 16.1987C22.1097 16.1451 22.2722 16.0714 22.482 15.9844C22.895 15.8103 23.4839 15.5893 24.2015 15.3683C25.6232 14.9263 27.6134 14.4643 29.8068 14.4643C31.8648 14.4643 33.7467 14.8728 35.1345 15.2879L32.5891 4.4933C32.4131 3.7433 31.7362 3.21429 30.9644 3.21429C30.7546 3.21429 30.5447 3.25446 30.3416 3.33482L28.2227 4.17188C27.39 4.5 26.4423 4.09821 26.1106 3.27455C25.7789 2.45089 26.185 1.51339 27.0177 1.18527L29.1366 0.348214C29.7188 0.120536 30.3348 0 30.9644 0C33.2526 0 35.2361 1.56027 35.7573 3.76339L38.7292 16.3527C38.8443 16.8415 38.9255 17.3371 38.9662 17.8326C38.9865 17.9598 39 18.0871 39 18.2143V18.6629V21.4286V22.5C39 26.6451 35.6084 30 31.418 30H28.419C24.3978 30 21.0739 26.8929 20.8505 22.9152L20.7558 21.4286H18.2375L18.1562 22.9152C17.9328 26.8929 14.6089 30 10.581 30H7.58202C3.3916 30 0 26.6451 0 22.5V21.4286V18.6629V18.2143C0 18.0871 0.0135393 17.9598 0.0338483 17.8326C0.0744662 17.3371 0.155702 16.8415 0.270786 16.3527L3.24267 3.76339C3.75716 1.56027 5.74067 0 8.02882 0C8.65162 0 9.27443 0.120536 9.85662 0.348214L11.9755 1.18527C12.8082 1.51339 13.2144 2.45089 12.8827 3.27455C12.5509 4.09821 11.6032 4.5 10.7705 4.17188L8.65162 3.33482C8.4553 3.25446 8.24544 3.21429 8.02882 3.21429ZM4.33258 19.6473V22.5C4.33258 24.2746 5.78806 25.7143 7.58202 25.7143H10.581C12.3072 25.7143 13.7289 24.3817 13.8236 22.6808L13.9929 19.6272C13.8372 19.5737 13.6612 19.5134 13.4852 19.4598C12.3208 19.0982 10.7841 18.7567 9.17966 18.7567C7.57525 18.7567 6.05207 19.0982 4.90123 19.4598C4.69137 19.5268 4.50182 19.5871 4.32581 19.654L4.33258 19.6473ZM34.6607 22.5V19.6473C34.4846 19.5871 34.2883 19.5201 34.0852 19.4531C32.9344 19.0915 31.4112 18.75 29.8068 18.75C28.2024 18.75 26.6657 19.0915 25.5013 19.4531C25.3185 19.5067 25.1493 19.567 24.9936 19.6205L25.1628 22.6741C25.2576 24.375 26.686 25.7076 28.4055 25.7076H31.4044C33.1984 25.7076 34.6539 24.2679 34.6539 22.4933L34.6607 22.5Z" fill="white"/>
</svg>
