<svg width="37" height="37" viewBox="0 0 37 37" fill="none" xmlns="http://www.w3.org/2000/svg">
<path d="M25.5561 13.5617C26.1417 12.976 26.1417 12.0249 25.5561 11.4392C24.9704 10.8536 24.0193 10.8536 23.4336 11.4392L18.5 16.3776L13.5617 11.4439C12.976 10.8583 12.0249 10.8583 11.4392 11.4439C10.8536 12.0296 10.8536 12.9807 11.4392 13.5664L16.3776 18.5L11.4439 23.4383C10.8583 24.024 10.8583 24.9751 11.4439 25.5608C12.0296 26.1464 12.9807 26.1464 13.5664 25.5608L18.5 20.6224L23.4383 25.5561C24.024 26.1417 24.9751 26.1417 25.5608 25.5561C26.1464 24.9704 26.1464 24.0193 25.5608 23.4336L20.6224 18.5L25.5561 13.5617Z" fill="white"/>
</svg>
