<svg width="35" height="34" viewBox="0 0 35 34" fill="none" xmlns="http://www.w3.org/2000/svg">
<path d="M13.125 16.7481L10.4248 19.41C9.56348 19.0798 8.63379 18.9046 7.65625 18.9046C3.4248 18.9046 0 22.2809 0 26.4523C0 30.6238 3.4248 34 7.65625 34C11.8877 34 15.3125 30.6238 15.3125 26.4523C15.3125 25.4886 15.1279 24.5721 14.7998 23.723L17.5 21.0611L20.2002 23.723C19.8652 24.5721 19.6875 25.4886 19.6875 26.4523C19.6875 30.6238 23.1123 34 27.3438 34C31.5752 34 35 30.6238 35 26.4523C35 22.2809 31.5752 18.9046 27.3438 18.9046C26.3662 18.9046 25.4365 19.0866 24.5752 19.41L5.25 0.358852C4.76465 -0.119617 3.98535 -0.119617 3.5 0.358852C1.56543 2.266 1.56543 5.35246 3.5 7.2596L13.125 16.7481ZM23.4199 15.2251L31.5 7.2596C33.4346 5.35246 33.4346 2.266 31.5 0.358852C31.0146 -0.119617 30.2354 -0.119617 29.75 0.358852L19.0449 10.9121L23.4199 15.2251ZM7.65625 29.687C7.22535 29.687 6.79867 29.6034 6.40057 29.4408C6.00247 29.2782 5.64075 29.04 5.33606 28.7396C5.03136 28.4392 4.78967 28.0826 4.62477 27.6902C4.45987 27.2977 4.375 26.8771 4.375 26.4523C4.375 26.0275 4.45987 25.6069 4.62477 25.2144C4.78967 24.822 5.03136 24.4654 5.33606 24.165C5.64075 23.8646 6.00247 23.6264 6.40057 23.4638C6.79867 23.3013 7.22535 23.2176 7.65625 23.2176C8.08715 23.2176 8.51383 23.3013 8.91193 23.4638C9.31003 23.6264 9.67175 23.8646 9.97644 24.165C10.2811 24.4654 10.5228 24.822 10.6877 25.2144C10.8526 25.6069 10.9375 26.0275 10.9375 26.4523C10.9375 26.8771 10.8526 27.2977 10.6877 27.6902C10.5228 28.0826 10.2811 28.4392 9.97644 28.7396C9.67175 29.04 9.31003 29.2782 8.91193 29.4408C8.51383 29.6034 8.08715 29.687 7.65625 29.687ZM24.0625 26.4523C24.0625 26.0275 24.1474 25.6069 24.3123 25.2144C24.4772 24.822 24.7189 24.4654 25.0236 24.165C25.3282 23.8646 25.69 23.6264 26.0881 23.4638C26.4862 23.3013 26.9128 23.2176 27.3438 23.2176C27.7747 23.2176 28.2013 23.3013 28.5994 23.4638C28.9975 23.6264 29.3593 23.8646 29.6639 24.165C29.9686 24.4654 30.2103 24.822 30.3752 25.2144C30.5401 25.6069 30.625 26.0275 30.625 26.4523C30.625 26.8771 30.5401 27.2977 30.3752 27.6902C30.2103 28.0826 29.9686 28.4392 29.6639 28.7396C29.3593 29.04 28.9975 29.2782 28.5994 29.4408C28.2013 29.6034 27.7747 29.687 27.3438 29.687C26.9128 29.687 26.4862 29.6034 26.0881 29.4408C25.69 29.2782 25.3282 29.04 25.0236 28.7396C24.7189 28.4392 24.4772 28.0826 24.3123 27.6902C24.1474 27.2977 24.0625 26.8771 24.0625 26.4523Z" fill="white"/>
</svg>
