<svg width="38" height="30" viewBox="0 0 38 30" fill="none" xmlns="http://www.w3.org/2000/svg">
<path d="M12.5757 0C13.0389 0 13.4248 0.333984 13.5673 0.773438C14.2976 3.04102 16.4529 4.6875 19 4.6875C21.5471 4.6875 23.7024 3.04102 24.4327 0.773438C24.5752 0.333984 24.9611 0 25.4243 0H26.1724C27.5083 0 28.7967 0.462891 29.8239 1.30664L37.3169 7.46484C37.7087 7.78711 37.9522 8.25586 37.9937 8.75977C38.0353 9.26367 37.869 9.76172 37.5306 10.1426L34.2057 13.8926C33.5288 14.6602 32.3532 14.748 31.5576 14.0977L28.4998 11.584V26.25C28.4998 28.3184 26.7958 30 24.6999 30H13.3001C11.2042 30 9.50017 28.3184 9.50017 26.25V11.584L6.44241 14.0977C5.65273 14.748 4.47713 14.6602 3.79433 13.8926L0.469387 10.1426C0.130956 9.76172 -0.0352914 9.26367 0.00627036 8.75977C0.0478321 8.25586 0.291265 7.78711 0.683133 7.46484L8.17613 1.30664C9.2033 0.462891 10.4917 0 11.8276 0H12.5757Z" fill="white"/>
</svg>
