<svg width="1716" height="2622" viewBox="0 0 1716 2622" fill="none" xmlns="http://www.w3.org/2000/svg">
<path fill-rule="evenodd" clip-rule="evenodd" d="M905.138 1336.04C909.852 1338.92 911.341 1345.08 908.464 1349.79C900.492 1362.85 886.721 1371.19 871.762 1376.18C856.679 1381.22 839.307 1383.25 822.431 1382.92C805.541 1382.59 788.631 1379.89 774.389 1375.09C760.54 1370.42 747.535 1363.19 740.644 1352.59C737.634 1347.96 738.948 1341.77 743.579 1338.76C748.209 1335.75 754.403 1337.06 757.413 1341.69C760.607 1346.6 768.369 1351.95 780.781 1356.14C792.8 1360.19 807.646 1362.63 822.82 1362.93C838.009 1363.22 853.011 1361.36 865.425 1357.21C877.962 1353.03 886.81 1346.88 891.393 1339.37C894.27 1334.66 900.424 1333.17 905.138 1336.04Z" fill="#EB838A"/>
</svg>
