<svg width="382" height="275" viewBox="0 0 382 275" fill="none" xmlns="http://www.w3.org/2000/svg">
<path d="M4.43804 97.0088C-0.191756 86.3313 -3.52157 69.3828 7.3963 53.4373C43.0845 1.3238 139.501 2.09517 169.252 0.868524C278.21 -3.62479 355.999 23.1611 374.845 62.2044C381.143 75.2646 391.085 110.895 362.069 144.647C342.969 166.873 345.321 183.391 345.309 190.094C345.289 201.236 344.007 211.904 339.013 222.147C325.398 250.04 289.144 263.866 260.363 268.18C145.898 285.362 75.3783 260.296 56.6672 251.01C28.8021 237.184 20.6192 221.644 19.6326 215.172C17.4778 201.057 23.2169 189.225 29.763 177.484C33.5908 170.608 37.5983 163.721 36.2883 155.235C35.0123 146.977 31.0586 139.985 26.3539 133.33C22.2637 127.549 10.6198 111.278 4.43804 97.0088Z" fill="#A85C56"/>
</svg>
