<svg width="100" height="100" viewBox="0 0 100 100" fill="none" xmlns="http://www.w3.org/2000/svg">
<path d="M76.8592 68.8905C76.3167 67.0213 75.7742 65.1522 75.2299 63.2828C74.2626 59.9543 73.2972 56.626 72.3298 53.2994C71.9575 52.0148 71.5741 50.7081 70.8343 49.5932C69.1863 47.1119 66.1452 46.0593 63.4884 44.7113C60.3594 43.1245 57.5408 40.9245 54.3455 38.1872C54.3493 38.1876 54.353 38.188 54.3551 38.1863C54.9469 37.2234 55.5384 36.2623 56.13 35.3012C56.1597 35.2529 56.1894 35.2046 56.2191 35.1563C56.2385 35.2268 56.26 35.2956 56.2833 35.3645C57.4127 35.5586 58.5727 35.5845 59.7103 35.4388C61.8407 35.1686 63.856 34.3157 65.7583 33.3199C70.1705 31.0102 74.1478 27.8756 77.4253 24.1269C75.1645 19.9976 72.3491 16.1729 69.0778 12.7866C68.0605 11.5936 66.4273 10.9502 65.4827 11.6809C64.9493 12.0942 64.7049 12.7693 64.4777 13.4063C62.6113 18.6092 60.042 23.5591 56.8674 28.0852C56.3506 27.5964 55.68 27.2706 55.0081 27.2168C52.5481 26.5455 49.9476 26.4097 47.4277 26.8225C46.9573 26.8998 46.4703 27.0096 46.0452 27.2209C41.9134 21.3182 37.9527 15.473 33.992 9.62778C32.3461 8.73753 30.7658 9.87676 29.53 10.9962C27.5554 12.7876 25.7024 14.7113 23.9857 16.7518C23.4804 17.3544 22.9709 17.9985 22.8063 18.7675C22.4365 20.5144 23.9275 22.0605 25.337 23.1586C31.2729 27.7814 38.2358 31.075 45.5709 32.7457C45.9719 34.1588 46.4043 35.5619 46.8641 36.9583C41.8533 41.743 34.5835 45.0493 30.6977 50.7564C27.6298 55.2631 27.1318 60.9814 26.7275 66.4182C26.2385 72.9937 25.7514 79.5694 25.9415 85.8513C26.8081 86.3437 27.6726 86.8378 28.5392 87.3302C28.9314 86.8282 29.4784 86.4486 30.0817 85.5592C35.1183 80.838 40.2999 75.909 42.9233 69.5242C44.2833 66.214 48.6205 52.7402 50.7101 43.568C50.8514 45.2494 51.0622 46.9209 51.3772 48.5783C52.2417 53.1103 53.9253 57.5608 56.8281 61.1452C61.5834 67.0169 68.9856 69.9427 75.2354 74.4551C76.336 74.336 77.1342 73.2534 77.3036 72.1596C77.4814 71.0589 77.1687 69.9536 76.8592 68.8905Z" fill="#983122"/>
</svg>
