<svg width="100" height="100" viewBox="0 0 100 100" fill="none" xmlns="http://www.w3.org/2000/svg">
<g opacity="0.33">
<path d="M80.5569 37.0283L56.8354 60.7498C57.182 61.106 57.5492 61.4387 57.9316 61.752L81.9305 37.7531C81.4998 37.4922 81.0387 37.252 80.5569 37.0283Z" fill="#DCEFF9"/>
<path d="M70.9718 35H68.9093H66.8469C59.0414 35 55.6149 36.6787 53.1645 40.3136C52.1457 41.8239 51.929 44.2909 51.929 45.6631C51.929 49.316 52.4439 52.5533 53.4655 55.2798L73.5866 35.1588C72.6782 35.0538 71.7946 35 70.9718 35Z" fill="#DCEFF9"/>
<path d="M67.319 64.8828C67.6504 64.8883 68.3917 64.9159 68.9094 64.9352C69.4271 64.9159 70.1684 64.8883 70.4998 64.8828C80.6742 64.7047 85.6648 57.2443 85.8898 45.6632C85.916 44.2909 85.4605 41.6859 84.6542 40.3136C84.6473 40.3012 84.6377 40.2888 84.6308 40.2764L61.2089 63.6969C62.9925 64.4355 65.0301 64.8427 67.319 64.8828Z" fill="#DCEFF9"/>
<path d="M73.5867 35.1592L53.4656 55.2803C54.2732 57.4366 55.3983 59.2755 56.8354 60.7485L80.5569 37.027C78.4599 36.0565 75.9404 35.4325 73.5867 35.1592Z" fill="white"/>
<path d="M84.6294 40.2765C84.0454 39.3019 83.0984 38.4598 81.9305 37.7529L57.9315 61.7519C58.9062 62.5457 59.9995 63.1973 61.2075 63.6984L84.6294 40.2765Z" fill="white"/>
</g>
<g opacity="0.33">
<path d="M41.8084 37.0283L18.0856 60.7498C18.4321 61.106 18.7993 61.4387 19.1817 61.752L43.1821 37.7531C42.7513 37.4922 42.2902 37.252 41.8084 37.0283Z" fill="#DCEFF9"/>
<path d="M32.2221 35H30.1596H28.0971C20.2916 35 16.8652 36.6787 14.4148 40.3136C13.3959 41.8239 13.1792 44.2909 13.1792 45.6631C13.1792 49.316 13.6941 52.5533 14.7157 55.2798L34.8382 35.1588C33.9298 35.0538 33.0463 35 32.2221 35Z" fill="#DCEFF9"/>
<path d="M28.5707 64.8828C28.902 64.8883 29.6433 64.9159 30.161 64.9352C30.6787 64.9159 31.4201 64.8883 31.7514 64.8828C41.9258 64.7047 46.9164 57.2443 47.1414 45.6632C47.1677 44.2909 46.7121 41.6859 45.9059 40.3136C45.899 40.3012 45.8893 40.2888 45.8824 40.2764L22.4591 63.6969C24.2441 64.4355 26.2804 64.8427 28.5707 64.8828Z" fill="#DCEFF9"/>
<path d="M34.8382 35.1592L14.7157 55.2803C15.5233 57.4366 16.6484 59.2755 18.0855 60.7485L41.807 37.027C39.7114 36.0565 37.1906 35.4325 34.8382 35.1592Z" fill="white"/>
<path d="M45.881 40.2765C45.297 39.3019 44.35 38.4598 43.1821 37.7529L19.1831 61.7519C20.1578 62.5457 21.2511 63.1973 22.4591 63.6984L45.881 40.2765Z" fill="white"/>
</g>
<g filter="url(#filter0_d_558_1053)">
<path d="M90.5394 44.6802H85.8456C85.7131 43.2707 85.2948 41.4042 84.6543 40.3136C82.5849 36.7919 75.7734 35 70.9719 35H68.9094H66.8469C59.0415 35 55.615 36.6787 53.1646 40.3136C52.1458 41.8239 51.929 44.2909 51.929 45.6631C51.929 46.1146 51.9373 46.5605 51.9539 46.9995C51.2443 46.9015 50.4036 46.8476 49.5228 46.8476C48.6392 46.8476 47.7957 46.9015 47.0848 47.0009C47.1082 46.5619 47.1248 46.1159 47.1345 45.6631C47.1607 44.2909 46.7051 41.6859 45.8989 40.3136C43.8295 36.7919 37.018 35 32.2166 35H30.1541H28.0916C20.2861 35 16.8597 36.6787 14.4093 40.3136C13.603 41.5092 13.2993 43.3038 13.2082 44.6802H8.46059C7.65299 44.6802 7 45.3346 7 46.1408V47.7339C7 48.5415 7.65437 49.1945 8.46059 49.1945H13.3476C14.3278 58.7739 19.462 64.7226 28.5637 64.8827C28.895 64.8883 29.6364 64.9159 30.1541 64.9352C30.6718 64.9159 31.4131 64.8883 31.7444 64.8827C40.5522 64.7281 45.4737 59.1163 46.7838 50.0987C46.7866 50.0946 46.7907 50.0918 46.7935 50.0877C47.1966 49.9759 48.116 49.8295 49.5228 49.8295C50.8812 49.8295 51.7827 49.9662 52.2065 50.0753C53.4062 59.137 58.4989 64.7281 67.3191 64.8814C67.6504 64.8869 68.3917 64.9145 68.9094 64.9338C69.4271 64.9145 70.1685 64.8869 70.4998 64.8814C79.5988 64.7226 84.5507 58.738 85.6579 49.1931H90.5394C91.347 49.1931 92 48.5388 92 47.7325V46.1408C92 45.3346 91.347 44.6802 90.5394 44.6802ZM40.8007 57.7385C39.8025 59.0459 38.567 60.0551 37.1285 60.7398C35.5864 61.4742 33.7572 61.8649 31.692 61.9008C31.4242 61.905 30.9065 61.9229 30.1541 61.9505C29.4017 61.9215 28.884 61.905 28.6162 61.9008C24.5892 61.8304 21.4927 60.4319 19.4123 57.7427C17.2821 54.9899 16.1556 50.8125 16.1556 45.6631C16.1556 44.1528 16.4607 42.6039 16.8818 41.9799C17.8606 40.5276 18.9042 39.6524 20.3703 39.0532C22.136 38.3312 24.661 37.9805 28.0916 37.9805H30.1541H32.2166C34.4144 37.9805 36.9904 38.4182 39.1054 39.1512C41.1913 39.8746 42.7707 40.8727 43.327 41.8211C43.7757 42.5846 44.1719 44.5988 44.1526 45.6038C44.0518 50.8042 42.8921 54.9996 40.8007 57.7385ZM79.556 57.7385C78.5579 59.0459 77.3223 60.0551 75.8838 60.7398C74.3418 61.4742 72.5126 61.8649 70.4473 61.9008C70.1795 61.905 69.6618 61.9229 68.9094 61.9505C68.157 61.9215 67.6393 61.905 67.3715 61.9008C63.3445 61.8304 60.248 60.4319 58.1676 57.7427C56.0375 54.9899 54.9109 50.8125 54.9109 45.6631C54.9109 44.1528 55.216 42.6039 55.6371 41.9799C56.6159 40.5276 57.6596 39.6524 59.1257 39.0532C60.8914 38.3312 63.4163 37.9805 66.8469 37.9805H68.9094H70.9719C73.1697 37.9805 75.7458 38.4182 77.8607 39.1512C79.9467 39.8746 81.526 40.8727 82.0823 41.8211C82.531 42.5846 82.9272 44.5988 82.9079 45.6024C82.8071 50.8042 81.6475 54.9996 79.556 57.7385Z" fill="#F4F4F4"/>
</g>
<defs>
<filter id="filter0_d_558_1053" x="3" y="35" width="93" height="37.9355" filterUnits="userSpaceOnUse" color-interpolation-filters="sRGB">
<feFlood flood-opacity="0" result="BackgroundImageFix"/>
<feColorMatrix in="SourceAlpha" type="matrix" values="0 0 0 0 0 0 0 0 0 0 0 0 0 0 0 0 0 0 127 0" result="hardAlpha"/>
<feOffset dy="4"/>
<feGaussianBlur stdDeviation="2"/>
<feComposite in2="hardAlpha" operator="out"/>
<feColorMatrix type="matrix" values="0 0 0 0 0 0 0 0 0 0 0 0 0 0 0 0 0 0 0.25 0"/>
<feBlend mode="normal" in2="BackgroundImageFix" result="effect1_dropShadow_558_1053"/>
<feBlend mode="normal" in="SourceGraphic" in2="effect1_dropShadow_558_1053" result="shape"/>
</filter>
</defs>
</svg>
