<svg width="100" height="100" viewBox="0 0 100 100" fill="none" xmlns="http://www.w3.org/2000/svg">
<path d="M88.4499 52.7856C86.6082 53.1279 82.8928 53.4451 81.3692 52.3961C79.4224 51.0551 78.061 49.0576 76.5183 47.2769C74.3457 44.7644 71.6992 42.5974 68.6264 41.2877C65.5536 39.9781 62.0291 39.5761 58.8196 40.5088C55.3874 41.5075 52.55 43.9321 50.2533 46.6425C50.1611 46.7524 50.0752 46.8655 49.9989 46.9817C49.9225 46.8686 49.8398 46.7555 49.7444 46.6425C47.4478 43.9321 44.6104 41.5075 41.1781 40.5088C37.9686 39.5761 34.4441 39.9781 31.3714 41.2877C28.2986 42.5974 25.6552 44.7644 23.4795 47.2769C21.9367 49.0608 20.5785 51.0551 18.6286 52.3961C17.1017 53.4451 13.3896 53.1279 11.5478 52.7856C11.1057 52.7039 10.8194 53.2378 11.1311 53.5582C13.3514 55.8351 18.2246 57.9739 21.3737 58.7747C28.7089 60.6466 36.7344 60.5146 43.6116 57.3772C45.5901 56.4758 47.505 55.2886 48.7774 53.5424C49.1973 52.9646 49.6522 52.2516 50.0021 51.479C50.352 52.2516 50.8068 52.9646 51.2267 53.5424C52.4991 55.2886 54.414 56.4758 56.3925 57.3772C63.2697 60.5146 71.2952 60.6497 78.6304 58.7747C81.7763 57.9707 86.6527 55.8351 88.873 53.5582C89.1783 53.2378 88.8921 52.7039 88.4499 52.7856Z" fill="#383332"/>
</svg>
