<svg width="100" height="100" viewBox="0 0 100 100" fill="none" xmlns="http://www.w3.org/2000/svg">
<path fill-rule="evenodd" clip-rule="evenodd" d="M38.8125 48.5203C41.0578 49.3933 42.1702 51.9211 41.2972 54.1663L31.505 79.3514C30.632 81.5966 28.1042 82.709 25.859 81.8361C23.6138 80.9631 22.5013 78.4353 23.3743 76.1901L33.1666 51.005C34.0395 48.7598 36.5673 47.6473 38.8125 48.5203Z" fill="#E3E3E3"/>
<path d="M17.5427 29.6514C21.1562 29.6514 24.0854 32.5811 24.0854 36.1945C24.0853 39.8079 21.1561 42.7372 17.5427 42.7372C13.9293 42.7372 11.0001 39.8079 11 36.1945C11 32.5811 13.9293 29.6514 17.5427 29.6514Z" fill="#E3E3E3"/>
<path fill-rule="evenodd" clip-rule="evenodd" d="M51.5056 27.8251C53.7928 27.069 56.26 28.3102 57.0161 30.5974L63.3232 49.676C64.0794 51.9632 62.8382 54.4303 60.551 55.1864C58.2637 55.9426 55.7966 54.7014 55.0405 52.4142L48.7333 33.3356C47.9772 31.0484 49.2184 28.5813 51.5056 27.8251Z" fill="#E3E3E3"/>
<path fill-rule="evenodd" clip-rule="evenodd" d="M71.0397 17.7036C73.0603 16.3921 75.7616 16.9669 77.0731 18.9876L88.0126 35.8416C89.3241 37.8623 88.7493 40.5635 86.7286 41.8751C84.708 43.1866 82.0068 42.6117 80.6952 40.5911L69.7558 23.7371C68.4442 21.7164 69.0191 19.0152 71.0397 17.7036Z" fill="#E3E3E3"/>
</svg>
