<svg width="100" height="100" viewBox="0 0 100 100" fill="none" xmlns="http://www.w3.org/2000/svg">
<g opacity="0.2">
<path d="M30.0743 65.3795C38.5173 65.3795 45.3625 58.5039 45.3625 50.0224C45.3625 47.7939 44.8901 45.6783 44.0403 43.7666L23.7841 64.0242C25.7027 64.8947 27.832 65.3795 30.0743 65.3795Z" fill="#DCE8EF"/>
<path d="M30.0743 34.665C21.6313 34.665 14.786 41.5406 14.786 50.0222C14.786 50.7948 14.8439 51.5551 14.9527 52.2961L32.4061 34.8427C31.6472 34.7256 30.8676 34.665 30.0743 34.665Z" fill="#DCE8EF"/>
<path d="M40.2486 38.5605L18.6191 60.1914C19.0502 60.6817 19.5116 61.1431 20.002 61.5742L41.6204 39.9558C41.1934 39.4613 40.7348 38.9958 40.2486 38.5605Z" fill="#DCE8EF"/>
<path d="M20.0018 61.5745C21.1285 62.5675 22.4025 63.3967 23.7853 64.0247L44.0416 43.7685C43.4232 42.376 42.6037 41.0923 41.6203 39.9561L20.0018 61.5745Z" fill="white"/>
<path d="M32.4074 34.8428L14.954 52.2976C15.3975 55.3001 16.7073 58.019 18.619 60.191L40.2485 38.5602C38.0944 36.6305 35.3934 35.3028 32.4074 34.8428Z" fill="white"/>
</g>
<g opacity="0.2">
<path d="M69.1869 34.6455C60.744 34.6455 53.8987 41.5211 53.8987 50.0026C53.8987 50.7753 53.9565 51.5356 54.0653 52.2766L71.5188 34.8232C70.7585 34.7061 69.9803 34.6455 69.1869 34.6455Z" fill="#DCE8EF"/>
<path d="M69.1871 65.36C77.6301 65.36 84.4753 58.4844 84.4753 50.0029C84.4753 47.7744 84.0029 45.6588 83.1531 43.7471L62.8969 64.0047C64.8141 64.8752 66.9448 65.36 69.1871 65.36Z" fill="#DCE8EF"/>
<path d="M79.3599 38.541L57.7305 60.1718C58.1616 60.6622 58.623 61.1236 59.1133 61.5547L80.7317 39.9362C80.3048 39.4418 79.8461 38.9762 79.3599 38.541Z" fill="#DCE8EF"/>
<path d="M59.1133 61.554C60.2399 62.547 61.514 63.3762 62.8968 64.0042L83.1531 43.748C82.5346 42.3555 81.7151 41.0718 80.7317 39.9355L59.1133 61.554Z" fill="white"/>
<path d="M71.5187 34.8232L54.0653 52.278C54.5088 55.2806 55.8186 57.9994 57.7304 60.1715L79.3598 38.5406C77.2057 36.611 74.5047 35.2833 71.5187 34.8232Z" fill="white"/>
</g>
<path d="M91.2301 45.7595H85.9122C85.1423 42.8299 83.5777 40.1455 81.323 37.9556C78.0326 34.7602 73.6651 33 69.0235 33C64.382 33 60.0145 34.7602 56.724 37.9556C53.8124 40.7846 52.0508 44.4373 51.6665 48.3792C51.0453 48.2538 50.336 48.1877 49.5482 48.1877C48.7604 48.1877 48.0511 48.2538 47.4299 48.3792C47.0456 44.4373 45.284 40.7846 42.3724 37.9556C39.0819 34.7602 34.7145 33 30.0729 33C25.4313 33 21.0638 34.7602 17.7734 37.9556C15.5187 40.1455 13.9541 42.8299 13.1842 45.7595H7.76992C7.34433 45.7595 7 46.1038 7 46.5294V48.7083C7 49.1339 7.34433 49.4783 7.76992 49.4783H12.6456C12.6401 49.6601 12.636 49.8405 12.636 50.0237C12.636 54.5867 14.4609 58.873 17.7734 62.0918C21.0638 65.2872 25.4313 67.0474 30.0729 67.0474C34.7145 67.0474 39.0819 65.2872 42.3724 62.0918C45.335 59.2132 47.1062 55.482 47.4478 51.4616C47.7894 51.3294 48.5083 51.1627 49.5482 51.1627C50.5881 51.1627 51.307 51.3294 51.6486 51.4616C51.9902 55.482 53.7614 59.2132 56.724 62.0904C60.0145 65.2858 64.382 67.046 69.0235 67.046C73.6651 67.046 78.0326 65.2858 81.323 62.0904C84.6368 58.8716 86.4604 54.5867 86.4604 50.0223C86.4604 49.8405 86.4563 49.6587 86.4508 49.4769H91.2301C91.6557 49.4769 92 49.1326 92 48.707V46.528C92 46.1038 91.6557 45.7595 91.2301 45.7595ZM30.0743 64.071C22.0872 64.071 15.6124 57.7808 15.6124 50.0223C15.6124 42.2639 22.0872 35.9736 30.0743 35.9736C38.0613 35.9736 44.5361 42.2639 44.5361 50.0223C44.5361 50.2344 44.5306 50.4438 44.521 50.6531C44.5031 50.7688 44.4934 50.8886 44.4934 51.0112C44.4934 51.0319 44.4962 51.0525 44.4962 51.0732C43.9425 58.3427 37.6977 64.071 30.0743 64.071ZM69.0249 64.071C61.4014 64.071 55.1567 58.3413 54.603 51.0732C54.6043 51.0525 54.6057 51.0333 54.6057 51.0126C54.6057 50.89 54.5961 50.7702 54.5782 50.6545C54.5685 50.4451 54.563 50.2344 54.563 50.0223C54.563 42.2639 61.0378 35.9736 69.0249 35.9736C77.012 35.9736 83.4868 42.2639 83.4868 50.0223C83.4868 57.7808 77.012 64.071 69.0249 64.071Z" fill="#3C3328"/>
</svg>
