<svg width="100" height="100" viewBox="0 0 100 100" fill="none" xmlns="http://www.w3.org/2000/svg">
<path d="M33.9857 31.6951C34.4603 29.9407 36.2211 28.8818 37.9721 29.264L38.1415 29.3056L68.9657 37.6944L69.1325 37.7446C70.836 38.3025 71.8221 40.1088 71.3477 41.8632C70.8732 43.6178 69.1121 44.6767 67.361 44.2944L67.1915 44.2531L36.3677 35.8639L36.2005 35.8141C34.497 35.2562 33.5112 33.4496 33.9857 31.6951Z" fill="#983122"/>
<path d="M38.2532 16.509C38.7311 14.7546 40.5044 13.6957 42.2678 14.0779L42.4385 14.1195L73.4813 22.5083L73.6493 22.5585C75.3649 23.1163 76.358 24.9226 75.8802 26.6771C75.4023 28.4316 73.6287 29.4906 71.8652 29.1082L71.6946 29.0669L40.6521 20.6778L40.4837 20.628C38.7682 20.0701 37.7753 18.2635 38.2532 16.509Z" fill="#983122"/>
<path d="M63.6202 60.194C62.7588 58.5198 60.7072 57.8645 59.041 58.7282L44.6498 66.1749L33.198 54.6942C31.8681 53.3647 29.7183 53.3647 28.3884 54.6942C27.0622 56.0237 27.0622 58.1827 28.3884 59.516L38.3062 69.4589L25.8419 75.9057C24.1719 76.7693 23.5183 78.826 24.3797 80.4964C24.9842 81.6706 26.1743 82.3448 27.406 82.3448C27.9312 82.3448 28.4639 82.2236 28.9627 81.9661L43.3577 74.5193L54.8094 86C55.4744 86.6667 56.3434 87 57.2124 87C58.0813 87 58.9541 86.6667 59.6153 86C60.9414 84.6705 60.9414 82.5115 59.6153 81.1782L49.6975 71.2353L62.1618 64.7886C63.828 63.925 64.4816 61.8682 63.6202 60.194Z" fill="#983122"/>
</svg>
