<svg width="100" height="100" viewBox="0 0 100 100" fill="none" xmlns="http://www.w3.org/2000/svg">
<path d="M14.2417 46.0733C25.4202 24.1076 52.0807 17.8459 72.4948 29.089C87.2112 37.195 93.7331 56.5859 92.5149 74.9023C92.4288 76.1893 91.6778 76.7201 90.2988 76.7007C89.3071 76.6868 88.6482 76.0253 88.4865 74.3754C87.1925 61.2549 83.9369 47.0804 73.0777 38.6278C61.4831 29.6028 47.7975 28.8263 34.5915 34.5331C21.628 40.1354 15.4965 53.9872 12.5492 67.8483C11.0661 74.8216 11.0728 76.03 9.1892 75.8364C7.56836 75.6702 7.20492 73.9702 7.31928 72.3538C7.98549 62.9183 9.8208 54.7623 14.2417 46.0733Z" fill="#907B77"/>
</svg>
