<svg width="1716" height="2622" viewBox="0 0 1716 2622" fill="none" xmlns="http://www.w3.org/2000/svg">
<path d="M599.12 1795.72C473.73 1801.84 348.71 1815.61 224.99 1836.94C178.28 1844.99 126.75 1857.3 102.03 1895.21C52.9901 1973.6 22.7301 2063.65 11.3301 2151.83C87.5101 2332.51 632.29 2627.42 766.53 2620.94C997.87 2609.76 1722.81 2286.71 1715.64 2201.84C1711.45 2152.24 1656.15 1974.58 1586.71 1943.48C1472.7 1892.42 1278.11 1864.74 1098.22 1825.71C1043.01 1840.6 987.27 1854.64 930.33 1859.93C820.41 1870.14 707.59 1846.61 599.12 1795.72Z" fill="#3B3531"/>
<path d="M866.89 1896.86C860.11 1896.86 853.47 1896.73 847.02 1896.46C803.14 1894.62 745.58 1882.92 696.82 1865.92C648.19 1848.97 614.43 1829.6 596.06 1808.16C589.21 1800.16 592.03 1787.8 601.6 1783.39L621.73 1774.11C627.67 1771.38 634.71 1772.46 639.44 1776.98C649.69 1786.77 672.23 1801.22 714.27 1815.87C758.47 1831.28 810.18 1841.87 849.24 1843.5C931.99 1846.97 1029.75 1826.55 1062.47 1800.69C1067.96 1796.35 1075.63 1796.1 1081.4 1800.06L1099.31 1812.38C1107.82 1818.23 1108.6 1830.48 1100.94 1837.41C1079.4 1856.9 1043.93 1872.19 995.12 1882.99C954.87 1891.89 908.32 1896.86 866.89 1896.86Z" fill="#3B3531"/>
</svg>
