<svg width="1716" height="2622" viewBox="0 0 1716 2622" fill="none" xmlns="http://www.w3.org/2000/svg">
<path d="M599.199 1795.72C473.809 1801.84 348.789 1815.61 225.069 1836.94C178.359 1844.99 126.829 1857.3 102.109 1895.21C53.0687 1973.6 22.8087 2063.65 11.4087 2151.83C87.5887 2332.51 632.369 2627.42 766.609 2620.94C997.949 2609.76 1722.89 2286.71 1715.72 2201.84C1711.53 2152.24 1656.23 1974.58 1586.79 1943.48C1472.78 1892.42 1278.19 1864.74 1098.3 1825.71C1043.09 1840.6 987.349 1854.64 930.409 1859.93C820.489 1870.14 707.669 1846.61 599.199 1795.72Z" fill="#E1E8F2"/>
<path d="M866.969 1896.86C860.189 1896.86 853.549 1896.73 847.099 1896.46C803.219 1894.62 745.659 1882.92 696.899 1865.92C648.269 1848.97 614.509 1829.6 596.139 1808.16C589.289 1800.16 592.109 1787.8 601.679 1783.39L621.809 1774.11C627.749 1771.38 634.789 1772.46 639.519 1776.98C649.769 1786.77 672.309 1801.22 714.349 1815.87C758.549 1831.28 810.259 1841.87 849.319 1843.5C932.069 1846.97 1029.83 1826.55 1062.55 1800.69C1068.04 1796.35 1075.71 1796.1 1081.48 1800.06L1099.39 1812.38C1107.9 1818.23 1108.68 1830.48 1101.02 1837.41C1079.48 1856.9 1044.01 1872.19 995.199 1882.99C954.949 1891.89 908.399 1896.86 866.969 1896.86Z" fill="#E1E8F2"/>
</svg>
