<svg width="1716" height="2622" viewBox="0 0 1716 2622" fill="none" xmlns="http://www.w3.org/2000/svg">
<path d="M638.569 1820.99C703.239 1792.31 682.569 1514.15 682.569 1514.15C682.569 1422.52 755.429 1363.49 844.069 1363.49C932.709 1363.49 1004.57 1435.35 1004.57 1523.99C1004.57 1523.99 976.909 1818.38 1069.57 1876.99C1245.16 1988.06 1083.02 2082.49 803.039 2082.49C450.799 2082.48 386.889 1932.61 638.569 1820.99Z" fill="#F4D8D3"/>
<mask id="mask0_480_638" style="mask-type:luminance" maskUnits="userSpaceOnUse" x="515" y="1358" width="553" height="421">
<path d="M871.472 1737.86C1017.32 1669.06 1099.84 1537.57 1055.78 1444.17C1011.72 1350.77 857.774 1330.82 711.924 1399.61C566.074 1468.41 483.555 1599.9 527.613 1693.3C571.671 1786.71 725.622 1806.66 871.472 1737.86Z" fill="white"/>
</mask>
<g mask="url(#mask0_480_638)">
<path d="M638.569 1820.99C703.239 1792.31 682.569 1514.15 682.569 1514.15C682.569 1422.52 755.429 1363.49 844.069 1363.49C932.709 1363.49 1004.57 1435.35 1004.57 1523.99C1004.57 1523.99 976.909 1818.38 1069.57 1876.99C1245.16 1988.06 1083.02 2082.49 803.039 2082.49C450.799 2082.48 386.889 1932.61 638.569 1820.99Z" fill="#F5B7BA"/>
</g>
</svg>
