<?xml version="1.0" encoding="utf-8"?>
<!-- Generator: Adobe Adobe Illustrator 24.2.0, SVG Export Plug-In . SVG Version: 6.00 Build 0)  -->
<svg version="1.1" id="Layer_1" xmlns="http://www.w3.org/2000/svg" xmlns:xlink="http://www.w3.org/1999/xlink" x="0px" y="0px"
	 width="4568px" height="4568px" viewBox="0 0 4568 4568" style="enable-background:new 0 0 4568 4568;" xml:space="preserve">
<style type="text/css">
	.st0{fill:#A0A0D3;}
</style>
<g>
	<path class="st0" d="M2683.89,1520.38c-123.41,395.22-234.27,806.05-359.02,1198.82c-49.06,154.46-108.65,349.11-172.26,498.2
		c-24.24,56.8-309.22,45.53-399.85,19.83c-73.07-20.72-179.07-178.03-242.9-280.24c-135.34-216.74-274.03-431.87-409.53-648.86
		c-5.07-8.11-10.76-15.83-16.16-23.73c-3.01,8.69-7.28,17.17-8.83,26.11c-66.03,380.74-134.04,761.17-196.01,1142.58
		c-17.88,110.04-29.58,350.71-92.6,345.99c-149.36-11.19-298.71-27.06-446.96-49.09c-51.89-7.71-79.11-49.36-74.04-106.82
		c25.43-288.42,74.35-536.73,122.91-831.86c63.27-384.58,139.91-756.98,227.55-1136.63c120.19-520.67,156.46-589.13,220.1-618.26
		c96.13-43.99,213.74-43.49,316.16-19.83c107.45,24.83,107.91,85.56,465.66,904.41c68.66,157.15,133.76,315.85,200.61,473.78
		c2.1,4.95,5.87,9.19,8.87,13.76c2.23-3.8,5.43-7.33,6.55-11.43c95.89-348.6,198.71-708.07,298.35-1055.59
		c218.68-762.7,210.54-679.28,250.78-732.62c51.87-68.77,491.07,25.36,494.82,98.67C2886.24,886.69,2765.82,1258,2683.89,1520.38z"
		/>
	<path class="st0" d="M3782.33,2999.73c25.2-38.39,59.27-36.41,99.46-37.69c109.15-3.46,218.88,6.27,328.16,13.9
		c80.01,5.58,75.17,72.92,76.52,124.81c5.48,211.6-67.61,399.41-173.93,579.75c-111.3,188.79-291.54,241.29-487.52,270.54
		c-242.7,36.22-471.62-10.83-685.16-126.51c-201.49-109.16-271.44-303.44-310.88-512.99c-69.72-370.46,22.94-716.7,167.2-1052.32
		c132.39-308,370.04-502.97,693.44-579.3c225.29-53.17,439.93-1.2,622.45,144.66c132.86,106.17,175.8,263.22,188.34,422.99
		c7.47,95.22-3.96,142-8.57,213.01c-4.13,63.6-29.97,106.84-102.18,111.39c-120.79,7.61-242.88,24.53-355.26-35.46
		c-21.44-11.44-37.94-46.9-41.83-73.46c-8.65-59.05-0.9-120.88-12.46-179.06c-21.02-105.8-124.75-154.35-226.09-116.22
		c-163.26,61.44-243.56,196.61-292.24,348.09c-81.54,253.79-103.24,511.78,15.72,762.56c52.17,109.98,202.94,187.94,297.14,163.48
		c126.25-32.78,153.86-135.71,170.86-243.97C3754.54,3140.43,3749.22,3050.18,3782.33,2999.73z"/>
</g>
</svg>
