<svg width="1716" height="2622" viewBox="0 0 1716 2622" fill="none" xmlns="http://www.w3.org/2000/svg">
<path d="M309.496 1055.13C300.297 1025.98 396.79 936.984 493.273 936.984C582.152 936.984 660.176 969.409 670.991 1053.11C691.873 1214.69 544.256 1211.65 493.273 1211.65C367.143 1210.66 344.626 1166.44 309.496 1055.13Z" fill="#FAECE9"/>
<path d="M422.499 1223.59C407.514 1221.54 394.195 1217.69 381.573 1211.4C365.72 1203.5 356.359 1190.09 349.654 1174.39C348.917 1172.66 348.311 1170.46 348.756 1168.77C349.281 1166.79 350.674 1164.55 352.361 1163.54C353.39 1162.93 356.107 1163.95 357.318 1165.06C360.742 1168.19 363.781 1171.73 366.952 1175.13C381.512 1190.76 399.86 1199.42 420.449 1203.57C433.353 1206.17 446.41 1208.04 459.395 1210.21C463.424 1210.87 468.887 1209.98 468.382 1216.43C467.938 1222.09 463.616 1224.02 458.426 1224C446.814 1223.95 435.191 1223.8 422.499 1223.59Z" fill="#F5B7BA"/>
<path d="M380.159 887.342C356.813 898.4 336.143 912.012 316.433 927.25C297.066 942.225 281.647 960.876 267.066 981.617C261.815 973.953 264.471 968.742 267.399 963.703C275.84 949.162 286.514 936.419 298.964 925.139C349.977 878.92 410.048 853.675 478.429 848.081C500.331 846.294 521.778 849.465 542.458 857.139C551.122 860.36 559.846 863.481 568.308 867.197C573.791 869.61 577.678 873.821 578.072 881.283C556.13 870.62 533.33 865.51 510.045 862.663C481.034 859.108 452.751 864.48 424.952 871.943C410.018 875.952 395.608 881.92 380.159 887.342Z" fill="#F5B7BA"/>
<path opacity="0.749" d="M462.455 642.835C390.03 655.715 286.451 691.675 267.552 718.801C268.658 718.959 269.88 719.408 270.843 719.244C325.617 710.367 381.659 706.038 437.623 701.211C510.289 694.942 582.652 687.432 655.098 680.263C663.322 679.45 671.214 677.335 679.274 675.812C677.641 667.106 669.366 663.969 661.351 660.809C644.19 654.042 626.435 647.866 609.837 640.536C598.566 635.552 587.098 632.9 573.783 632.796C536.732 632.5 500.616 636.078 462.455 642.835Z" fill="#373134"/>
</svg>
