<svg width="1716" height="2622" viewBox="0 0 1716 2622" fill="none" xmlns="http://www.w3.org/2000/svg">
<path d="M397.911 943.164C427.002 928.381 456.77 917.677 488.517 916.132C539.409 913.648 587.998 921.261 626.581 959.008C640.415 972.539 653.693 986.737 666.134 1001.54C671.455 1007.87 674.303 1016.4 677.716 1024.18C679.957 1029.28 678.382 1033.92 674.08 1037.75C668.587 1042.65 665.558 1043.07 659.974 1038.1C655.057 1033.71 650.502 1028.9 646.019 1024.06C628.055 1004.66 605.296 992.988 580.708 985.131C546.315 974.145 511.065 969.893 474.945 975.266C436.766 980.951 403.848 996.885 377.453 1025.13C367.689 1035.58 358.782 1047 350.654 1058.8C338.254 1076.78 328.066 1095.97 326.652 1118.22C315.181 1119.58 307.991 1113.39 306.103 1101.15C305.568 1097.7 305.507 1094.19 305.205 1090.71C304.932 1087.63 304.629 1084.56 304.235 1080.35C301.983 1081.25 300.236 1082.48 298.399 1082.61C291.765 1083.09 286.554 1077.47 288.049 1070.56C289.351 1064.56 292.017 1058.85 294.289 1053.09C314.09 1002.97 349.917 967.914 397.911 943.164Z" fill="#373134"/>
</svg>
