<svg width="1716" height="2622" viewBox="0 0 1716 2622" fill="none" xmlns="http://www.w3.org/2000/svg">
<path d="M309.496 1055.13C285.958 971.377 392.751 897.601 489.233 897.601C585.716 897.601 660.176 969.408 670.99 1053.11C691.872 1214.69 544.255 1211.65 493.272 1211.65C367.143 1210.66 341.071 1167.5 309.496 1055.13Z" fill="#FAECE9"/>
<path d="M422.499 1223.59C407.514 1221.54 394.195 1217.69 381.573 1211.4C365.72 1203.5 356.359 1190.09 349.654 1174.39C348.917 1172.66 348.311 1170.46 348.756 1168.77C349.281 1166.79 350.674 1164.55 352.361 1163.54C353.39 1162.93 356.107 1163.95 357.318 1165.06C360.742 1168.19 363.781 1171.73 366.952 1175.13C381.512 1190.76 399.86 1199.42 420.449 1203.57C433.353 1206.17 446.41 1208.04 459.395 1210.21C463.424 1210.87 468.887 1209.98 468.382 1216.43C467.938 1222.09 463.616 1224.02 458.426 1224C446.814 1223.95 435.191 1223.8 422.499 1223.59Z" fill="#F5B7BA"/>
<path d="M373.091 862.461C349.745 873.519 329.075 887.131 309.365 902.369C289.997 917.344 274.578 935.995 259.997 956.736C254.747 949.072 257.402 943.861 260.33 938.823C268.772 924.281 279.445 911.538 291.896 900.258C342.909 854.04 402.979 828.795 471.361 823.2C493.262 821.413 514.71 824.584 535.39 832.258C544.053 835.479 552.778 838.6 561.239 842.316C566.722 844.729 570.61 848.94 571.004 856.403C549.062 845.739 526.261 840.629 502.976 837.782C473.966 834.227 445.682 839.599 417.884 847.062C402.949 851.071 388.54 857.039 373.091 862.461Z" fill="#F5B7BA"/>
<path opacity="0.749" d="M455.455 641.835C383.03 654.715 279.451 690.675 260.552 717.801C261.658 717.959 262.88 718.408 263.843 718.244C318.617 709.367 374.659 705.038 430.623 700.211C503.289 693.942 575.652 686.432 648.098 679.263C656.322 678.45 664.214 676.335 672.274 674.812C670.641 666.106 662.366 662.969 654.351 659.809C637.19 653.042 619.435 646.866 602.837 639.536C591.566 634.552 580.098 631.9 566.783 631.796C529.732 631.5 493.616 635.078 455.455 641.835Z" fill="#373134"/>
</svg>
