<svg width="1716" height="2622" viewBox="0 0 1716 2622" fill="none" xmlns="http://www.w3.org/2000/svg">
<path d="M386.359 898.913C415.45 884.13 445.218 873.426 476.965 871.881C527.857 869.397 576.446 877.011 615.029 914.757C628.863 928.288 642.141 942.486 654.582 957.29C659.903 963.621 662.751 972.154 666.164 979.929C668.405 985.029 666.83 989.674 662.529 993.501C657.035 998.399 654.006 998.823 648.422 993.845C643.505 989.462 638.951 984.645 634.467 979.808C616.504 960.41 593.744 948.737 569.156 940.88C534.763 929.894 499.513 925.643 463.394 931.015C425.215 936.7 392.296 952.635 365.901 980.879C356.137 991.33 347.231 1002.75 339.102 1014.55C326.702 1032.53 316.514 1051.72 315.1 1073.97C303.629 1075.33 296.44 1069.14 294.551 1056.9C294.016 1053.45 293.956 1049.94 293.653 1046.46C293.38 1043.38 293.077 1040.31 292.683 1036.09C290.432 1037 288.685 1038.23 286.847 1038.36C280.213 1038.84 275.002 1033.22 276.497 1026.31C277.8 1020.31 280.465 1014.6 282.737 1008.84C302.539 958.724 338.365 923.663 386.359 898.913Z" fill="#373134"/>
</svg>
