<svg width="102" height="102" viewBox="0 0 102 102" fill="none" xmlns="http://www.w3.org/2000/svg">
<path d="M40.8127 12.9485C47.4044 9.31195 55.5032 8.69683 62.7269 10.8332C69.9509 12.9698 76.2759 17.7414 80.7158 23.807C85.1557 29.8726 87.4975 41.0781 86.1777 39.7841C87.7891 45.1382 87.5067 51.0382 85.1599 56.9077C83.7666 65.2615 77.6041 72.0147 74.7918 80.0065C74.1162 81.9265 73.6335 83.9451 73.7129 85.9784C73.7925 88.0119 74.4775 90.072 75.887 91.545C73.6787 90.8856 71.919 88.9199 71.0953 86.8132C70.2152 88.1626 69.9472 89.8923 70.3782 91.4436C68.0064 90.8873 65.9069 89.2735 64.7659 87.1292C62.8518 87.7008 61.0914 88.7772 59.7126 90.2176C59.4381 88.0394 60.1549 85.83 61.2906 83.9482C62.4265 82.0663 63.9645 80.4639 65.374 78.8121C69.2852 73.3456 72.3174 67.2566 74.2949 60.917C75.2776 56.7171 76.2652 52.4716 76.2575 48.1601C76.249 43.8479 75.1524 39.3985 72.3823 36.0854C70.1773 33.4488 67.0752 31.7062 63.8908 30.3968C60.7066 29.0875 57.3749 28.1532 54.2104 26.7962C51.1803 25.4962 48.3244 23.8185 45.2917 22.5254C42.257 21.2322 38.9587 20.3222 32.9228 21.6895C34.1031 17.8483 37.2846 14.8942 40.8127 12.9485Z" fill="#383332"/>
<path d="M18.2523 30.4535C17.4218 37.3369 17.0352 44.704 18.0256 51.8838C14.9176 51.7771 12.1718 49.3607 11.1797 46.4252C10.1876 43.4896 10.7583 40.1871 12.1942 37.4389C13.6294 34.6916 15.8609 32.4341 18.2523 30.4535Z" fill="#383332"/>
<path d="M88.8015 59.2758C88.5766 57.0821 87.6092 54.9021 85.8712 53.5365C85.0433 52.8865 84.0306 52.4588 82.988 52.3021C84.2367 45.4766 84.0964 38.548 81.2927 32.5889C72.8995 14.7508 52.6047 14.3376 41.1178 15.6274C31.1363 16.7485 22.7389 24.6006 19.1354 33.94C15.532 43.2795 16.3514 53.7375 18.0244 63.6912C19.3681 71.689 22.1701 80.789 29.2529 84.8901C38.1576 90.0476 50.9822 90.9506 61.1099 86.0564C67.3315 83.05 72.2298 77.9607 75.7435 72.1021C79.1416 72.2512 82.6065 71.0824 85.1023 68.7822C87.6973 66.3884 89.1608 62.7805 88.8015 59.2758Z" fill="#F4D8D3"/>
<path d="M47.4393 11.6016C55.5783 9.90628 64.3291 11.1311 71.5984 15.152C78.8677 19.173 84.5699 25.987 87.0622 33.8885C88.9181 39.7733 88.8896 46.5773 85.4505 51.7073L84.8958 51.3521C84.7685 51.7805 84.631 52.2067 84.4773 52.6282C78.893 53.3046 73.6992 57.3256 71.8458 62.6628C71.6361 59.8606 71.1479 57.0587 70.453 54.301C65.0711 54.9702 59.5802 55.2689 54.55 53.3965C54.952 54.4416 55.5467 55.4125 56.2958 56.2473C51.4986 54.0067 47.8463 49.7399 45.6302 44.9464C43.5771 40.5051 42.6686 35.6221 42.3086 30.7379C40.6872 31.0709 39.094 31.5421 37.555 32.1503C37.7252 31.7865 37.8959 31.4219 38.0661 31.0572C36.9807 31.4295 35.8942 31.8007 34.8088 32.1721C34.8135 32.1546 34.8182 32.1372 34.823 32.1198C34.7899 32.1642 34.7568 32.2094 34.7238 32.2538C34.6756 32.1821 34.6331 32.1072 34.5952 32.0304C34.6015 32.086 34.6092 32.1418 34.6148 32.1982C32.7803 31.5253 30.7207 31.4747 28.8554 32.0598C29.1419 32.249 29.4276 32.4385 29.7141 32.6276C27.4295 32.4451 25.1019 32.856 23.0131 33.7948C22.9648 33.9806 22.9215 34.1667 22.8856 34.3527C22.351 37.1214 22.7669 39.9941 22.3854 42.7875C21.5694 48.7554 19.8932 50.552 13.9963 51.886C17.6595 50.534 19.0846 48.5282 19.4932 46.5189C17.7664 49.4302 15.0465 51.6998 11.9258 52.8265C13.8527 51.6058 15.2972 49.6525 16.1149 47.4768C16.9325 45.3011 17.148 42.9115 16.9333 40.5884C16.7468 38.5712 16.2464 36.6 15.9351 34.599C15.6237 32.598 15.5082 30.5127 16.0811 28.5747C16.4306 27.3928 17.075 26.2708 18.0067 25.5005C18.5907 24.8552 19.2984 24.3416 20.0784 23.953C20.5483 22.5958 21.2606 21.3454 22.1991 20.2631C24.4032 17.721 27.9205 16.2391 31.2365 16.8499C32.3756 17.0597 33.462 17.5397 34.4056 18.2143C37.8524 14.711 42.5972 12.6106 47.4393 11.6016Z" fill="#383332"/>
</svg>
