<svg width="101" height="102" viewBox="0 0 101 102" fill="none" xmlns="http://www.w3.org/2000/svg">
<path d="M32.6967 15.183C44.1853 10.2045 63.7557 11.3588 74.4762 19.5209C85.1967 27.6831 91.1317 41.1807 91.6106 54.6128C92.0896 68.044 89.0965 78.5863 81.6459 89.9951C79.5752 89.8196 77.5044 89.6441 75.4337 89.4686C75.5988 88.9898 75.7639 88.5111 75.9298 88.0314C73.0329 89.7046 65.5737 90.6161 62.4056 89.5359C67.5695 78.7925 66.6817 70.8478 69.3264 62.6116C70.7334 56.7325 77.9624 56.4418 76.5529 50.5636C75.1433 44.6855 71.8007 39.1515 66.7818 35.7549C59.9615 31.1401 50.9807 30.9629 42.9237 32.7059C39.694 33.4045 36.49 34.3978 33.6615 36.0999C30.833 37.8029 28.3876 40.2683 27.5306 44.4154C27.6786 59.7004 30.8509 74.9504 36.9211 89.3919C34.3919 89.3008 31.8559 89.4115 29.1916 89.9951C28.6331 89.3008 28.0746 88.6056 27.5161 87.9113C27.552 88.7326 27.7932 89.5436 28.0036 90.3818C24.5875 90.7601 21.1714 91.1384 18.1906 91.4007C13.9517 83.7046 12.0965 74.8609 11.8724 66.0846C11.6483 57.3082 11.6698 47.7576 13.5301 39.1771C14.7711 33.4532 17.6757 28.3723 21.4374 23.8725C25.418 19.1146 29.4311 16.598 32.6967 15.183Z" fill="#B195CE"/>
<path d="M88.3015 59.2758C88.0766 57.0821 87.1092 54.9021 85.3712 53.5365C84.5433 52.8865 83.5306 52.4588 82.488 52.3021C83.7367 45.4766 83.5964 38.548 80.7927 32.5889C72.3995 14.7508 52.1047 14.3376 40.6178 15.6274C30.6363 16.7485 22.2389 24.6006 18.6354 33.94C15.032 43.2795 15.8514 53.7375 17.5244 63.6912C18.8681 71.689 21.6701 80.789 28.7529 84.8901C37.6576 90.0476 50.4822 90.9506 60.6099 86.0564C66.8315 83.05 71.7298 77.9607 75.2435 72.1021C78.6416 72.2512 82.1065 71.0824 84.6023 68.7822C87.1973 66.3884 88.6608 62.7805 88.3015 59.2758Z" fill="#F4D8D3"/>
<path d="M73.2159 59.3481C73.2259 59.3845 73.2293 59.4193 73.229 59.4549C73.2246 59.4194 73.2202 59.3836 73.2159 59.3481Z" fill="#B195CE"/>
<path d="M73.2159 59.3481C73.1972 59.28 73.1454 59.208 72.987 59.1269C73.0249 58.9401 73.0711 58.7549 73.1211 58.5711C73.1527 58.8301 73.1843 59.0891 73.2159 59.3481Z" fill="#B195CE"/>
<path d="M37.4921 15.0097C41.5645 14.1858 45.7448 14.1297 49.7357 14.8168C52.6121 14.7081 55.5581 14.9898 58.3972 15.4783C65.3687 16.6777 72.4376 19.1854 77.2273 24.3708C82.3549 29.921 84.1743 37.7956 84.3642 45.3358C84.4173 47.4519 84.3587 49.5715 84.1877 51.6816C83.8336 51.771 83.479 51.8602 83.1241 51.9497C80.9063 51.5954 78.5222 52.1814 76.6508 53.5069C74.9361 54.7229 73.6708 56.5482 73.1211 58.5711C72.9057 56.8059 72.6902 55.041 72.4748 53.2759C71.036 53.6621 69.3984 53.5817 67.8052 53.2726C66.5437 48.0121 63.9895 42.7908 60.41 38.3482C60.5221 38.8143 60.6289 39.2813 60.726 39.7497C61.66 44.2563 61.9499 48.8672 62.2364 53.459C57.9883 53.4104 54.1664 53.189 50.3459 52.9675C48.7928 52.1659 47.6294 51.0532 46.6287 49.8104C47.029 50.9442 47.4283 52.0792 47.8286 53.2138C44.4801 53.4608 40.7751 53.1454 37.0692 52.8302C34.866 49.6722 33.0054 46.2103 32.1424 42.5122C31.9594 46.1004 32.6265 49.7287 34.0746 53.0187C33.4348 52.8015 32.7941 52.5845 32.1544 52.3681C28.9452 45.0873 28.1269 36.824 29.8027 29.0961C25.7517 35.9819 23.6481 44.0007 23.846 51.9823C22.0885 51.5394 20.236 51.4683 18.4494 51.7775C18.1434 49.0386 18.0821 46.2639 18.2968 43.5159C17.3917 46.2781 16.8285 49.1514 16.6404 52.051C15.9399 52.0945 15.2387 52.1372 14.5382 52.1807C14.5331 45.8178 15.8112 39.4948 17.8511 33.465C19.217 29.4287 20.975 25.4294 23.8427 22.2697C27.3606 18.3944 32.3508 16.0499 37.4921 15.0097Z" fill="#B195CE"/>
</svg>
