<svg width="102" height="102" viewBox="0 0 102 102" fill="none" xmlns="http://www.w3.org/2000/svg">
<path d="M32.0242 15.4713C25.4374 18.8032 20.3877 24.7938 17.5891 31.6031C14.7905 38.4124 14.1507 45.9893 15.0719 53.2901C15.9469 60.2306 18.1895 66.9726 18.6873 73.9506C19.1851 80.9286 17.5626 88.6043 12.1578 93.0708C15.2934 93.1271 18.4367 92.0238 20.8435 90.0219C20.7204 91.0655 20.2773 92.069 19.5879 92.8638C24.8413 92.811 30.5898 92.5776 34.7133 88.9911C34.455 89.6947 34.1975 90.3984 33.9392 91.1021C36.5069 89.8813 38.2817 87.156 38.3073 84.832C47.4609 85.1643 56.682 83.5107 65.1453 80.0213C65.3694 84.5679 63.7204 89.1793 60.6609 92.5606C63.0276 92.3569 65.2591 90.9504 66.4565 88.9067C66.1375 89.8932 65.8193 90.8789 65.5003 91.8654C70.054 92.4507 74.8035 91.3943 78.6747 88.9357C78.4164 89.3037 78.1581 89.6709 77.8998 90.0389C78.448 89.2347 79.3093 88.6486 80.2604 88.4314C83.5311 90.1343 87.321 90.8303 90.986 90.4001C88.5168 89.8123 86.6958 87.5931 85.9226 85.1839C85.1494 82.7747 85.2529 80.1832 85.4487 77.6615C86.1638 68.4626 88.0001 59.3506 88.1678 50.1253C88.3354 40.9 86.6539 31.2615 81.0849 23.8882C75.6853 16.739 67.0176 12.4189 58.1112 11.2621C49.2066 10.106 39.8939 11.4904 32.0242 15.4713Z" fill="#383332"/>
<path d="M88.8015 59.2758C88.5766 57.0821 87.6092 54.9021 85.8712 53.5365C85.0433 52.8865 84.0306 52.4588 82.988 52.3021C84.2367 45.4766 84.0964 38.548 81.2927 32.5889C72.8995 14.7508 52.6047 14.3376 41.1178 15.6274C31.1363 16.7485 22.7389 24.6006 19.1354 33.94C15.532 43.2795 16.3514 53.7375 18.0244 63.6912C19.3681 71.689 22.1701 80.789 29.2529 84.8901C38.1576 90.0476 50.9822 90.9506 61.1099 86.0564C67.3315 83.05 72.2298 77.9607 75.7435 72.1021C79.1416 72.2512 82.6065 71.0824 85.1023 68.7822C87.6973 66.3884 89.1608 62.7805 88.8015 59.2758Z" fill="#F4D8D3"/>
<path d="M69.846 26.641C74.9976 35.6048 78.1682 45.6914 79.0689 55.9808C80.3835 54.0342 82.4473 52.3815 84.8131 51.6181C86.0722 43.6971 84.3496 35.5656 80.2535 28.8356C76.1574 22.1055 69.7177 16.8236 62.3013 14.1103C52.6816 10.5843 41.5822 12.1714 32.539 16.8773C27.8467 19.3189 23.5069 22.6311 20.5672 27.0167C17.8079 31.1332 16.3958 36.0265 15.7911 40.9395C15.1864 45.8524 15.3532 50.8225 15.52 55.7695C16.8765 50.9988 18.5538 46.2043 20.8007 41.6644C23.0476 37.1246 25.8864 32.8259 29.583 29.3535C24.9429 36.4371 21.8655 44.5294 20.6296 52.8969C21.0384 52.6703 21.5191 52.5765 21.9844 52.6311C22.7251 48.0793 23.9705 43.5898 25.9522 39.4222C27.934 35.2547 30.6684 31.4126 34.1598 28.3849C29.4333 35.2641 28.2094 44.4084 30.9626 52.2809C31.2586 52.24 31.5545 52.1983 31.8513 52.1574C30.5803 43.8138 32.7571 35.0017 38.2944 27.8584C42.6633 35.1124 45.8511 43.0701 47.6977 51.3268C48.0663 51.2893 48.435 51.2518 48.8028 51.2135C46.9365 43.0752 44.226 35.1295 40.7269 27.5441C47.1332 34.229 52.4797 41.9183 57.0471 50.0813C58.2582 50.3582 59.4694 50.6359 60.6796 50.9128C57.692 42.0904 53.2812 33.7485 47.6678 26.3054C56.5083 32.4493 64.1608 40.2827 70.254 49.2507C72.2785 50.2244 74.3031 51.1973 76.3267 52.171C75.7477 50.6666 75.1678 49.1629 74.5887 47.6585C76.2147 49.3589 77.7089 51.1854 79.0526 53.1149C78.9876 53.0332 78.9235 52.9514 79.0731 52.7094C79.4529 52.4564 79.8326 52.2043 80.2116 51.9512C80.5708 42.3255 77.6388 32.6078 69.846 26.641Z" fill="#383332"/>
</svg>
