<svg width="101" height="102" viewBox="0 0 101 102" fill="none" xmlns="http://www.w3.org/2000/svg">
<path d="M30.269 17.9746C22.5413 22.0306 17.9459 31.612 16.5218 40.1958C15.0977 48.7797 16.16 57.5492 16.6698 66.2344C17.1795 74.9196 17.0701 83.9414 13.5137 91.888C31.9429 92.7419 29.658 90.3833 37.5226 87.7202C47.4416 86.7916 57.7633 84.9466 66.8612 80.9034C66.49 84.0402 66.1197 87.1769 65.7485 90.3136C73.4138 88.9259 81.0782 87.5381 88.7436 86.1504C84.9981 69.8772 88.4673 52.3134 83.2542 36.4466C72.6885 4.2913 42.5442 10.7214 30.269 17.9746Z" fill="#383332"/>
<path d="M24.7372 56.5025C25.6917 68.6081 23.0354 80.3678 20.2257 92.1838C26.3633 92.1838 31.3201 92.321 36.4066 91.0679C36.8232 84.0107 38.2571 75.9745 37.5455 68.9403C36.8339 61.9061 34.9393 54.8728 31.0639 48.9503C30.3549 47.8667 29.432 46.7319 28.1413 46.5811C26.8746 46.4338 25.6746 47.3436 25.0836 48.4698C24.4943 49.5969 24.2958 50.9097 24.7372 56.5025Z" fill="#DFCCB3"/>
<path d="M69.9995 42.6611C72.4722 42.8579 74.6267 44.5779 75.9131 46.6898C77.1995 48.8017 77.7418 51.2739 78.1309 53.7138C79.9348 65.0348 78.8268 78.0592 74.906 88.8358C69.8315 90.336 64.5492 91.0949 59.2831 91.6256C64.7271 78.985 67.3095 64.1275 67.289 48.9823C67.3369 47.6065 67.7089 46.2417 69.9995 42.6611Z" fill="#DFCCB3"/>
<path d="M88.3015 59.2758C88.0766 57.0821 87.1092 54.9021 85.3712 53.5365C84.5433 52.8865 83.5306 52.4588 82.488 52.3021C83.7367 45.4766 83.5964 38.548 80.7927 32.5889C72.3995 14.7508 52.1047 14.3376 40.6178 15.6274C30.6363 16.7485 22.2389 24.6006 18.6354 33.94C15.032 43.2795 15.8514 53.7375 17.5244 63.6912C18.8681 71.689 21.6701 80.789 28.7529 84.8901C37.6576 90.0476 50.4822 90.9506 60.6099 86.0564C66.8315 83.05 71.7298 77.9607 75.2435 72.1021C78.6416 72.2512 82.1065 71.0824 84.6023 68.7822C87.1973 66.3884 88.6608 62.7805 88.3015 59.2758Z" fill="#F4D8D3"/>
<path d="M39.6794 30.3289C36.9099 32.0097 35.313 35.1166 34.4893 38.2405C33.6657 41.3645 33.4809 44.6222 32.7761 47.7751C32.0714 50.928 30.7354 54.1099 28.172 56.088C29.3002 55.8887 30.4283 55.6885 31.6001 55.4065C32.6094 54.7207 33.4005 53.7214 33.8342 52.5841C33.6417 53.5204 33.4493 54.4575 34.0523 55.329C37.1665 55.1748 40.2807 55.0206 43.3949 54.8655C46.6314 47.9191 47.3806 39.8523 45.5614 31.9773C48.2599 39.2782 50.2006 46.8567 51.4835 54.5154C52.332 54.4268 53.1796 54.3382 54.2693 54.1883C52.9359 49.1884 52.823 43.9253 51.4579 38.9348C50.0928 33.9444 46.0805 26.4442 39.6794 30.3289Z" fill="#383332"/>
<path d="M18.4138 56.8029C18.4882 56.7919 18.3394 56.814 18.4138 56.8029C17.6517 56.9844 17.0307 57.1428 16.2686 57.3252C13.8721 40.2452 17.9442 22.7556 35.9622 16.3449C43.3282 13.7245 51.4536 13.9988 59.1275 15.505C63.2142 16.3075 67.3069 17.4797 70.7846 19.7628C75.7283 23.0077 80.1725 28.8339 82.1337 34.3977C84.095 39.9615 84.0744 46.799 84.7886 52.6524C83.6014 52.304 82.4143 51.5841 81.2271 51.2357C77.3884 47.0349 73.6268 41.351 70.9231 36.4082C72.0804 42.0922 74.5437 47.5078 78.071 52.1217C76.0986 53.0971 74.1759 53.2581 72.254 53.4192C67.9766 52.5885 63.9703 49.4118 61.016 45.556C58.0618 41.7003 56.086 37.1843 54.5576 32.5789C54.9382 40.2129 58.3064 47.6594 63.795 53.0017C64.1251 53.3288 64.2158 53.3365 64.3056 53.3433C63.4725 53.4498 62.6394 53.5563 61.8064 53.6628C56.6309 49.2278 52.2799 42.3622 49.5129 35.4038C46.2166 27.1122 27.3817 29.098 27.4365 29.6151C27.9291 34.2802 22.3439 37.5626 20.7479 41.9763C19.0706 46.615 18.5061 51.5858 18.4138 56.8029Z" fill="#383332"/>
<path d="M18.4139 56.8033C18.786 49.5263 21.1526 42.3601 25.6139 36.6838C23.9538 42.8329 22.8752 49.137 22.2337 55.7231C22.6939 55.6805 23.1532 55.637 23.6134 55.5944C24.8963 47.2066 28.445 39.1731 33.8634 33.1109C34.6888 39.0461 34.1294 45.1679 32.6831 50.4319C34.5126 50.3467 36.1189 49.0799 37.0914 47.5345C38.0639 45.9892 38.5095 44.1814 38.9414 42.4095C40.1953 37.2656 41.4483 32.1218 42.3661 27.2813C43.0709 25.6746 41.9709 23.7015 40.3698 22.974C38.7686 22.2465 36.8775 22.5106 35.2276 23.1205C33.1159 23.9009 31.235 25.206 29.527 26.6687C22.8051 32.4276 18.5242 40.9288 17.9768 49.9267C17.6475 52.0463 17.645 54.2152 18.4139 56.8033Z" fill="#383332"/>
</svg>
