<?xml version="1.0" encoding="utf-8"?>
<!-- Generator: Adobe Adobe Illustrator 24.2.0, SVG Export Plug-In . SVG Version: 6.00 Build 0)  -->
<svg version="1.1" id="Layer_1" xmlns="http://www.w3.org/2000/svg" xmlns:xlink="http://www.w3.org/1999/xlink" x="0px" y="0px"
	 width="4158.39px" height="2159.53px" viewBox="0 0 4158.39 2159.53" style="enable-background:new 0 0 4158.39 2159.53;"
	 xml:space="preserve">
<style type="text/css">
	.st0{fill:#A0A0D3;}
	.st1{display:none;fill:#FFFFFF;}
</style>
<g>
	<path class="st0" d="M967.87,973.99c-10.35,28.16-32.97,44.77-53.39,62.75c-19.43,17.1-40.84,31.94-61.28,47.9
		c-11.13,8.69-23.16,10.59-36.64,6.49c-16.31-4.96-30.29-13.67-38.29-28.61c-18.6-34.73-37.12-69.58-53.66-105.31
		c-24.63-53.2-48.49-106.8-70.89-160.97c-18.9-45.7-35.32-92.42-52.73-138.73c-7.74-20.6-15.23-41.29-25.23-61.79
		c-3.14,22.73-6.45,45.44-9.37,68.2c-4.75,37.07-9.55,74.13-13.77,111.26c-3.57,31.44-6.28,62.98-9.5,94.46
		c-3.47,33.85-7.13,67.68-10.63,101.52c-1.24,11.93-2.63,23.86-3.3,35.82c-1.37,24.45-1.89,48.96-3.49,73.39
		c-3.37,51.68-7.5,103.31-10.68,155c-0.92,14.91-9.95,22.03-22.24,24.53c-31.9,6.5-63.91,14.12-96.22,16.39
		c-19.88,1.4-41.22-3.82-60.44-10.38c-26.86-9.16-33.56-33.45-35.51-59.15c-2.84-37.44-0.21-74.49,4.58-111.77
		c5.2-40.38,6.33-81.27,10.09-121.86c5.04-54.4,10.43-108.77,16.55-163.05c5.37-47.61,11.57-95.14,18.08-142.62
		c9.96-72.61,19.25-145.36,31.22-217.65c8.6-51.94,20.02-103.5,32.18-154.75c10.3-43.4,31.94-79.63,71.99-103.63
		c16.03-9.6,30.35-21.54,49.17-25.97c43.64-10.27,94.29,11.17,113.47,51.71c17.22,36.41,31.41,74.29,46.23,111.8
		c22.06,55.84,43.65,111.87,65.15,167.92c16.51,43.06,32.58,86.29,48.86,129.43c1.63,4.31,3.38,8.57,5.07,12.85
		c1.2-0.03,2.41-0.07,3.61-0.1c3.25-16.56,6.35-33.16,9.77-49.69c11.47-55.38,22.18-110.94,34.93-166.02
		c7.58-32.75,19.41-64.34,36.24-93.81c18.31-32.07,45.64-49.11,82.63-48.1c22.94,0.62,45.9,3.07,68.65,6.15
		c8.76,1.19,17.51,5.46,25.33,9.95c23.71,13.63,29.85,28.26,24.27,55.31c-18.88,91.56-38.58,182.95-56.47,274.7
		c-10.81,55.46-19.05,111.44-28.1,167.24C1004.28,855.6,989.39,915.06,967.87,973.99z"/>
	<path class="st0" d="M1442.02,1719.59c-44.02,53.96-92.01,89.31-157.65,115.54c-55.26,22.08-93.46,28.27-169.07,7.78
		c-56.28-15.25-108.4-40.62-153.83-76.95c-56.26-45-91.94-103.78-106.03-175.06c-11.76-59.49-7.83-119.68-8.64-179.67
		c-0.65-48.05,7.74-94.77,23.19-139.95c31.46-92.04,91.16-157.73,183.31-192.7c51.96-19.72,105.22-32.46,160.61-38.26
		c46.61-4.88,92.12-1.88,137.15,9.81c78.06,20.27,121.26,73.78,139.84,149.56c4.43,18.09,5.87,36.89,9.21,55.27
		c3.32,18.23-5.43,29.86-20.6,37.08c-23.08,11-47.16,18.97-73.02,20.76c-20.09,1.39-40.09,4.45-60.18,5.21
		c-21.22,0.81-27.21-4.14-31.38-25.28c-4.34-21.99-14.65-40.71-29.36-56.9c-15.64-17.22-36.93-24.37-59.19-26.84
		c-52.51-5.82-91.78,17.39-122.88,57.97c-27.4,35.75-41.2,76.98-48.14,120.53c-4.59,28.8-8.24,58.09-8.34,87.17
		c-0.11,32.55,4.95,64.97,16.41,95.97c9.25,25.02,23.79,46.21,45.36,61.96c28.92,21.13,79.6,19.76,114.73-1.8
		c33.26-20.41,56.7-49.74,77.43-81.97c12.72-19.78,20.69-41.14,24.43-64.1c1.33-8.13,4.48-11.76,12.92-14.27
		c37.55-11.14,75.1-8.79,112.69-1.76c26.31,4.92,44.36,27.1,47.24,53.91C1506.14,1596.22,1488.27,1662.91,1442.02,1719.59z"/>
	<path class="st0" d="M2147.16,1583.93c-11.98,60.09-21.44,120.68-31.92,181.06c-22.25,128.21-17.69,118.06-37.05,158.75
		c-11.86,24.93-48.82,30.47-78.21,28.74c-21.64-1.28-65.53-9.72-68.53-26.68c-6.61-37.4-0.58-76.7,4.4-114.88
		c5.64-43.23,10.05-86.62,14.89-129.95c0.31-2.76-0.23-5.61-0.34-7.94c-62-6.17-123.39-12.27-185.97-18.5
		c-1.42,12.35-9.43,99.88-13.2,142.28c-2.94,33.12-10.02,65.22-21.6,96.56c-10.9,29.53-33.02,41.25-62.19,42.46
		c-26.85,1.11-52.31-5.68-76.76-16.57c-41.31-18.39-28.52-89.27-26.88-109.51c3.42-42.04,6.67-84.12,11.08-126.06
		c4.11-39.06,8.71-78.11,14.78-116.9c6.95-44.48,14.56-88.92,24.09-132.91c9.74-44.96,21.82-89.43,33.5-133.95
		c8.03-30.63,21.78-39.48,53.53-42.54c85.97-8.3,108.69,20.67,105.66,42.96c-4.66,34.16-8.06,68.49-12.83,102.63
		c-5.49,39.3-16.13,114.29-16.13,120.55c63.09,7.75,125.76,15.46,190.56,23.42c1.6-9.35,3.24-20.46,5.42-31.46
		c12.36-62.51,24.94-124.97,37.24-187.48c27.18-138.21,31.77-131.55,50.13-142.56c26.61-15.97,68.72-9.9,96.07,0
		c22.1,8,58.58,14.72,59.85,61.68C2217.47,1274.13,2158.4,1527.52,2147.16,1583.93z"/>
	<path class="st0" d="M3250.14,1909.51c-10.15-14.48-20.41-27.83-28.44-42.39c-28.08-50.95-55.4-102.32-83-153.54
		c-28.48-52.86-56.96-105.72-86.46-160.48c-1.12,6.46-2.68,11.67-2.83,16.93c-2.31,75.9-4.23,151.82-6.69,227.71
		c-1.29,39.82-2.26,79.71-5.75,119.36c-1.43,16.3-7.59,32.72-14.31,47.89c-9.45,21.34-28.46,31.33-51.07,31.6
		c-17.12,0.21-34.67-1.36-51.33-5.16c-23.26-5.3-31.84-16.23-32.36-39.66c-1.45-65.38-2.63-130.79-2.77-196.18
		c-0.13-63.96,1.48-127.91,1.68-191.87c0.1-33.15-2.11-66.33-1.61-99.46c0.49-32.13,1.69-64.38,5.2-96.28
		c3.25-29.55,14.7-39.4,43.41-46.31c40.18-9.67,79.53-6.27,117.09,9.68c34.11,14.49,56.21,42.03,73.75,74.15
		c46.07,84.38,92.92,168.34,139.49,252.45c0.44,0.8,1.35,1.34,3.55,3.46c1.36-16.4,2.67-31.62,3.88-46.85
		c3.76-47.33,7.56-94.66,11.21-142c2.25-29.19,3.6-58.46,6.54-87.57c5.3-52.42,11.04-104.81,17.52-157.1
		c2.59-20.94,16.41-31.82,36.76-37.41c29.26-8.04,58.3-4.87,87.29-1.08c18.55,2.42,20.98,7.66,20.39,26.61
		c-0.57,18.28,0.72,36.66-0.68,54.85c-2.9,37.74-6.72,75.43-10.75,113.07c-3.67,34.31-7.97,68.55-12.27,102.79
		c-3.82,30.43-7.96,60.82-12.07,91.21c-4.5,33.23-9.3,66.42-13.64,99.67c-4.28,32.79-8.12,65.64-12.2,98.45
		c-3.66,29.48-7.35,58.95-11.11,88.41c-0.6,4.74-1.81,9.4-2.43,14.14c-3.04,23.5-17.85,36.77-39.85,39.02
		C3307.72,1920.52,3278.59,1922.31,3250.14,1909.51z"/>
	<path class="st0" d="M1601.22,867.85c-21.59,2.4-35.38-6.71-41.37-25.39c-10.07-31.43-20.05-62.99-27.65-95.07
		c-8.49-35.84-14.29-72.31-21.34-108.88c-18.66-2.48-37.12-4.65-55.49-7.44c-18.96-2.88-38.06-5.38-56.63-9.96
		c-10.41-2.57-13.16,0.55-16.01,9.65c-24.33,77.85-48.82,155.66-74.07,233.22c-5.16,15.83-12.27,31.44-20.97,45.63
		c-20.67,33.72-59.16,53.55-101.68,41.72c-15.98-4.44-31.58-10.99-46.5-18.31c-25.26-12.4-27.41-34.55-22.56-59.09
		c11.87-59.99,30.71-118.06,52.05-175.08c44.76-119.62,91.43-238.54,137.8-357.56c14.32-36.75,31.67-71.89,54.81-104.35
		c45-63.11,107.76-76.74,179.42-67.8c12.87,1.61,18.57,11.73,21.67,22.62c6.43,22.59,12.38,45.34,17.65,68.22
		c14.19,61.62,28.41,123.25,41.7,185.07c10.67,49.62,18.75,99.81,30.27,149.22c12.73,54.61,28.38,108.53,42.12,162.91
		c5.58,22.07,5.69,44.7,1.34,67.08c-4.43,22.77-22.09,31.92-41.99,36.45C1637.05,864.52,1619.67,865.57,1601.22,867.85z
		 M1467.69,389.81c-21.8,45.22-35.28,93.41-53.06,141.57c27.81,3.2,53.11,6.1,79.31,9.12
		C1485.63,489.33,1477.61,439.91,1467.69,389.81z"/>
	<path class="st0" d="M2585.88,1090.31c-17.71-0.1-34.1,0.32-50.43-0.52c-25.25-1.29-31.67-8.18-38.49-32.23
		c-13.51-47.65-21.66-96.26-28.1-145.22c-1.56-11.88-3.34-23.86-3.22-35.78c0.1-10.27-4.61-14.23-13.43-17.12
		c-28.73-9.42-57.36-19.16-85.82-29.36c-10.78-3.86-20.99-9.28-33.05-14.71c-9.19,22.07-17.8,43.82-27.24,65.19
		c-19.19,43.45-37.47,87.39-58.72,129.82c-16.61,33.15-44.1,53.08-83.47,50.64c-27.31-1.69-51.17-12.28-71.57-30.41
		c-13.54-12.03-18.45-27.31-12.43-44.36c13.26-37.53,25.37-75.66,41.71-111.85c44.29-98.09,88.99-196.05,136.62-292.54
		c27.39-55.48,60.44-108.19,91.74-161.68c7.19-12.3,17.16-23.12,26.71-33.86c11.4-12.84,25.96-18.95,43.55-18.6
		c65.78,1.29,115.94,30.53,146.91,87.68c10.73,19.81,12.23,44.97,16.19,68c5.27,30.66,9.11,61.58,13.01,92.47
		c3.84,30.41,7.14,60.9,10.4,91.38c4.7,43.83,9.29,87.67,13.66,131.53c2.52,25.29,4.45,50.63,6.77,75.94
		c2.4,26.25,5.94,52.43,7.12,78.73c0.88,19.52,0.68,39.47-2.45,58.68C2628.15,1074.83,2611.7,1087.1,2585.88,1090.31z
		 M2413.84,744.01c12.8,5.67,25.59,11.34,40.74,18.05c-2.88-56.69-5.58-110.04-8.29-163.38c-1.18-0.02-2.35-0.03-3.53-0.05
		c-23.23,43.46-46.46,86.92-70.24,131.4C2386.48,734.78,2399.08,739.09,2413.84,744.01z"/>
	<path class="st0" d="M3427.6,821.53c0.17-72.68,0.08-143.91,0.62-215.14c0.56-73.58,1.63-147.15,2.72-220.73
		c0.27-18.37,3.53-35.71,13.72-52.08c11.06-17.76,26.24-28.02,45.94-31.35c22.67-3.84,45.56-7.59,68.47-8.58
		c65.8-2.83,131.66-4.59,197.51-6.02c19.17-0.42,38.4,1.42,57.58,2.68c9.99,0.66,19.33,4.14,23.69,13.93
		c11.14,24.98,22.66,49.68,20.92,78.47c-1.78,29.53-11.24,43.53-40.11,49.69c-18.67,3.99-37.85,6.14-56.91,7.63
		c-22.98,1.8-46.08,2.09-69.14,2.94c-23,0.85-46.01,1.58-69.83,2.39c-9.55,62.68-7.28,124.48-7.7,187.44
		c19.37,1.34,37.89,2.54,56.39,3.92c11,0.82,22.31,0.59,32.85,3.29c8.36,2.15,16.44,7.14,23.45,12.44
		c16.86,12.75,16.72,62.47,4.32,75.68c-5.72,6.1-15.24,11.13-23.48,11.91c-25.78,2.46-51.77,2.83-77.69,3.68
		c-17.64,0.58-17.96,0.65-18.07,17.76c-0.2,30.32-0.46,60.64-0.58,90.96c-0.09,22.84-0.02,45.67-0.02,70.39
		c6.84,0,11.96-0.01,17.08,0c40.94,0.08,81.89-0.38,122.81,0.45c23.95,0.49,47.99,2.01,71.76,4.95c22.66,2.8,32.7,15.85,34.56,38.86
		c1.78,22-3.11,42.88-8.74,63.82c-4.21,15.66-14.43,22.78-30,24.37c-24.8,2.54-49.48,6.67-74.33,8.18
		c-45.56,2.76-91.24,6.16-136.81,5.38c-38.22-0.66-76.48-5.92-114.43-11.19c-14.4-2-28.72-8.37-41.67-15.35
		c-6.76-3.65-12.9-12.26-15.04-19.84c-3.99-14.13-6.3-29.1-6.76-43.8C3429.07,926.79,3428.54,874.88,3427.6,821.53z"/>
	<path class="st0" d="M2330.62,1533.1c24.99-85.21,61.63-164.74,93.49-246.11c13.76-35.14,40.34-48.71,75.41-52.72
		c35.16-4.02,68.37,1.32,97.87,20.57c19.9,12.98,35.32,30.99,41.72,55.08c10.34,38.94,21.4,77.69,31.11,116.78
		c11.32,45.56,21.69,91.35,32.14,137.12c10.35,45.33,20.55,90.7,30.31,136.16c8.34,38.86,16.49,77.77,23.6,116.87
		c2.12,11.65,2.15,24.26,0.23,35.96c-3.71,22.67-15.09,39.79-38.83,47.24c-22.72,7.13-45.09,8.53-67.75,1.06
		c-11-3.63-18.18-10.42-22.51-22.12c-23.06-62.38-37.31-126.94-49.49-192.06c-3.54-18.9-3.3-18.24-22.67-19.57
		c-27.72-1.9-55.42-4.55-83.02-7.78c-9.95-1.17-13.13,2.45-15.92,11.4c-17.69,56.85-35.61,113.63-54.59,170.06
		c-4.36,12.96-11.46,25.88-20.37,36.15c-7.04,8.11-18.14,15.02-28.6,17.45c-35.37,8.21-70.6,6.64-104.59-8
		c-18.84-8.11-25.35-20.78-19.15-40C2262.66,1742.45,2296.45,1638.32,2330.62,1533.1z M2508.32,1571.49
		c14.85,2.21,29.7,4.42,46.17,6.87c-8.5-43.01-16.52-83.56-24.54-124.1c-1.45,0.06-2.91,0.13-4.36,0.19
		c-12.36,37.57-24.71,75.15-37.31,113.45C2495.67,1569.08,2500.82,1569.91,2508.32,1571.49z"/>
	<path class="st0" d="M1971.95,822.74c-5.14,36.87-9.99,72.48-14.68,108.11c-4.19,31.83-7.64,63.76-12.48,95.49
		c-2.81,18.42-7.28,36.63-11.78,54.74c-6.67,26.83-26.19,40.2-51.92,43.07c-27.77,3.1-55.68,2.43-82.53-8.15
		c-24.36-9.6-31.62-19.12-32.49-44.99c-2.18-65.09,3.64-129.61,16.64-193.26c19.85-97.22,41.12-194.16,62.11-291.15
		c6.39-29.52,13.55-58.89,21-88.16c2.24-8.82,1.05-12.69-8.55-15.4c-36.03-10.17-71.72-21.56-107.63-32.16
		c-34.1-10.07-42.8-38.52-37.18-66.42c4.18-20.75,7.04-41.27,20.88-58.83c17.43-22.14,38.87-31.57,66.69-26.23
		c44.26,8.5,88.74,15.95,132.75,25.59c57.15,12.52,114.05,26.27,170.81,40.45c25.56,6.39,50.53,15.09,75.77,22.75
		c28.3,8.6,39.35,26.63,35.5,60.34c-2.27,19.87-7.84,39.41-12.71,58.89c-1.72,6.87-5.16,13.54-8.9,19.64
		c-7.98,13.04-18.81,22.34-35.39,20.08c-37.02-5.06-73.99-10.45-110.95-15.91c-8.93-1.32-17.75-3.45-29.36-5.74
		C2002.34,624.97,1987.32,723.23,1971.95,822.74z"/>
	<path class="st0" d="M2774.29,635.79c3.88-50.11,7.71-98.86,11.5-147.62c2.16-27.73,4.01-55.49,6.43-83.21
		c2.62-30.07,5.49-60.13,8.79-90.13c0.84-7.59,3.4-15.02,12.08-18.12c38.43-13.7,77.37-19.75,116.89-5.44
		c23.18,8.39,28.13,18.91,25.93,44.54c-3.12,36.3-5.46,72.68-8.22,109.01c-3.59,47.33-7.41,94.64-10.86,141.98
		c-2.34,32.06-3.8,64.19-6.42,96.22c-4.25,52.06-8.55,104.12-13.92,156.07c-5.31,51.45-12.05,102.74-17.99,154.13
		c-1.53,13.25-2.41,26.58-3.64,40.41c4.32,0.87,7,1.82,9.71,1.89c39.42,1,78.86,1.42,118.27,2.91c37.87,1.43,75.81,2.8,112.96,11.51
		c21.33,5,42.07,11.9,46.94,36.6c9.9,50.19-3.96,93.62-53.35,105.51c-20.83,5.01-43.78,2.08-65.72,1.36
		c-20.1-0.66-40.11-3.75-60.21-4.79c-30.24-1.57-60.54-1.85-90.77-3.48c-48.85-2.64-97.77-5.08-145.6-16.81
		c-15.93-3.9-18.91-7.53-18.82-23.65c0.16-28.87-0.7-57.78,0.6-86.6c1.79-39.75,5.21-79.43,7.87-119.14
		c1.13-16.76,2.34-33.51,3.13-50.29c2.24-47.48,3.9-95,6.53-142.46C2768.42,709.82,2771.57,673.49,2774.29,635.79z"/>
	<path class="st0" d="M3303.81,466.93c-7.25,38.42-13.96,75.65-21.41,112.73c-14.98,74.64-30.37,149.21-45.56,223.81
		c-4.52,22.21-10.79,43.61-23.06,63.16c-14.81,23.61-36.49,32.86-62.69,29.19c-20.27-2.84-40.28-8.76-59.84-15.08
		c-12.33-3.98-24.16-13.73-21.86-33c3.39-28.53,4.54-57.42,9.54-85.65c12.36-69.76,24.73-139.59,40.25-208.69
		c11.75-52.3,27.39-103.81,43.2-155.08c9.32-30.24,23.92-37.15,55.84-34.25c15.11,1.37,30.42,0.44,45.59,1.28
		c6.13,0.34,12.3,2.19,18.2,4.12c28.54,9.33,32.68,15.15,29.68,45.1C3309.97,431.7,3306.62,448.65,3303.81,466.93z"/>
</g>
</svg>
