<?xml version="1.0" encoding="utf-8"?>
<!-- Generator: Adobe Adobe Illustrator 24.2.0, SVG Export Plug-In . SVG Version: 6.00 Build 0)  -->
<svg version="1.1" id="Layer_1" xmlns="http://www.w3.org/2000/svg" xmlns:xlink="http://www.w3.org/1999/xlink" x="0px" y="0px"
	 width="1250px" height="1306.01px" viewBox="0 0 1250 1306.01" style="enable-background:new 0 0 1250 1306.01;"
	 xml:space="preserve">
<style type="text/css">
	.st0{fill:#A0A0D3;}
	.st1{display:none;fill:#FFFFFF;}
	.st2{fill:#F9D39C;}
</style>
<g>
	<path class="st2" d="M868.54,336.45c45.06-9.35,89.6-19.07,134.35-27.65c20.06-3.85,40.51-5.93,60.87-7.89
		c21.08-2.03,42.26-3.21,63.42-4.24c12.8-0.63,23.04,4.59,30.74,15.18c10.53,14.49,18.65,30.02,21.86,47.75
		c2.47,13.64,1.08,27.28-0.8,40.9c-4.67,33.93-17.7,65.07-33.25,95.03c-21.54,41.51-44.24,82.43-66.85,123.38
		c-13.71,24.84-28.04,49.34-42.41,73.81c-2.74,4.66-1.08,7.91,0.95,11.8c18.41,35.32,37.58,70.28,54.88,106.14
		c18.99,39.38,36.44,79.5,54.17,119.48c8.17,18.42,15.79,37.11,22.9,55.96c3.9,10.33,6.25,21.3,4.07,32.53
		c-2.77,14.28-11.88,24.54-22.3,33.78c-19.17,16.99-41.42,28.36-66.72,31.79c-15.42,2.09-31.36,1.97-46.93,0.84
		c-18.59-1.35-37.2-3.92-55.48-7.58c-34.04-6.8-68.08-13.87-101.69-22.49c-42.81-10.98-85.2-23.6-127.77-35.52
		c-0.34-0.1-0.71-0.17-1.01-0.34c-8.37-4.94-13.7-0.88-19.53,5.34c-11.96,12.76-24.37,25.13-37.25,36.95
		c-14.32,13.13-29.15,25.74-44.16,38.09c-20.38,16.78-40.8,33.55-61.8,49.53c-27.97,21.28-56.31,42.09-84.93,62.49
		c-9.08,6.47-19.32,11.45-29.42,16.33c-12.64,6.11-24.64,3.15-35.84-4.39c-13.8-9.3-23.61-22.17-31.93-36.25
		c-15.78-26.72-24.16-55.98-27.41-86.56c-3.25-30.62-6.14-61.34-7.33-92.1c-1.41-36.22-1.56-72.54-0.62-108.77
		c0.25-9.51-2.42-13.44-9.94-17.31c-48.75-25.15-96.24-52.55-141.68-83.27c-39.02-26.38-77.45-53.66-115.83-80.98
		c-8.8-6.27-17.15-13.61-24.27-21.72c-11.51-13.12-12.41-29.17-8.9-45.53c5.83-27.24,21.86-48.06,42.44-65.81
		c23.27-20.07,51.19-31.76,79.36-42.59c44.13-16.96,88.63-32.97,132.92-49.51c22.23-8.3,44.38-16.8,66.5-25.4
		c1.8-0.7,3.8-2.66,4.36-4.46c10.93-34.89,21.31-69.95,32.54-104.74c12.77-39.56,25.78-79.06,39.58-118.27
		c11.91-33.81,24.61-67.37,37.89-100.67c6.75-16.92,16.13-32.74,28.69-46.19c9.56-10.24,21.67-16.19,35.68-17.72
		c34.02-3.7,63.67,6.69,89.61,28.45c21.26,17.84,40.14,38.1,57.49,59.64c35.77,44.43,70.97,89.33,106.32,134.1
		c9.5,12.04,18.82,24.22,27.87,36.6c2.92,3.99,5.71,5.9,10.52,3.75C864.23,337.35,866.22,337.06,868.54,336.45z"/>
</g>
</svg>
